<svg version="1.1" xmlns="http://www.w3.org/2000/svg" viewBox="0 0 301.8181818181818 226.36363636363632" width="301.8181818181818" height="226.36363636363632">
  <!-- svg-source:excalidraw -->
  
  <defs>
    <style>
      @font-face {
        font-family: "Virgil";
        src: url("https://excalidraw.com/Virgil.woff2");
      }
      @font-face {
        font-family: "Cascadia";
        src: url("https://excalidraw.com/Cascadia.woff2");
      }
    </style>
  </defs>
  <rect x="0" y="0" width="301.8181818181818" height="226.36363636363632" fill="#ffffff"></rect><g stroke-linecap="round" transform="translate(28.654495154641666 28.206741263807146) rotate(0 84 84)"><path d="M23.41 26.98 C23.41 26.98, 23.41 26.98, 23.41 26.98 M23.41 26.98 C23.41 26.98, 23.41 26.98, 23.41 26.98 M9.95 50.3 C18.32 40.62, 25.88 27.58, 39.94 14.42 M9.46 49.65 C16.27 40.86, 24.21 32.61, 37.68 15.2 M7.46 57.53 C20.63 44.37, 31.76 28.66, 51.33 8.26 M6.02 58.3 C18.39 43.56, 32.58 30.12, 51.09 5.74 M7.2 67.14 C20.21 49.94, 29.91 39.42, 57.9 4.91 M5.47 66.66 C21.06 48.47, 35.94 32.16, 57.56 4.82 M5.54 73.81 C20.03 53.42, 37.27 34.94, 62.44 3.31 M4.01 72.67 C24.92 50.71, 44.58 26.35, 64.71 5.05 M2.1 78.2 C30.31 52.67, 55.93 22.13, 70.76 4.07 M4.27 80.33 C27.34 51.67, 53.12 23.49, 70.91 3.23 M2.47 86.57 C32.77 53.54, 58.95 23.89, 78.22 3.57 M1.97 88.21 C18.78 70.93, 32.82 53.65, 75.83 3.28 M3.44 95.44 C32.68 59.06, 66.04 20.02, 82.43 -0.22 M3.31 93.03 C30.03 61.16, 57.58 31.1, 83.13 1.12 M5.03 97.69 C22.35 74.46, 40.11 54.84, 89.12 0.19 M3 98.74 C20.41 79.07, 39.23 57.62, 88.54 1.44 M5.71 101.48 C31.17 72.67, 55.89 43.1, 91.46 4.16 M5.59 102.35 C26.04 77.91, 48.17 53.29, 91.1 3.02 M7.78 106.81 C43.24 68.24, 79.11 26.91, 96.66 2.52 M6.88 107.43 C27.98 84.11, 49.2 58.29, 95.93 3.31 M8.55 111.93 C35.56 77.15, 63.98 44.57, 101.99 3.75 M7.18 111.47 C29.47 87.51, 51.55 62.2, 100.23 5.46 M11.03 116.98 C38.47 83.05, 71.59 47.99, 104.02 6.56 M10.06 116.44 C39.99 80.11, 70.88 44.67, 104.64 5.94 M10.59 119.57 C37.96 92.11, 60.08 62.22, 107.93 8.53 M11.05 121.34 C38.44 89.61, 67.57 57.04, 110.59 6.01 M11.47 127.69 C49.68 83.06, 86.74 43.46, 113.49 6.51 M10.28 125.99 C34.83 97.76, 58.3 70.15, 114.33 7.16 M14.19 130.58 C49.82 87.65, 88.35 43.67, 119.62 9.44 M13.82 128.9 C37.47 100.79, 63.08 71.73, 117.6 8.79 M17.44 131.1 C53.12 88.66, 89.89 48.73, 121.77 11.52 M15.81 132.54 C50.98 92.45, 87.15 51.32, 122.99 10.37 M20.76 136.85 C44.1 107.49, 70.5 79.43, 127.12 14.58 M19.05 135.41 C58.96 88.72, 99.46 41.84, 125.29 12.69 M21.12 137.58 C45.56 111.63, 72.18 83.51, 128.62 16.43 M21.71 138.36 C53.66 102.05, 84.01 64.61, 129.55 15.21 M23.52 140.24 C56.88 103.04, 90.12 68.27, 132.21 17.26 M24.01 140.65 C52.98 107.05, 80.07 76.1, 132.34 17.37 M29.03 143.69 C53.27 115.82, 79.66 85.54, 136.16 18.5 M28.26 143.51 C67.54 98.93, 109.07 52.16, 135.22 20.38 M28.68 146.01 C69.36 103.72, 105.92 58.52, 137.69 22.46 M30.87 146.45 C59.39 114.14, 88.98 79.51, 139.35 21.79 M30.78 151.92 C67.79 114.65, 97.01 73.65, 141.6 25.19 M33.73 149.57 C71.87 104.77, 109.9 59.86, 142.21 25.32 M35.52 151.36 C58.88 126.13, 80.75 102, 146.17 28.85 M36.8 153.12 C63.52 119.59, 91.68 87.25, 145.61 28.17 M41.64 151.67 C68.83 119.77, 99.23 84.52, 149.19 29.62 M40.96 152.61 C64.45 125.71, 87.79 100.49, 147.68 29.8 M45.04 156.68 C76.04 120.23, 101.73 87.15, 148.59 35.56 M44.57 154.8 C80.45 113.21, 117.58 72.47, 149.68 32.79 M50.04 157.07 C75.32 124.61, 99.25 96.96, 151.64 38.17 M48.86 157.06 C72.35 130.06, 97.14 101.25, 153.16 37.35 M51.36 158.81 C86.89 118.48, 124.55 77.51, 154.35 40.37 M51.98 158.65 C76.19 128.87, 104.12 98.64, 153.46 42.19 M55.41 159.68 C82.57 128.19, 113.37 94.12, 156.65 46.32 M56.28 160.32 C85.23 127.17, 113.52 93.18, 157.03 45.27 M60.94 162.76 C81.26 136.46, 104.14 112.05, 157.83 48.78 M59.08 162.6 C81.86 135.43, 102.6 110.32, 158.77 48.19 M63.61 165.73 C92.22 135.09, 119.16 103.36, 162.33 52.53 M63.33 164.11 C99.59 122.84, 136.42 80.19, 160.04 52.41 M64 167.01 C94.3 133.51, 126.68 98.6, 163.19 57.7 M65.6 166.63 C94.87 132.75, 124.81 99.38, 162.08 55.65 M72.18 166.63 C95.76 139.67, 120.08 112.27, 163.87 59.19 M70.77 166.9 C97.14 141.08, 119.92 112.62, 163.92 60.14 M77.08 167.91 C111.61 125.87, 144.25 87.79, 166.31 61.25 M75.46 167.2 C94.3 143.93, 113.1 123.17, 166.5 62.21 M83.07 166.25 C111 135.78, 139.43 101.3, 168.2 70.15 M80.65 167.19 C105.68 141.75, 128 114.88, 168.01 67.87 M84.56 168.32 C104.01 145.55, 124.97 122.53, 168.86 73.51 M86.37 167.88 C112.52 138.45, 138.5 108.69, 167.84 75.06 M92.01 168.39 C116.87 137.76, 141.85 111.04, 167.97 80.43 M91.73 169.04 C110.25 146.8, 131.13 122.53, 167.33 80.79 M97.84 168.25 C115.98 144.68, 133.11 123.42, 168.14 84.68 M96.93 167.96 C113.94 147.67, 131.23 129.48, 168.44 85.13 M102.42 169.55 C125.93 141.12, 145.93 114.99, 167.54 89.98 M101.32 168.78 C120.08 147.52, 136.82 127.5, 168.45 91.6 M109.98 162.9 C123.15 148.56, 136.6 135.81, 167.88 96.19 M109.34 164.52 C124.81 149.04, 139.9 130.66, 167.98 98.16 M116.7 159.6 C134.82 143.39, 154.48 122.61, 165.73 106.21 M118.66 161.73 C129.85 146.31, 142.75 133.08, 164.37 107.09 M130.44 151.62 C142.34 141.87, 151.52 129.68, 160.99 118.22 M132.06 153.41 C139.92 142.81, 148.77 133.78, 162.23 118.21 M32.75 149.81 C32.75 149.81, 32.75 149.81, 32.75 149.81 M32.75 149.81 C32.75 149.81, 32.75 149.81, 32.75 149.81 M46.7 156.85 C35.3 145.99, 23.44 136.16, 9.14 125.82 M47.54 156.13 C35.61 145.89, 22.24 136.77, 10.63 125.86 M60.8 164.53 C48.38 153.36, 36.69 141.62, 9.07 115.74 M62.36 165.09 C47.48 152.86, 32.8 139.76, 7.84 117.51 M67.29 162.29 C42.27 141.16, 19.99 123.21, 4.59 108.93 M67.12 164.05 C42.4 142.38, 17.12 122, 6.09 110.1 M73.25 162.6 C49.92 143.53, 26.24 123.12, 4.15 101.94 M73.53 163.53 C57.98 151.09, 43.4 137.82, 3.15 103 M79.7 164.11 C53.63 141.62, 29.62 121.25, 1.4 97.7 M79.04 163.6 C46.96 136.66, 16.5 109.97, 2.26 95.79 M83.65 164.1 C62.08 142.97, 37.98 123.63, -0.43 90.15 M84.88 163.36 C52.19 135.71, 19.13 108.08, 0.64 89.86 M92.66 162.65 C72.06 144.78, 50.71 127.96, -0.19 86.43 M90.7 163.98 C67.46 142.46, 44.17 122.83, 1.85 85.51 M98.74 164.59 C69.97 140.69, 41.21 112.26, 3.85 81.48 M100.52 165.58 C68.61 138.45, 36.29 110.27, 2.52 81.51 M102.92 162.36 C69.68 133.03, 36.31 104.34, 3.59 76.8 M103.39 163.08 C67.18 129.33, 27.99 97.3, 2.02 76.79 M108.23 163.11 C81.87 138.7, 58.49 120, 1.51 69.11 M108.42 162.2 C74.29 133.54, 39.51 103.87, 2.91 72.04 M112.5 160.3 C72 127.42, 31.28 91.19, 5.05 65.74 M111.62 160.01 C89.21 143.04, 68.54 123.41, 3.38 66.03 M117.5 159.03 C76.83 125.31, 42.13 93.74, 4.94 60.05 M117.13 159.19 C91.33 137.29, 66.58 115.96, 3.68 61.99 M121.56 157.38 C85.5 124.65, 46.14 95.9, 4.36 56.76 M119.9 156.31 C93.61 135.1, 67.93 111.47, 5.3 55.81 M124.21 155.8 C98.88 133.1, 76.26 113.46, 6.07 51.96 M124.37 156.17 C95.67 130.14, 66.55 103.84, 6.18 53.1 M126.79 154.48 C94.78 125.39, 59.41 94.38, 10.01 51.91 M129.19 154.1 C102.4 131.84, 76.72 110.7, 10.36 50.82 M132.32 150.1 C93.8 121.67, 56.78 89.25, 11.41 47.71 M131.1 151.62 C92.73 116.21, 51.43 82.45, 12.21 46.96 M135.65 146.47 C101.68 121.79, 68.5 93.08, 12.49 43.31 M135.17 148.07 C89.07 111.25, 46.03 71.82, 14.08 43.43 M136.85 144.59 C111.74 121.76, 85.79 98.6, 16.76 38.87 M138.22 145.56 C90.4 103.55, 41.04 61.24, 16.79 40.43 M141.24 144.09 C90.93 100.9, 40.81 59.41, 19.41 34.25 M141 143.36 C99.88 107.48, 58.8 72.15, 17.98 36.77 M141.39 141.17 C117.99 118.01, 91.66 94.86, 20.47 34.23 M144.12 140.83 C106.28 109.38, 72.15 79.23, 19.41 32.17 M146.66 135.38 C118.5 113.47, 95.36 91.2, 23.17 28 M145.78 137.05 C115.69 110.84, 87.42 85.1, 21.29 29.55 M148.61 135.65 C119.13 105.58, 86.87 79.89, 24.25 24.5 M149.16 133.84 C119.19 108.63, 88.92 82.89, 24.78 25.39 M150.37 130.3 C120.85 103.59, 86.76 74.75, 28.73 23.09 M151.88 130.69 C122.29 105.56, 92.66 80.44, 26.69 23.31 M156.23 129.81 C129.51 107.45, 106.81 84.82, 30.86 20.33 M153.66 128.5 C107.18 88.17, 58.85 46.13, 30.61 21.8 M156.84 124.12 C123.11 94.63, 88.12 68.4, 36.12 19.96 M157.57 125.75 C113.2 86.24, 67 45.79, 34.87 19.13 M157.25 120.08 C131.4 96.18, 103.94 72.31, 36.33 17 M158.15 120.98 C122.62 90.38, 89.23 61.26, 37.77 16.36 M159.62 116.05 C136.76 96.73, 111.7 77.4, 42.19 15.05 M160.14 118.23 C126.37 89, 92.66 60.08, 40.2 13.64 M160.28 112.75 C115.56 73.41, 70.63 31.78, 44.03 11.73 M161.65 112.92 C116.77 73.55, 71.2 34.91, 44.39 10.54 M165.12 108.51 C122.53 75.37, 81.32 38.85, 48.34 8.02 M163.59 109.94 C126.7 77.7, 88.78 44.55, 48.53 8.33 M164.22 103.41 C134.37 79.16, 104.84 55.41, 49.66 5.01 M164.38 104.83 C128.28 72.69, 90.7 38.49, 50.79 5.68 M166.5 101.89 C133.86 72.74, 102.58 43.21, 54.27 3.84 M166.63 101.26 C138.92 79.13, 111.73 54.09, 52.93 3.56 M166.29 96.91 C138.38 73.71, 112.95 51.44, 57.72 4.54 M167.8 98.11 C136.53 71.61, 106.76 44.97, 58.05 2.95 M169.26 91.88 C135.76 65.07, 103.6 37.86, 64.79 2.65 M168.18 92.42 C138.59 66.97, 109.27 39.61, 64.47 2.47 M169.26 86.75 C135.15 60.38, 100.49 29.45, 70.78 -0.67 M167.81 88.36 C131.07 53.49, 93.23 20.38, 69.2 1.39 M167.2 81.41 C134.19 56.51, 103.74 26.55, 73.22 1.33 M167.39 81.56 C136.27 52.93, 102.73 25.74, 73.63 0.54 M167.71 77.01 C133.76 48.53, 104.66 18.14, 77.43 -0.27 M167.03 77.38 C140.57 52.96, 112.67 27.94, 79.21 -0.02 M166.21 72.03 C143.47 46.89, 116.2 26.3, 84.22 1.95 M167.39 69.95 C138.9 46.15, 110 21.58, 85.16 0 M166.31 64.33 C146.99 48.68, 128.12 30.72, 93.16 0.53 M167.1 65.12 C144.72 45.07, 121.48 25.17, 93.84 2.75 M167.71 59.86 C144.55 38.64, 121.63 19.78, 101.54 4.48 M166.76 58.1 C148.4 41.94, 128.2 25.57, 103.76 4.61 M161.25 48.72 C144.48 35.46, 129.34 22.5, 111.19 6.62 M162.04 48.5 C141.77 32.06, 122.54 15.22, 112.49 6.41 M153.9 37.77 C145.54 27.34, 130.58 19.36, 118.9 6.98 M154.75 39.82 C148.3 32.18, 139.77 25.08, 119.08 7.8" stroke="#fa5252" stroke-width="0.5" fill="none"></path><path d="M86.22 0.59 C97.3 -0.18, 110.37 4.04, 120.69 8.9 C131.01 13.76, 140.77 21.11, 148.13 29.74 C155.5 38.37, 161.81 49.72, 164.9 60.68 C167.99 71.64, 168.33 84.25, 166.68 95.51 C165.02 106.76, 160.9 118.61, 154.96 128.18 C149.01 137.76, 140.25 146.58, 131.02 152.95 C121.79 159.32, 110.75 164.35, 99.55 166.4 C88.36 168.45, 74.98 168.01, 63.86 165.26 C52.74 162.51, 41.84 156.55, 32.84 149.89 C23.84 143.23, 15.38 134.98, 9.88 125.3 C4.38 115.62, 0.77 103.14, -0.15 91.79 C-1.08 80.45, 0.43 68.01, 4.35 57.22 C8.27 46.42, 15.54 35.51, 23.37 27.03 C31.2 18.54, 39.6 10.73, 51.32 6.32 C63.05 1.91, 85.44 1.16, 93.72 0.57 C102 -0.02, 101.1 1.54, 101.02 2.8 M109.84 2.28 C120.43 4.38, 130.39 12.81, 138.8 20.31 C147.2 27.81, 155.49 37.09, 160.27 47.28 C165.06 57.47, 167.22 69.78, 167.52 81.46 C167.83 93.15, 166.57 106.51, 162.1 117.38 C157.64 128.25, 149.14 139.24, 140.73 146.69 C132.33 154.15, 122.17 158.71, 111.67 162.14 C101.16 165.58, 89.17 168.32, 77.7 167.3 C66.23 166.29, 53.14 161.67, 42.85 156.05 C32.56 150.42, 22.73 142.24, 15.96 133.55 C9.18 124.87, 4.7 114.62, 2.21 103.92 C-0.28 93.23, -1.3 80.84, 1.02 69.4 C3.34 57.96, 9.26 44.89, 16.13 35.31 C22.99 25.74, 32.75 17.59, 42.2 11.96 C51.66 6.33, 61.73 2.97, 72.85 1.54 C83.97 0.1, 102.88 2.94, 108.93 3.35 C114.99 3.76, 109.68 2.68, 109.18 4.01" stroke="#000000" stroke-width="1" fill="none"></path></g><g transform="translate(62.654495154641666 96.20674126380715) rotate(0 7 12.5)"><text x="0" y="18" font-family="Virgil, Segoe UI Emoji" font-size="20px" fill="#000000" text-anchor="start" style="white-space: pre;" direction="ltr">A</text></g><g stroke-linecap="round" transform="translate(96.81238989148375 27.785688632228187) rotate(0 84 84)"><path d="M21.13 27.64 C21.13 27.64, 21.13 27.64, 21.13 27.64 M21.13 27.64 C21.13 27.64, 21.13 27.64, 21.13 27.64 M10.79 42.81 C19.38 39.36, 24.8 30.09, 33.87 19.89 M11.98 44.12 C18.82 37.24, 25.74 28.93, 34.83 19.18 M2.77 58.93 C15.89 48.17, 24.46 33.94, 46.89 9.07 M3.16 59.83 C12.26 49.14, 21.84 39.77, 47.46 8.42 M4.38 64.82 C17.7 45.14, 37.15 29.63, 53.74 10.42 M3.79 66.57 C20.39 47.19, 35.57 28.11, 52.45 10.6 M1.09 73.46 C24.93 46.63, 48.81 20.28, 59.2 8.73 M2.58 72.07 C24.01 48.91, 47.46 22.98, 58.24 9.23 M3.61 78.89 C19.04 62.26, 32.57 44.26, 65.19 7.14 M2.52 80.22 C22.35 57.49, 40.1 36.44, 66.07 7.7 M3.29 88.12 C28.48 57.5, 52.35 28.26, 71.25 6.38 M2.37 85.93 C28.4 56.78, 54.92 26.83, 72.43 5.45 M3.4 91.57 C32.8 56.68, 63.88 21.92, 78.49 3.45 M2 92.47 C22.64 68.42, 43.58 43.62, 79.18 3.64 M2.43 97.84 C23.18 74.21, 40.44 56.43, 86.84 3.71 M3.72 95.23 C31.32 66.52, 56.73 37.13, 84.78 2.08 M4.81 101.99 C30.15 73.81, 50.59 46.84, 88.44 2.53 M5.12 100.88 C37.29 64.09, 68.43 29.81, 89.77 3.94 M6.07 105.02 C31.75 78.6, 51.53 52.99, 95.47 5.87 M6.22 105.85 C30.05 79.02, 51.34 52.63, 94.66 3.15 M7.49 109.57 C34.06 79.36, 60.28 52.74, 97.56 4.45 M8.26 108.9 C26.64 88.31, 43.75 67.78, 99.39 5.63 M9.45 113 C45.57 74.69, 81.09 32.45, 104.98 7.62 M11.04 113.2 C34.41 85.49, 60.18 56.85, 102.65 5.95 M10.02 118.59 C42.71 83.96, 70.31 49.6, 107.35 6.97 M11.64 118.42 C45.46 78.67, 79.09 39.79, 108.53 6.01 M11.57 122.56 C34.27 97.38, 53.09 73.47, 112.25 7.96 M13.03 122.73 C39.32 90.57, 67.3 59.23, 113.31 7.53 M12.76 128.79 C54.83 84.87, 92.01 39.53, 119.11 9.29 M14.16 126.41 C49.88 83.65, 87.22 39.23, 117.34 6.41 M15.12 131.39 C40.52 101.94, 65.26 75.15, 122.63 10.81 M16.61 131.38 C45.25 96.42, 75.94 62.67, 120.57 9.52 M17.73 134.83 C56 88.98, 95.16 44.77, 125.92 12.59 M19.29 134.32 C51.63 95.62, 85.67 57.19, 123.69 12.75 M19.84 137.12 C60.21 95.21, 94.17 55.04, 128.53 14.05 M21.18 136.66 C58.13 95.16, 91.18 56.93, 128.31 15.07 M24.12 140.09 C49.46 106.67, 80.28 75.76, 131.12 15.4 M24.58 139.95 C51.57 108.79, 78.5 78.89, 131.61 16.89 M27.27 141.1 C65.9 98.27, 109.84 52.28, 132.68 17.7 M27.84 142.36 C59.93 104.51, 91.46 68.02, 133.66 19.07 M30.75 144.62 C66.74 101.95, 106.97 57.44, 137.87 22.27 M30.11 145.33 C69.64 100.77, 109.3 52.46, 136.83 21.27 M33.96 150.36 C75.33 98.43, 117.15 51.65, 142.28 22.77 M32.6 148.53 C69.61 106.34, 106.92 63.55, 141.09 24.99 M33.58 152.66 C60.73 124.44, 87.65 92.11, 143.04 24.89 M34.01 152.29 C58.63 122.69, 82.51 93.95, 144.73 26.12 M37.53 155.84 C69.72 122.13, 97.22 87.47, 145.53 29.92 M38.47 153.78 C66.52 122.46, 94.34 90.35, 147.04 29.55 M41.57 156.11 C80.97 109.69, 121.13 63.82, 150.59 33.17 M42.3 155.93 C75.68 118.29, 107.96 79.59, 149.67 32.44 M46.63 158.17 C68.81 128.94, 93.15 101.5, 153.13 35.03 M45.36 158.95 C77.69 120.44, 110.4 83.68, 151.28 36.29 M49.42 158.35 C87.44 117.94, 122.02 74.55, 153.5 40.43 M49.69 160.38 C78.8 126.52, 108.89 91.93, 152.94 39.25 M51.71 161.71 C91.22 120.78, 128.45 79.39, 156.73 45.14 M52.91 161.21 C93.23 114.5, 132.31 69.38, 155.48 43.48 M56.96 162.93 C79.81 134.18, 105.48 105.87, 159.16 46.94 M56.86 163.6 C90.76 122.51, 125.67 82.39, 158.14 47.12 M60.91 165.96 C91.13 131.89, 118.31 101.31, 161.07 51.47 M60.34 163.51 C87.35 134.33, 114.22 105.99, 159.31 51.2 M66.33 167.59 C87.13 140.73, 110.08 113.47, 161.35 55.4 M65.78 167.26 C90.65 137.55, 117.09 107.47, 161.19 55.63 M68.11 165.63 C95.36 138.61, 117.56 113.34, 163.35 58.22 M68.55 166.56 C99.77 130.42, 133.45 93.52, 163.78 58.06 M74.09 168.75 C105.97 131.06, 139.1 92.9, 164.94 62.72 M73.7 167.34 C106.6 130.78, 138.7 93.6, 164.97 63.17 M78.21 169.11 C105.32 137.84, 131.07 106.05, 165.11 70.01 M79.32 167.34 C104.15 140.66, 127.85 111.97, 165.17 68.72 M83.21 169.51 C102.3 148.41, 119.14 126.21, 165.19 72.22 M85.18 168.11 C107.75 142.34, 130.76 115.75, 166.67 75.14 M89.9 168.49 C112.77 143.67, 136.09 115.61, 166.26 77.61 M90.15 169.15 C107.32 148.65, 126.46 127.94, 167.03 79.57 M94.41 168.44 C112.72 145.8, 130.57 125.89, 167.71 85.67 M95.46 166.88 C113.73 146.34, 133.18 125.8, 167.76 83.96 M101.54 164.77 C115.18 146.23, 130.94 132.24, 169.84 90.27 M102.13 166.78 C124.83 141.47, 145.76 115.12, 168.93 89.08 M109.37 163.24 C123.32 146.11, 138.68 132.25, 171.19 92.76 M111.64 161.68 C127.21 144.8, 142.75 125.52, 170.66 94.61 M117.88 157.39 C134.77 138.85, 153.23 117.48, 169.27 103.93 M118.63 158.07 C130.06 145.19, 139.02 135.01, 167.76 103.99 M129.61 153.86 C142.52 138.33, 157.22 120.77, 164.87 111.2 M127.57 154.4 C137.28 144.21, 145.79 134.32, 164.27 112.63 M34.51 152.35 C34.51 152.35, 34.51 152.35, 34.51 152.35 M34.51 152.35 C34.51 152.35, 34.51 152.35, 34.51 152.35 M45.56 155.35 C38.52 149.13, 27.87 141.21, 17.53 133.39 M46.9 157.62 C40.51 152.64, 33.54 145.83, 16.92 132.87 M56.62 163.97 C44.67 149.38, 30.11 137.59, 13.48 123.31 M57.14 162.41 C45.57 150.2, 31.09 138.83, 14.3 124.28 M69.06 163.97 C56.98 155.73, 42.84 143.47, 9.97 115.64 M67.62 164.71 C50.68 151.45, 32.42 136.53, 10.89 116.7 M74.52 165.65 C47.16 143.68, 23.66 119.9, 8.01 108.22 M73.43 164.94 C58.5 152.54, 43.95 140.04, 9.2 110.43 M77.66 165.2 C61.69 146.58, 41.87 129.78, 7.68 102.57 M80.31 163.87 C62.26 150.86, 46.64 136.15, 7.03 102.35 M85.38 164.19 C55.19 138.45, 26.36 115.06, 3 91.22 M86.04 165.1 C55.49 138.38, 24.51 111.81, 2.47 92.24 M92.81 163.58 C62.67 139.63, 36.95 116.85, 4.59 88.39 M90.39 163.95 C60.53 138.36, 31.55 112.4, 2.56 88.29 M98.14 163.03 C76.27 146.83, 53.46 126.36, 2.96 84.2 M98.07 165.73 C78.34 147.17, 57.62 129.1, 2.64 82.38 M101.99 165.72 C75.34 141.14, 47.61 119.3, 4.22 79.22 M104.17 165.47 C69.44 133.59, 35.54 105.02, 4.17 77.45 M107.8 162.96 C87.38 144.33, 62.87 124.48, 6.14 73.89 M106.57 163.52 C76.43 134.04, 42.68 105.27, 4.82 73.95 M111.95 160.9 C90.46 142.29, 68.67 121.99, 2.84 69.9 M112.18 161.19 C82.28 134.45, 54.01 111.02, 5.23 68.08 M115.9 157.98 C78.77 126.05, 41.23 92.84, 4.62 62.88 M115.06 159.06 C86.41 133.75, 58.12 107.74, 4.89 61.5 M119.3 158.22 C90.72 134.69, 67.42 112.43, 6.34 59.12 M119.69 157.31 C81.51 124.07, 43.42 91.25, 4.62 58.9 M124.1 156.68 C77.59 114.87, 31.21 78.45, 6.07 55.63 M123.06 156.04 C86.38 125.35, 52.97 93.67, 7.22 55.06 M126.2 155.43 C82 111.64, 34.83 74.98, 8.66 52.17 M128.44 154.25 C96.33 126.91, 63.92 100.37, 9.19 49.78 M131.32 152.3 C82.84 108.89, 37.23 68.14, 11.2 45.28 M131.27 151.45 C90.35 116.33, 48.74 80.63, 10.13 46.9 M134.86 149.58 C86.39 109.89, 36.72 67.31, 10.79 44.99 M135.11 149.34 C89.09 109.43, 41.91 68.44, 12.73 43.88 M136.04 144.7 C94.76 111.79, 56.03 77.2, 14.03 40.87 M137.85 147.46 C95.2 110.66, 51.32 72.63, 16.16 40.83 M139.3 144.3 C106.81 111.11, 69.13 81.65, 18.54 36.76 M141.12 144.1 C98.39 106.08, 54.82 68.14, 17.77 36.16 M142.34 141.61 C117.38 119.65, 91.95 93.42, 18.15 32.09 M144.48 140.73 C106.27 106.79, 67.71 73.85, 18.3 32.86 M146.11 138.49 C98.37 95.97, 54.69 56.79, 20.51 28.62 M145.36 138.87 C100.65 96.98, 54.96 57.78, 21.54 30.16 M148.34 136.09 C122.15 110.56, 91.71 84.61, 24.46 24.51 M148.76 135.82 C110.25 103.23, 74.07 71.12, 23.78 26.51 M152.96 132.98 C115.29 100.15, 81.64 69.51, 26.17 24.94 M150.68 131.56 C101.46 90.11, 52.07 47.67, 26.02 23.21 M154.72 130.44 C106.72 87.43, 63.37 47.22, 31.21 19.62 M154.79 129.14 C123.96 103.06, 94.08 76.7, 30.08 20.78 M155.81 125.89 C116.54 89.12, 77.66 56.4, 31.75 20.04 M157.15 126.92 C111.26 87.73, 67.2 48.17, 33.89 19.22 M159.23 122.89 C131.56 100.38, 104.9 77.61, 37.64 15.59 M159.63 123.62 C125.07 93.94, 89.92 63.58, 36.59 16.98 M160.93 120.6 C127.15 86.99, 89.12 57.24, 41.06 14.89 M162.07 118.6 C121.99 85.1, 82.33 50.61, 39.29 13.32 M163.42 115.02 C117.6 73.19, 71.31 34.2, 41.11 11.17 M162.03 114.13 C131.28 87.5, 100.44 61.25, 43.69 10.56 M164.91 109.8 C123.92 75.99, 84.16 40.54, 48.46 7.69 M163.93 111.1 C125.58 76.55, 87.26 44.37, 46.84 8.46 M166.17 107.57 C138.57 83.68, 113.12 61.31, 50.76 7.69 M164 107.31 C135.03 81.81, 104.59 55.5, 50.5 7.15 M167.16 103.37 C139.4 77.84, 111.85 54.95, 55.67 6.54 M164.97 101.76 C129.28 70.27, 93.39 40.22, 56.39 6.13 M168.42 98.6 C133.38 67.72, 98.72 40.43, 59.57 5.06 M167.51 97.67 C126.56 64.22, 86.89 27.54, 60.84 4.59 M168.65 95.84 C135.73 66.25, 103.6 41.28, 65.66 4.23 M167.89 94.12 C140.36 70.63, 114.8 47.34, 64.99 5.03 M169.91 88.11 C143.29 68.3, 115.95 46.24, 71.81 1.88 M169.23 90.32 C146.09 71.17, 124.87 51.16, 70.73 2.94 M168.9 83.72 C135.74 57.89, 108.01 28.22, 75.23 2.1 M168.85 83.32 C148.25 66.11, 129.4 50.64, 75.4 3.08 M169.18 78.11 C148.39 60.09, 131.18 45.46, 81.07 0.62 M166.54 76.9 C148.67 60.33, 129.72 43.95, 80.45 1.79 M167.74 70.06 C150.92 57.48, 131.66 39.95, 82.27 -2.53 M167.22 70.62 C150.63 55.65, 133.71 41.22, 83.38 -1.3 M166.87 66.38 C141.1 42.9, 114.56 20.68, 90.26 -0.32 M166.84 65.48 C147.94 48.51, 128.43 32.26, 92.47 0.21 M161.83 57.89 C140.17 37.45, 121.42 18.14, 97.99 2.78 M164.11 56.85 C147.31 44.12, 133.19 29.85, 99.91 2.08 M155.14 46.85 C145.83 37.83, 134.91 28.11, 107.86 2.08 M156.92 46.84 C143.11 34.47, 129.64 23.12, 107.76 3.5 M149.59 35.56 C144.49 28.68, 134.63 22.59, 117.87 7.28 M151.31 35.78 C142.26 27.42, 133.71 20.42, 118.17 6.78" stroke="#228be6" stroke-width="0.5" fill="none"></path><path d="M117.18 7 C127.63 10.12, 137.39 18.4, 145.01 26.86 C152.62 35.32, 159.05 46.99, 162.87 57.78 C166.7 68.57, 168.78 80.31, 167.96 91.6 C167.14 102.89, 163.77 115.43, 157.98 125.52 C152.18 135.62, 142.51 145.48, 133.18 152.18 C123.86 158.88, 113.16 163.48, 102.04 165.74 C90.91 168, 77.66 167.93, 66.43 165.72 C55.2 163.51, 43.68 159.05, 34.67 152.49 C25.67 145.94, 17.92 136.08, 12.4 126.37 C6.88 116.65, 3.02 105.31, 1.54 94.21 C0.07 83.12, 0.31 70.86, 3.55 59.79 C6.8 48.71, 13.32 36.43, 21.01 27.77 C28.7 19.11, 39.36 12.33, 49.68 7.82 C60 3.31, 71.37 0.69, 82.94 0.71 C94.5 0.72, 112.66 6.31, 119.08 7.91 C125.49 9.52, 121.88 9.1, 121.42 10.34 M58.27 3.93 C68.33 -0.51, 81.96 0.13, 93.69 1.42 C105.43 2.71, 118.62 5.73, 128.67 11.68 C138.72 17.63, 147.89 27.85, 153.99 37.13 C160.08 46.41, 163.37 56.25, 165.23 67.35 C167.09 78.44, 167.58 92.22, 165.16 103.7 C162.74 115.17, 157.65 127.4, 150.71 136.2 C143.77 145, 133.46 151.25, 123.54 156.49 C113.63 161.73, 102.47 166.42, 91.21 167.64 C79.95 168.85, 66.61 167.5, 55.97 163.78 C45.33 160.06, 35.39 153.34, 27.35 145.31 C19.31 137.29, 12.46 125.93, 7.74 115.64 C3.02 105.35, -0.78 94.96, -0.94 83.58 C-1.1 72.21, 1.73 57.89, 6.77 47.4 C11.81 36.92, 20.46 27.88, 29.29 20.69 C38.13 13.49, 54.66 6.9, 59.8 4.24 C64.94 1.58, 59.51 3.64, 60.14 4.72" stroke="#000000" stroke-width="1" fill="none"></path></g><g transform="translate(214.81238989148375 97.78568863222819) rotate(0 8 12.5)"><text x="0" y="18" font-family="Virgil, Segoe UI Emoji" font-size="20px" fill="#000000" text-anchor="start" style="white-space: pre;" direction="ltr">B</text></g><g stroke-linecap="round" transform="translate(10 10) rotate(0 140.9090909090909 103.18181818181816)"><path d="M-0.46 -0.36 C113.16 0.77, 224.17 1.26, 281.33 0.13 M-0.21 -0.75 C105.19 -0.46, 209.6 0.11, 282.57 0.57 M281.91 -1.49 C281.18 52.29, 283.9 104.46, 281.5 205.05 M282.11 0.32 C281.39 80.04, 281.88 161.11, 281.7 206.56 M282.04 207.16 C204 203.12, 126.99 204.74, 0.68 207.77 M281.56 205.91 C170.31 206.98, 58.89 206.78, 0.38 206.57 M0.07 204.7 C-2.1 151.99, -0.55 98.27, 1.62 -0.98 M-0.32 206.8 C1.75 164.59, 1.38 122.55, 0.11 -0.08" stroke="#000000" stroke-width="1" fill="none"></path></g></svg>