<svg version="1.1" xmlns="http://www.w3.org/2000/svg" viewBox="0 0 216.36363636363626 101.81818181818184" width="216.36363636363626" height="101.81818181818184">
  <!-- svg-source:excalidraw -->
  
  <defs>
    <style>
      @font-face {
        font-family: "Virgil";
        src: url("https://excalidraw.com/Virgil.woff2");
      }
      @font-face {
        font-family: "Cascadia";
        src: url("https://excalidraw.com/Cascadia.woff2");
      }
    </style>
  </defs>
  <rect x="0" y="0" width="216.36363636363626" height="101.81818181818184" fill="#ffffff"></rect><g stroke-linecap="round" transform="translate(10 10.909090909090907) rotate(0 45.45454545454544 40.45454545454547)"><path d="M0 0 C0 0, 0 0, 0 0 M0 0 C0 0, 0 0, 0 0 M-0.49 5.69 C1 4.8, 2.58 1.65, 4.98 1.16 M-0.1 6.2 C1.09 5.5, 1.6 4.04, 4.69 0.58 M1.48 12.86 C1.32 8.77, 5.56 4.38, 11.89 0.16 M0.57 11.37 C2.23 8.47, 4.7 6.79, 10.85 0.02 M-1.23 17.88 C2.69 15.63, 6.41 9.75, 16.9 0.97 M0.18 19.01 C4.94 11.59, 10.19 5.84, 16.17 1.3 M1.2 24.63 C5.04 18.49, 9.36 13.13, 19.33 -0.84 M-0.1 23.16 C7.14 15.28, 14.55 7.57, 20.57 -0.26 M-0.15 31.23 C9.88 21.73, 16.38 13.12, 24.95 2.03 M-0.55 31.24 C7.81 21.91, 15.4 13.16, 27.2 0.9 M-1.74 36.11 C9.8 27.36, 19.9 16.81, 30.31 0.97 M0.11 37.58 C13.17 22.34, 25.26 8.43, 31.67 -0.83 M-0.61 41.8 C12.72 26.81, 26.4 11.27, 38.37 -1.13 M-0.47 41.87 C13.4 26.75, 29.13 11.1, 37.51 0.12 M0.31 50.58 C13.89 35.94, 25.3 19.94, 44.44 1.45 M0.43 49.72 C17.45 28.95, 33.09 11.31, 42.13 0.76 M1.41 52.62 C11.06 42.61, 19.91 31.42, 47.47 0.74 M-0.06 53.7 C18.12 36.78, 32.67 17.94, 48.25 -0.09 M1.76 61.31 C11.39 47.1, 24.82 30.3, 52.04 -1.67 M0.98 61.66 C11.49 47.07, 23.38 34.78, 53.84 0.46 M0.34 65.44 C18.55 45.86, 38.59 24.8, 59.63 0.85 M-0.44 67.8 C15.52 50.14, 30.31 32.29, 57.54 -0.28 M-1.28 72.76 C15.56 57.98, 28.56 40.85, 62.53 -0.72 M-0.5 73.23 C14.04 56.71, 26.95 41.71, 64.64 -0.26 M-0.34 77.68 C14.54 61.6, 32.76 42.44, 67.26 0.36 M-0.84 78.54 C25.39 51.65, 48.61 23.39, 68.46 -0.43 M2.35 83.06 C27.48 51.42, 57 18.95, 76.38 -2.07 M2.68 82.55 C28.15 54.01, 51.16 26.8, 74.35 -0.38 M7.14 82.66 C36.14 50.13, 62.56 19.05, 79.89 0.34 M6.76 83.74 C21.88 66.25, 36.82 48.69, 79.08 -0.04 M13.46 80.99 C32.02 61.53, 46.86 45.69, 85.1 -2.2 M12.74 82.97 C29.03 64.82, 46.08 44.48, 84.78 0.64 M19.11 83.7 C43.25 54.99, 67.74 24.41, 88.05 1.8 M17.84 82.85 C43.29 54.13, 67.01 26.09, 90.41 -0.02 M22.83 84.63 C43.6 59.82, 68.6 32.13, 93.33 2.67 M23.82 81.74 C48.82 53.37, 75.59 23.06, 93.7 1.15 M27.65 81.3 C49.79 56.17, 74.28 29.47, 92.16 10.01 M28.49 82.11 C44.53 63.29, 62.5 44.08, 93.23 7.51 M34.82 82.19 C53.39 61.4, 73.64 38.14, 91.5 16.25 M33.54 82.83 C51.27 61.8, 69.02 41.63, 93.63 15.06 M39.15 82.16 C58.12 63.28, 76.02 42.33, 92.84 21.33 M40.07 83.5 C59.69 59.46, 81.06 35.39, 94.45 20.14 M42.88 81.81 C57.86 69.84, 67.66 55.5, 94.16 28.59 M44.48 82.73 C54.26 71.73, 64.48 60.05, 94.12 26.18 M51.08 82.87 C65.71 63.5, 81.69 43.89, 95.12 32.83 M49.91 82.52 C63.94 68.01, 76.56 51.49, 93.27 32.76 M53.5 83.57 C68.31 69.09, 77.17 56.06, 92.45 39.74 M56.19 82.48 C67.62 68.09, 80.24 54.6, 94.15 37.95 M59.97 82 C74.48 68.36, 83.98 56.94, 93.15 46.01 M61.29 82.23 C72.53 68.76, 84.89 54.18, 93.93 45.31 M66.25 83.49 C72.9 76.65, 77.91 65.25, 93.19 50.94 M65.21 81.64 C75.78 71.47, 87.1 59.03, 93.38 50.55 M69.41 84.02 C81.02 73.87, 85.85 64.25, 92.11 56.09 M71.47 83.2 C76.99 74.92, 84.67 66.48, 93.63 58 M77.73 81.53 C82.27 73.63, 88.51 68.38, 94.29 61.36 M77.02 82.3 C81.46 77.37, 86.24 71.39, 93.41 63.73 M82.01 83.31 C83.98 79.97, 86.98 74.61, 92.41 68.53 M81.68 83.48 C85.15 78.76, 90.37 74.04, 92.62 69.78 M86.55 82.08 C88.62 80.54, 89.42 80.03, 92.69 76.23 M87.65 82.76 C88.82 80.48, 90.58 79.2, 93.17 75.61 M-0.06 80.86 C-0.06 80.86, -0.06 80.86, -0.06 80.86 M-0.06 80.86 C-0.06 80.86, -0.06 80.86, -0.06 80.86 M5.86 81.52 C5.02 79.06, 3.06 78.71, -0.29 75.58 M6.31 81.38 C4.22 79.44, 1.71 76.91, 0.35 75.63 M11.95 79.58 C8.78 78.69, 2.99 75.06, -0.41 70.95 M12.02 80.39 C8.31 78.56, 6.07 75.47, 0.26 69.56 M16.64 81.52 C11.43 75.98, 5.49 69.4, -1.09 66.98 M18.53 80.7 C11.78 76.72, 6.26 71.17, -0.03 65.21 M22.15 80.42 C18.29 75.37, 12.77 70.38, -0.61 58.92 M24.81 80.62 C18.07 76.6, 12.41 69.85, -0.57 58.77 M31.98 82.23 C22.63 72.19, 13.67 63.9, 1.58 54.13 M31.25 80.8 C21.98 74.35, 16.01 67.85, 0.41 53.97 M37.55 80.6 C25.61 69.87, 11.29 62, -1.15 50.94 M36.97 80.7 C28.96 72.97, 19.33 64.85, 0.75 49.6 M41.11 79.91 C29.07 71.71, 17.81 60.01, 0.07 45.43 M42.76 80.83 C32.51 73.69, 25.35 66.48, 1.19 44.94 M50.6 82.63 C37.83 69.92, 24.39 60.64, 0.13 39.53 M48.07 81 C33.66 67.71, 18.15 55.89, 0 38.78 M55.03 82.12 C42.21 67.22, 23.59 55.53, -1.35 31.69 M54.38 80.07 C40.48 70.1, 27.88 57.28, -0.27 33.03 M59.09 81.22 C40.25 63.4, 18.11 45.98, -1.46 28.96 M59.92 81.47 C37.1 60.41, 12.72 40.37, -0.17 27.75 M66.55 81.06 C45.62 65.26, 26.88 45.24, 0.67 21.65 M67.12 80.98 C47.51 65.41, 26.92 47.38, -0.59 22.71 M71.1 80.36 C45.17 55.25, 13.38 31.8, -1.55 15.44 M73.52 80.95 C57.88 68.73, 41.21 53.81, -0.15 16.47 M79.28 82.84 C57.65 64.49, 36.87 44.95, 0.52 13.99 M78.73 80.6 C55.17 59.9, 30.98 37.55, -0.42 11.94 M86.55 82.62 C59.46 56.47, 32.48 36.62, 1.31 7.09 M86.61 80.43 C63.24 60.97, 40.38 41.06, 0.66 5.45 M92.17 79.54 C68.76 61.44, 47.97 43.12, -0.31 1.3 M92.18 80.46 C60.59 52.5, 28.93 26.56, -0.43 2.26 M91.34 76.65 C66.87 53.85, 43.5 30.37, 3.86 -2.01 M91.82 74.61 C56.81 46.3, 24.28 18.9, 2.07 -2.33 M92.39 71.98 C67.58 48.82, 41.6 24.87, 6.99 -2.63 M90.56 69.46 C71.04 52.9, 49.93 33.58, 8.97 -2.09 M89.03 66.22 C71.71 47.49, 57 35.7, 13.22 -1.3 M90.35 64.85 C66.71 43.58, 42.39 21.55, 14.16 -2.73 M92.31 57.93 C69.09 38.15, 41.69 16.95, 21.48 -1.26 M92.1 60.04 C63.83 35.94, 36.38 10.65, 20.5 -2.45 M89.22 55.66 C70.34 35.37, 46.92 15.87, 24.21 -3.36 M90.35 54.72 C75.71 41.54, 60.93 28.45, 26.61 -2.19 M89.32 48.6 C81.77 37.12, 69.35 26.26, 34.06 -3.45 M91.93 48.66 C71.34 32.03, 52.44 13.75, 31.63 -2.02 M91.34 42.65 C76.38 28.18, 59.32 16.4, 39.24 -3.62 M90.68 42.69 C79.66 34.1, 69.35 24.72, 38.63 -1.44 M89.85 39.12 C74.47 23.84, 54.68 7.11, 46.42 -0.82 M92.13 38.32 C74.76 23.71, 58.84 11.17, 43.55 -3.13 M89.84 30.79 C78.02 22.59, 65.03 11.71, 51.58 -3.57 M90.16 32.77 C79.52 21.85, 69.09 12.21, 50.15 -2.63 M89.39 28.58 C79.9 18, 71.03 7.3, 55.36 -3.09 M91.75 28.55 C82.16 19.24, 71.86 10.5, 57.42 -2.63 M90.25 21.64 C83.39 15.03, 75.38 10.02, 61.77 -2.78 M91.59 22.52 C84.08 16.41, 75.71 8.95, 62.32 -1.42 M92.51 15.99 C84.64 11.74, 79.83 7, 69.47 -1.36 M90.82 17.42 C83.84 11.47, 78.37 5.7, 69.14 -1.15 M89.16 10.68 C86.41 7.65, 82.99 2.24, 74.69 -1.55 M91.71 11 C86.65 7.29, 82.7 4.21, 74.51 -1.59 M92.23 7.66 C87.8 3.41, 86.38 2.16, 81.85 -2.53 M90.62 5.84 C88.72 4.26, 86.74 3.01, 81.96 -1.89 M91.34 1.01 C89.7 -0.43, 88.37 -1.65, 87.36 -3.02 M91.65 1.46 C90.22 0.5, 89.42 -0.42, 87 -2.46" stroke="#868e96" stroke-width="0.5" fill="none"></path><path d="M1.95 -1.32 C26.37 1.23, 49.69 0.86, 91.36 -0.48 M-0.37 -0.2 C36 0.91, 69.18 -0.61, 91.12 -0.01 M91.33 1.35 C89.44 20.8, 92.53 43.24, 89 79.27 M90.76 -0.58 C90.74 30.16, 90.83 60.88, 90.96 81.34 M90.44 81.74 C70.42 80.69, 50.29 81.9, -1.61 82.25 M91.84 80.88 C67.84 81.71, 46.65 80.23, 0.72 80.66 M-0.44 82.86 C2.19 60.38, 1.35 42.12, -1.37 0.38 M0.13 80.78 C0.79 61.34, 0.22 42.79, -0.17 -0.51" stroke="#000000" stroke-width="1" fill="none"></path></g><g transform="translate(31.454545454545496 34.636363636363626) rotate(0 24 12.5)"><text x="0" y="18" font-family="Virgil, Segoe UI Emoji" font-size="20px" fill="#000000" text-anchor="start" style="white-space: pre;" direction="ltr">True</text></g><g stroke-linecap="round" transform="translate(115.45454545454538 10) rotate(0 45.45454545454544 40.45454545454547)"><path d="M1.46 -1.58 C30.82 1.06, 59.15 1.09, 91.64 1.4 M0.27 -0.22 C35.63 -0.01, 73.28 -1.47, 90.54 -0.36 M90.22 1.5 C89.29 23.44, 88.97 43.44, 89.68 79.61 M91.39 0.63 C90.9 16.35, 90.15 32.43, 91.13 81.74 M91.86 82.82 C62.75 82.18, 30.91 80.87, 1.11 82.52 M91.49 80.52 C56.41 80.14, 20.68 79.96, 0.57 79.94 M0.88 80.88 C0.58 55.63, -1.79 27.1, -0.65 -1.73 M0.65 81.65 C-0.87 47.94, -0.24 15.53, 0.87 0.18" stroke="#000000" stroke-width="1" fill="none"></path></g><g transform="translate(136.90909090909088 33.72727272727272) rotate(0 26.5 12.5)"><text x="0" y="18" font-family="Virgil, Segoe UI Emoji" font-size="20px" fill="#000000" text-anchor="start" style="white-space: pre;" direction="ltr">False</text></g></svg>