<svg version="1.1" xmlns="http://www.w3.org/2000/svg" viewBox="0 0 582 774" width="582" height="774">
  <!-- svg-source:excalidraw -->
  
  <defs>
    <style>
      @font-face {
        font-family: "Virgil";
        src: url("https://excalidraw.com/Virgil.woff2");
      }
      @font-face {
        font-family: "Cascadia";
        src: url("https://excalidraw.com/Cascadia.woff2");
      }
    </style>
  </defs>
  <rect x="0" y="0" width="582" height="774" fill="#ffffff"></rect><g stroke-linecap="round" transform="translate(10 41) rotate(0 151.5 109)"><path d="M-0.5 0.7 C96.93 -0.46, 191.66 -0.64, 303.69 1.4 M0.52 0.23 C94.41 -1.38, 187.57 -0.6, 303.22 0.26 M302.53 -1.22 C301.36 64.13, 303.22 130.28, 301.32 218.44 M302.21 -0.13 C301.07 85.28, 300.82 169.95, 302.83 218.82 M304.38 218.37 C207.92 218.77, 116.2 218.31, -0.29 216.83 M302.81 217.35 C195.15 217.12, 85.98 217.92, -0.07 217.79 M1.7 217.05 C0.07 137.2, 1.37 54.86, 1.34 1.4 M0.39 218.8 C-1.31 146.63, -1.09 76.39, -0.15 0.72" stroke="#000000" stroke-width="1" fill="none"></path></g><g transform="translate(10.5 10) rotate(0 91.5 12.5)"><text x="0" y="18" font-family="Virgil, Segoe UI Emoji" font-size="20px" fill="#000000" text-anchor="start" style="white-space: pre;" direction="ltr">Global Environment</text></g><g stroke-linecap="round" transform="translate(30 106) rotate(0 121.5 61.5)"><path d="M0.67 -1.52 C52.65 -1.46, 108.21 -2.47, 243.81 1.19 M-0.77 0.43 C78.83 -1.4, 157.52 -1.37, 242.88 0.68 M242.64 1.06 C241.36 38.67, 241.36 76.52, 241.58 124.11 M243.32 -0.69 C242.53 42.04, 243.43 85.3, 242.26 122.8 M243.81 123.53 C166.22 123.69, 87.81 121.65, -0.78 121.54 M243.14 123.16 C189.25 121.56, 133.37 123.1, 0.39 123.38 M0.42 123.83 C-1.84 90.69, -0.38 57.54, -1.33 -1.4 M0.27 123.1 C-0.46 89.82, 0.56 56.41, 0.58 -0.93" stroke="#c92a2a" stroke-width="1" fill="none"></path></g><g transform="translate(31 79) rotate(0 34.5 12.5)"><text x="0" y="18" font-family="Virgil, Segoe UI Emoji" font-size="20px" fill="#c92a2a" text-anchor="start" style="white-space: pre;" direction="ltr">myfun()</text></g><g transform="translate(45 120) rotate(0 110.5 50)"><text x="0" y="18" font-family="Virgil, Segoe UI Emoji" font-size="20px" fill="#c92a2a" text-anchor="start" style="white-space: pre;" direction="ltr">if (aa does not exist)</text><text x="0" y="43" font-family="Virgil, Segoe UI Emoji" font-size="20px" fill="#c92a2a" text-anchor="start" style="white-space: pre;" direction="ltr">    aa = 1</text><text x="0" y="68" font-family="Virgil, Segoe UI Emoji" font-size="20px" fill="#c92a2a" text-anchor="start" style="white-space: pre;" direction="ltr">else</text><text x="0" y="93" font-family="Virgil, Segoe UI Emoji" font-size="20px" fill="#c92a2a" text-anchor="start" style="white-space: pre;" direction="ltr">    aa = aa + 1</text></g><g transform="translate(16 292) rotate(0 34.5 12.5)"><text x="0" y="18" font-family="Virgil, Segoe UI Emoji" font-size="20px" fill="#000000" text-anchor="start" style="white-space: pre;" direction="ltr">myfun()</text></g><g transform="translate(34 525) rotate(0 34.5 12.5)"><text x="0" y="18" font-family="Virgil, Segoe UI Emoji" font-size="20px" fill="#000000" text-anchor="start" style="white-space: pre;" direction="ltr">myfun()</text></g><g stroke-linecap="round" transform="translate(55.5 320) rotate(0 121.5 61.5)"><path d="M0.77 -1.49 C67.33 -1.07, 134.09 -0.46, 241.59 -0.63 M-0.3 0.5 C85.78 -0.89, 171.73 -0.35, 242.39 -0.14 M241.7 0.25 C241.05 30.76, 241.59 62.63, 244.39 122.95 M242.26 0.61 C242.49 45.94, 241.91 89.84, 242.68 122.68 M241.51 121.93 C184.29 123.77, 121.86 122.9, 1.63 123.39 M242.61 122.74 C190.45 124, 137.6 124.67, -0.62 122.9 M-0.61 122.14 C0.79 78.25, -2.8 36.73, 0.63 0.19 M0.92 123.97 C-0.71 92.91, 0.55 63.13, -0.11 0.89" stroke="#862e9c" stroke-width="1" fill="none"></path></g><g transform="translate(70.5 334) rotate(0 110.5 50)"><text x="0" y="18" font-family="Virgil, Segoe UI Emoji" font-size="20px" fill="#862e9c" text-anchor="start" style="white-space: pre;" direction="ltr">if (aa does not exist)</text><text x="0" y="43" font-family="Virgil, Segoe UI Emoji" font-size="20px" fill="#862e9c" text-anchor="start" style="white-space: pre;" direction="ltr">    aa = 1</text><text x="0" y="68" font-family="Virgil, Segoe UI Emoji" font-size="20px" fill="#862e9c" text-anchor="start" style="white-space: pre;" direction="ltr">else</text><text x="0" y="93" font-family="Virgil, Segoe UI Emoji" font-size="20px" fill="#862e9c" text-anchor="start" style="white-space: pre;" direction="ltr">    aa = aa + 1</text></g><g stroke-linecap="round"><g transform="translate(22 366) rotate(0 33.62846303582192 1.8591693951515538)"><path d="M-0.9 0.54 C10.37 1.27, 56.7 3.63, 68.16 3.93 M0.82 -0.22 C11.91 0.22, 56.26 1.71, 67.3 2.3" stroke="#862e9c" stroke-width="1" fill="none"></path></g><g transform="translate(22 366) rotate(0 33.62846303582192 1.8591693951515538)"><path d="M39.61 11.63 C50.04 8.31, 57.18 4.81, 66.91 1.2 M38.17 11.2 C44.57 8.73, 50.62 7.57, 66.93 1.67" stroke="#862e9c" stroke-width="1" fill="none"></path></g><g transform="translate(22 366) rotate(0 33.62846303582192 1.8591693951515538)"><path d="M40.47 -8.87 C50.54 -5.21, 57.38 -1.71, 66.91 1.2 M39.04 -9.3 C45.33 -7.61, 51.21 -4.61, 66.93 1.67" stroke="#862e9c" stroke-width="1" fill="none"></path></g></g><g stroke-linecap="round"><g transform="translate(188 367) rotate(0 47.880552749913505 65.37960433821661)"><path d="M-0.56 0.93 C13.06 3.26, 65.99 -7.54, 82.13 14.27 C98.28 36.08, 93.76 112.15, 96.32 131.8 M1.35 0.37 C14.87 2.29, 66.13 -9.29, 81.78 12.29 C97.42 33.88, 92.51 110.23, 95.22 129.88" stroke="#862e9c" stroke-width="1" fill="none"></path></g><g transform="translate(188 367) rotate(0 47.880552749913505 65.37960433821661)"><path d="M85.44 103.99 C88.2 110.38, 92.88 121.65, 97.15 128.24 M83.77 102.2 C86.3 108.4, 89.19 114.19, 95.59 130.48" stroke="#862e9c" stroke-width="1" fill="none"></path></g><g transform="translate(188 367) rotate(0 47.880552749913505 65.37960433821661)"><path d="M105.94 103.21 C101.84 109.77, 99.65 121.29, 97.15 128.24 M104.28 101.42 C102.13 107.71, 100.35 113.68, 95.59 130.48" stroke="#862e9c" stroke-width="1" fill="none"></path></g></g><g transform="translate(259 499) rotate(0 32.5 12.5)"><text x="0" y="18" font-family="Virgil, Segoe UI Emoji" font-size="20px" fill="#862e9c" text-anchor="start" style="white-space: pre;" direction="ltr">aa = 1</text></g><g stroke-linecap="round" transform="translate(49.50000000000003 560) rotate(0 121.49999999999999 61.5)"><path d="M1.46 0.81 C91.65 1.97, 182.59 2.01, 241.76 -1.24 M-0.05 -0.36 C63.98 0.53, 129.39 1.11, 242.7 0.35 M242.13 -1.55 C244.44 43.5, 244.94 83.75, 244.69 124.28 M242.08 0.33 C243.54 31.7, 244.61 64.21, 242.72 123.68 M243.77 122.29 C170.48 121.26, 99.41 122.35, 1.43 123.42 M242.98 123.55 C154.94 122.49, 65.52 122.56, -0.43 122.27 M1.54 123.69 C2.44 95.1, 0.81 65.38, -1.37 -1.33 M-0.36 122.93 C0.27 92.46, 0.2 62.99, 0.89 0.93" stroke="#5c940d" stroke-width="1" fill="none"></path></g><g transform="translate(64.50000000000003 574) rotate(0 110.49999999999999 50)"><text x="0" y="18" font-family="Virgil, Segoe UI Emoji" font-size="20px" fill="#5c940d" text-anchor="start" style="white-space: pre;" direction="ltr">if (aa does not exist)</text><text x="0" y="43" font-family="Virgil, Segoe UI Emoji" font-size="20px" fill="#5c940d" text-anchor="start" style="white-space: pre;" direction="ltr">    aa = 1</text><text x="0" y="68" font-family="Virgil, Segoe UI Emoji" font-size="20px" fill="#5c940d" text-anchor="start" style="white-space: pre;" direction="ltr">else</text><text x="0" y="93" font-family="Virgil, Segoe UI Emoji" font-size="20px" fill="#5c940d" text-anchor="start" style="white-space: pre;" direction="ltr">    aa = aa + 1</text></g><g stroke-linecap="round"><g transform="translate(16.00000000000003 606) rotate(0 33.84722411979456 1.5154866029648133)"><path d="M0.59 0.45 C12.13 0.84, 56.97 3.11, 68.25 3.39 M-0.56 -0.36 C10.92 0.18, 56.07 0.92, 67.44 1.47" stroke="#5c940d" stroke-width="1" fill="none"></path></g><g transform="translate(16.00000000000003 606) rotate(0 33.84722411979456 1.5154866029648133)"><path d="M39.7 11.29 C45.77 9.14, 49.89 5.1, 66.74 -0.07 M38.4 10.19 C46.59 8.7, 52.61 6.78, 67.88 1.68" stroke="#5c940d" stroke-width="1" fill="none"></path></g><g transform="translate(16.00000000000003 606) rotate(0 33.84722411979456 1.5154866029648133)"><path d="M40.33 -9.23 C46.44 -6.86, 50.43 -6.39, 66.74 -0.07 M39.03 -10.33 C47.05 -6.77, 52.91 -3.64, 67.88 1.68" stroke="#5c940d" stroke-width="1" fill="none"></path></g></g><g stroke-linecap="round"><g transform="translate(182 607) rotate(0 48.85929842538229 64.62542847021484)"><path d="M0.45 0.25 C13.84 2.54, 65.45 -7.35, 81.39 14.29 C97.32 35.93, 93.54 110.81, 96.07 130.11 M-0.77 -0.66 C12.4 1.19, 64.1 -9.62, 80.64 12.32 C97.19 34.25, 95.83 111.22, 98.49 130.95" stroke="#5c940d" stroke-width="1" fill="none"></path></g><g transform="translate(182 607) rotate(0 48.85929842538229 64.62542847021484)"><path d="M86.9 104.11 C91.76 112.59, 94.45 124.06, 96.95 129.87 M85.8 104.09 C89.91 111.24, 93.84 120.12, 98.7 130.23" stroke="#5c940d" stroke-width="1" fill="none"></path></g><g transform="translate(182 607) rotate(0 48.85929842538229 64.62542847021484)"><path d="M107.38 102.82 C104.29 111.88, 99.03 123.85, 96.95 129.87 M106.28 102.8 C104.37 110.22, 102.27 119.48, 98.7 130.23" stroke="#5c940d" stroke-width="1" fill="none"></path></g></g><g transform="translate(253 739) rotate(0 32.5 12.5)"><text x="0" y="18" font-family="Virgil, Segoe UI Emoji" font-size="20px" fill="#5c940d" text-anchor="start" style="white-space: pre;" direction="ltr">aa = 1</text></g><g transform="translate(335 322) rotate(0 118.5 25)"><text x="0" y="18" font-family="Virgil, Segoe UI Emoji" font-size="20px" fill="#000000" text-anchor="start" style="white-space: pre;" direction="ltr">New copy of the myfun()</text><text x="0" y="43" font-family="Virgil, Segoe UI Emoji" font-size="20px" fill="#000000" text-anchor="start" style="white-space: pre;" direction="ltr">environment is created</text></g><g transform="translate(335 563) rotate(0 118.5 25)"><text x="0" y="18" font-family="Virgil, Segoe UI Emoji" font-size="20px" fill="#000000" text-anchor="start" style="white-space: pre;" direction="ltr">New copy of the myfun()</text><text x="0" y="43" font-family="Virgil, Segoe UI Emoji" font-size="20px" fill="#000000" text-anchor="start" style="white-space: pre;" direction="ltr">environment is created</text></g></svg>