<svg version="1.1" xmlns="http://www.w3.org/2000/svg" viewBox="0 0 594 280" width="594" height="280">
  <!-- svg-source:excalidraw -->
  
  <defs>
    <style>
      @font-face {
        font-family: "Virgil";
        src: url("https://excalidraw.com/Virgil.woff2");
      }
      @font-face {
        font-family: "Cascadia";
        src: url("https://excalidraw.com/Cascadia.woff2");
      }
    </style>
  </defs>
  <rect x="0" y="0" width="594" height="280" fill="#ffffff"></rect><g stroke-linecap="round" transform="translate(11 41) rotate(0 286.5 64)"><path d="M-0.28 0.39 C182.16 -0.9, 363.11 -0.99, 573.38 0.77 M0.28 0.12 C177.91 -1.36, 355.14 -0.93, 573.12 0.14 M572.46 -1.41 C571.5 36.8, 573.64 75.91, 571.07 128.5 M572.09 -0.15 C571.61 50.22, 571.32 99.73, 572.81 128.94 M573.76 128.21 C394.58 128.52, 218.01 128.27, -0.16 127.36 M572.9 127.64 C368.16 127.2, 162.59 127.64, -0.04 127.89 M1.95 126.91 C-0.63 81.16, 0.86 32.55, 1.55 1.6 M0.45 128.91 C-1.12 85.8, -0.87 44.91, -0.17 0.83" stroke="#000000" stroke-width="1" fill="none"></path></g><g transform="translate(11.5 10) rotate(0 91.5 12.5)"><text x="0" y="18" font-family="Virgil, Segoe UI Emoji" font-size="20px" fill="#000000" text-anchor="start" style="white-space: pre;" direction="ltr">Global Environment</text></g><g stroke-linecap="round" transform="translate(31 106) rotate(0 54 24.5)"><path d="M0.81 -1.83 C22.49 -0.89, 48.49 -2.11, 108.98 1.44 M-0.92 0.52 C35 -0.37, 69.82 -0.34, 107.85 0.82 M107.64 1.06 C106.62 15.61, 106.62 30.41, 106.58 50.11 M108.32 -0.69 C107.47 16.17, 108.38 33.56, 107.26 48.8 M108.98 49.63 C74.93 50.47, 39.91 48, -0.94 47.24 M108.17 49.19 C84.64 47.68, 58.71 49.54, 0.47 49.46 M0.42 49.83 C-1.93 36.69, -0.48 23.52, -1.33 -1.4 M0.27 49.1 C-0.5 35.89, 0.51 22.54, 0.58 -0.93" stroke="#c92a2a" stroke-width="1" fill="none"></path></g><g transform="translate(32 79) rotate(0 34.5 12.5)"><text x="0" y="18" font-family="Virgil, Segoe UI Emoji" font-size="20px" fill="#c92a2a" text-anchor="start" style="white-space: pre;" direction="ltr">myfun()</text></g><g transform="translate(46 120) rotate(0 37.5 12.5)"><text x="0" y="18" font-family="Virgil, Segoe UI Emoji" font-size="20px" fill="#c92a2a" text-anchor="start" style="white-space: pre;" direction="ltr">a = 20</text></g><g transform="translate(31 47) rotate(0 33 12.5)"><text x="0" y="18" font-family="Virgil, Segoe UI Emoji" font-size="20px" fill="#000000" text-anchor="start" style="white-space: pre;" direction="ltr">a = 10</text></g><g transform="translate(10 241) rotate(0 34.5 12.5)"><text x="0" y="18" font-family="Virgil, Segoe UI Emoji" font-size="20px" fill="#000000" text-anchor="start" style="white-space: pre;" direction="ltr">myfun()</text></g><g stroke-linecap="round"><g transform="translate(50 242) rotate(0 6.574315696954727 -47.402551678088486)"><path d="M-0.96 0.35 C1.57 -15.28, 11.71 -77.78, 14.11 -93.37 M0.74 -0.5 C3.3 -16.54, 11.71 -79.39, 13.74 -95.16" stroke="#000000" stroke-width="1" fill="none"></path></g><g transform="translate(50 242) rotate(0 6.574315696954727 -47.402551678088486)"><path d="M20.81 -64.02 C19.79 -71.39, 18.68 -78.49, 15.21 -93.66 M20.19 -66.67 C17.18 -75.88, 15.95 -87.69, 13.92 -94.39" stroke="#000000" stroke-width="1" fill="none"></path></g><g transform="translate(50 242) rotate(0 6.574315696954727 -47.402551678088486)"><path d="M0.47 -66.71 C3.76 -73.34, 6.97 -79.88, 15.21 -93.66 M-0.16 -69.36 C4.4 -77.58, 10.76 -88.39, 13.92 -94.39" stroke="#000000" stroke-width="1" fill="none"></path></g></g><g stroke-linecap="round"><g transform="translate(101 149) rotate(0 15.884558120369903 41.30229155192619)"><path d="M-0.61 0.74 C4.61 14.28, 26.88 68, 32.38 81.6 M1.27 0.08 C6.21 13.7, 26.24 68.64, 31.26 82.53" stroke="#000000" stroke-width="1" fill="none"></path></g><g transform="translate(101 149) rotate(0 15.884558120369903 41.30229155192619)"><path d="M13.22 59.02 C17.63 68.07, 26.36 76.61, 30.96 83.75 M12.94 59.72 C19.3 68.78, 27.62 77.49, 32.04 81.84" stroke="#000000" stroke-width="1" fill="none"></path></g><g transform="translate(101 149) rotate(0 15.884558120369903 41.30229155192619)"><path d="M32.51 52.01 C29.42 63.69, 30.63 74.97, 30.96 83.75 M32.23 52.71 C31.08 64.52, 31.92 75.96, 32.04 81.84" stroke="#000000" stroke-width="1" fill="none"></path></g></g><g transform="translate(127 245) rotate(0 37.5 12.5)"><text x="0" y="18" font-family="Virgil, Segoe UI Emoji" font-size="20px" fill="#000000" text-anchor="start" style="white-space: pre;" direction="ltr">a = 20</text></g></svg>