<svg version="1.1" xmlns="http://www.w3.org/2000/svg" viewBox="0 0 534.397042344904 532" width="534.397042344904" height="532">
  <!-- svg-source:excalidraw -->
  
  <defs>
    <style>
      @font-face {
        font-family: "Virgil";
        src: url("https://excalidraw.com/Virgil.woff2");
      }
      @font-face {
        font-family: "Cascadia";
        src: url("https://excalidraw.com/Cascadia.woff2");
      }
    </style>
  </defs>
  <rect x="0" y="0" width="534.397042344904" height="532" fill="#ffffff"></rect><g stroke-linecap="round" transform="translate(37.39704234490395 41) rotate(0 92.5 70)"><path d="M-0.69 0.97 C59.84 0.07, 116.64 -0.17, 185.95 1.93 M0.71 0.31 C58 -1.24, 114.28 -0.17, 185.31 0.36 M184.46 -1.41 C183.45 40.42, 185.59 83.14, 183.07 140.5 M184.09 -0.15 C183.5 54.9, 183.21 109.09, 184.81 140.94 M186.89 140.51 C126.16 140.95, 71.93 140.32, -0.39 138.39 M184.74 139.11 C119.66 139.14, 52.51 140.24, -0.09 139.71 M1.95 138.91 C-0.54 88.65, 0.95 35.54, 1.55 1.6 M0.45 140.91 C-1.17 93.9, -0.92 49.11, -0.17 0.83" stroke="#000000" stroke-width="1" fill="none"></path></g><g transform="translate(37.89704234490395 10) rotate(0 91.5 12.5)"><text x="0" y="18" font-family="Virgil, Segoe UI Emoji" font-size="20px" fill="#000000" text-anchor="start" style="white-space: pre;" direction="ltr">Global Environment</text></g><g stroke-linecap="round" transform="translate(57.39704234490395 104) rotate(0 48.5 25)"><path d="M0.81 -1.83 C20.06 -0.81, 43.62 -2.04, 97.98 1.44 M-0.92 0.52 C31.43 -0.26, 62.68 -0.23, 96.85 0.82 M96.64 1.06 C95.62 15.92, 95.62 31.03, 95.58 51.11 M97.32 -0.69 C96.47 16.52, 97.38 34.26, 96.26 49.8 M97.98 50.63 C67.47 51.52, 35.99 49.05, -0.94 48.24 M97.17 50.19 C76.11 48.72, 52.64 50.58, 0.47 50.46 M0.42 50.83 C-1.93 37.42, -0.48 23.98, -1.33 -1.4 M0.27 50.1 C-0.5 36.61, 0.51 22.99, 0.58 -0.93" stroke="#c92a2a" stroke-width="1" fill="none"></path></g><g transform="translate(58.39704234490395 77) rotate(0 34.5 12.5)"><text x="0" y="18" font-family="Virgil, Segoe UI Emoji" font-size="20px" fill="#c92a2a" text-anchor="start" style="white-space: pre;" direction="ltr">myfun()</text></g><g transform="translate(72.39704234490395 118) rotate(0 25 12.5)"><text x="0" y="18" font-family="Virgil, Segoe UI Emoji" font-size="20px" fill="#c92a2a" text-anchor="start" style="white-space: pre;" direction="ltr">x + 1</text></g><g stroke-linecap="round" transform="translate(42.89704234490395 253.5) rotate(0 92 115.5)"><path d="M0.03 1.88 C47.15 1.53, 92.77 1.31, 183.1 1.84 M0.51 0.99 C60.4 -0.64, 120.59 0.34, 184.23 -0.96 M182.92 1.37 C185.7 69.53, 184.7 137.65, 184.83 231.13 M184.47 0.76 C185 54.16, 185.1 107.83, 183.97 230.46 M183.16 231.9 C143.54 230.01, 104.71 227.82, 1.23 230 M183.64 230.27 C133.87 232.91, 84.81 231.25, 0.57 231.9 M1.63 230.27 C-1.58 162.25, -2.29 93.5, -1.58 -1.17 M-0.28 231.49 C2.59 182.78, 2.05 134.43, 0.72 -0.05" stroke="#000000" stroke-width="1" fill="none"></path></g><g transform="translate(44.39704234490395 223.5) rotate(0 91.5 12.5)"><text x="0" y="18" font-family="Virgil, Segoe UI Emoji" font-size="20px" fill="#000000" text-anchor="start" style="white-space: pre;" direction="ltr">Global Environment</text></g><g stroke-linecap="round" transform="translate(64.89704234490395 356.5) rotate(0 48.5 25)"><path d="M0.61 0.03 C20.88 -1.1, 41.46 0.92, 97.55 1.31 M0.18 -0.03 C32.45 -0.02, 64.81 -1.92, 96.97 0.34 M98.23 1.11 C96.74 11.93, 97.66 22.85, 95.69 51.55 M96.38 0.04 C96.78 13.96, 97.25 28.3, 96.13 49.22 M95.81 50.58 C75.41 48.82, 56.56 49.44, -0.59 49.68 M96.64 50.66 C61.68 48.3, 26.24 50.19, -0.06 50.88 M0.18 49.09 C-1.14 36.31, -2.34 24.88, -1.79 -1.78 M0.99 50.42 C0.52 38.02, 1.02 24.61, -0.14 -0.78" stroke="#862e9c" stroke-width="1" fill="none"></path></g><g transform="translate(65.89704234490395 329.5) rotate(0 34.5 12.5)"><text x="0" y="18" font-family="Virgil, Segoe UI Emoji" font-size="20px" fill="#862e9c" text-anchor="start" style="white-space: pre;" direction="ltr">myfun()</text></g><g transform="translate(79.89704234490395 370.5) rotate(0 25 12.5)"><text x="0" y="18" font-family="Virgil, Segoe UI Emoji" font-size="20px" fill="#862e9c" text-anchor="start" style="white-space: pre;" direction="ltr">x + 1</text></g><g transform="translate(66.39704234490395 275) rotate(0 31.5 12.5)"><text x="0" y="18" font-family="Virgil, Segoe UI Emoji" font-size="20px" fill="#000000" text-anchor="start" style="white-space: pre;" direction="ltr">x = 14</text></g><g stroke-linecap="round"><g transform="translate(120.39704234490395 396) rotate(0 47.113489973442924 -49.66452563376424)"><path d="M0.99 0.5 C14.46 -0.44, 65.85 9.3, 80.19 -4.98 C94.52 -19.26, 97.67 -68.99, 87.02 -85.19 C76.37 -101.39, 27.97 -99.51, 16.29 -102.18 M0.06 -0.28 C13.96 -1.59, 68.02 7.91, 82.47 -6.56 C96.93 -21.03, 97.75 -71.25, 86.79 -87.11 C75.83 -102.96, 28.5 -99.39, 16.69 -101.69" stroke="#862e9c" stroke-width="1" fill="none"></path></g><g transform="translate(120.39704234490395 396) rotate(0 47.113489973442924 -49.66452563376424)"><path d="M46.32 -111.49 C40.05 -106.08, 32.51 -105.19, 14.73 -100.12 M45.19 -110.71 C37.8 -107.09, 29.25 -105.43, 17.02 -100.97" stroke="#862e9c" stroke-width="1" fill="none"></path></g><g transform="translate(120.39704234490395 396) rotate(0 47.113489973442924 -49.66452563376424)"><path d="M45 -91.01 C38.95 -90.73, 31.75 -94.94, 14.73 -100.12 M43.88 -90.23 C36.92 -92.37, 28.73 -96.45, 17.02 -100.97" stroke="#862e9c" stroke-width="1" fill="none"></path></g></g><g transform="translate(69.39704234490395 437) rotate(0 31 12.5)"><text x="0" y="18" font-family="Virgil, Segoe UI Emoji" font-size="20px" fill="#000000" text-anchor="start" style="white-space: pre;" direction="ltr">x = 15</text></g><g stroke-linecap="round"><g transform="translate(52.39704234490395 290) rotate(0 -17.2784289589582 85.64618215821645)"><path d="M-0.68 0.79 C-6.71 1.16, -29.62 -7.4, -36.2 1.22 C-42.79 9.85, -39.84 25.25, -40.18 52.55 C-40.53 79.85, -46.02 145.31, -38.3 165.01 C-30.58 184.72, -1.58 169.83, 6.12 170.8 M1.17 0.16 C-5.05 0.24, -30.75 -9.7, -37.26 -0.78 C-43.77 8.13, -37.75 25.9, -37.91 53.63 C-38.07 81.36, -45.83 146.03, -38.21 165.6 C-30.58 185.17, 0.46 170.39, 7.84 171.08" stroke="#000000" stroke-width="1" fill="none"></path></g><g transform="translate(52.39704234490395 290) rotate(0 -17.2784289589582 85.64618215821645)"><path d="M-10.31 182.28 C-5.3 177.28, -0.55 175.28, 6.2 169.61 M-10.88 182.01 C-5.26 180.14, -1.36 175.28, 7.71 170.16" stroke="#000000" stroke-width="1" fill="none"></path></g><g transform="translate(52.39704234490395 290) rotate(0 -17.2784289589582 85.64618215821645)"><path d="M-13.18 167.07 C-7.43 166.67, -1.82 169.25, 6.2 169.61 M-13.74 166.79 C-7.2 169.23, -2.5 168.68, 7.71 170.16" stroke="#000000" stroke-width="1" fill="none"></path></g></g><g stroke-linecap="round" transform="translate(309.897042344904 252.5) rotate(0 92 115.5)"><path d="M0.53 1.98 C43.34 -0.23, 87.4 -1.91, 184.25 1.9 M0.76 0.23 C37.98 0.99, 76.83 2.23, 184.61 -0.06 M185.3 -0.06 C182.72 55.28, 184.06 111.37, 183.31 231.54 M184.08 0.46 C184.04 77.78, 184.12 153.86, 184.11 231.12 M185.38 232.16 C118.01 229.42, 52.88 231.08, -1.81 231.05 M184.2 230.8 C135.8 231.96, 85.74 233.36, -0.97 231 M1.46 229.54 C0.97 181.51, 0.71 131.7, -0.19 1.16 M0.35 230.31 C1.52 173.6, 0.91 116.52, 0.4 0.1" stroke="#000000" stroke-width="1" fill="none"></path></g><g transform="translate(311.397042344904 222.5) rotate(0 91.5 12.5)"><text x="0" y="18" font-family="Virgil, Segoe UI Emoji" font-size="20px" fill="#000000" text-anchor="start" style="white-space: pre;" direction="ltr">Global Environment</text></g><g stroke-linecap="round" transform="translate(331.897042344904 355.5) rotate(0 48.5 25)"><path d="M0.08 0.95 C36.18 -1.69, 70.88 0.94, 95.18 0.72 M-0.51 -0.66 C20.26 0.36, 41.41 -0.29, 96.44 -0.35 M96.31 -1.36 C98.28 15.86, 96.57 35.89, 97.66 49.71 M97.38 0.97 C97.52 10.94, 97.18 22.16, 97.53 50.12 M95.94 48.76 C68.44 50.98, 40.59 50.62, -0.68 50.47 M97.73 49.37 C59.16 50.59, 21.14 49.81, -0.82 50.34 M1.92 51.11 C1.19 38.38, -0.66 24.43, -1.08 -1.54 M0.01 49.35 C-0.9 38.56, 0.27 29.08, 0.18 -0.97" stroke="#5c940d" stroke-width="1" fill="none"></path></g><g transform="translate(332.897042344904 328.5) rotate(0 34.5 12.5)"><text x="0" y="18" font-family="Virgil, Segoe UI Emoji" font-size="20px" fill="#5c940d" text-anchor="start" style="white-space: pre;" direction="ltr">myfun()</text></g><g transform="translate(346.897042344904 369.5) rotate(0 25 12.5)"><text x="0" y="18" font-family="Virgil, Segoe UI Emoji" font-size="20px" fill="#5c940d" text-anchor="start" style="white-space: pre;" direction="ltr">x + 1</text></g><g transform="translate(333.397042344904 274) rotate(0 36.5 12.5)"><text x="0" y="18" font-family="Virgil, Segoe UI Emoji" font-size="20px" fill="#000000" text-anchor="start" style="white-space: pre;" direction="ltr">x = 20</text></g><g stroke-linecap="round"><g transform="translate(387.397042344904 395) rotate(0 46.363860219717026 -48.84136428843928)"><path d="M-0.44 0.15 C13.16 -1.12, 67.66 7.45, 82.14 -7.09 C96.62 -21.63, 95.64 -71.72, 86.43 -87.08 C77.23 -102.43, 37.09 -97.03, 26.91 -99.24 M1.53 -0.82 C15.02 -2.02, 67.73 8.13, 81.79 -6.12 C95.85 -20.38, 94.92 -71.01, 85.89 -86.32 C76.87 -101.63, 37.41 -95.65, 27.64 -97.99" stroke="#5c940d" stroke-width="1" fill="none"></path></g><g transform="translate(387.397042344904 395) rotate(0 46.363860219717026 -48.84136428843928)"><path d="M56.5 -105.12 C44.53 -103.27, 34.61 -99.33, 28.1 -99 M56.85 -107.09 C48.99 -105.1, 43.39 -101.87, 27.6 -98.34" stroke="#5c940d" stroke-width="1" fill="none"></path></g><g transform="translate(387.397042344904 395) rotate(0 46.363860219717026 -48.84136428843928)"><path d="M55.61 -84.62 C43.86 -89.89, 34.25 -93.07, 28.1 -99 M55.97 -86.58 C48.35 -89.39, 42.95 -90.95, 27.6 -98.34" stroke="#5c940d" stroke-width="1" fill="none"></path></g></g><g transform="translate(336.397042344904 436) rotate(0 32 12.5)"><text x="0" y="18" font-family="Virgil, Segoe UI Emoji" font-size="20px" fill="#000000" text-anchor="start" style="white-space: pre;" direction="ltr">x = 21</text></g><g stroke-linecap="round"><g transform="translate(319.397042344904 289.060775523409) rotate(0 -17.53315689215225 86.01558837046142)"><path d="M1.14 -1.09 C-4.72 -1.14, -29.03 -9.19, -35.57 -0.14 C-42.1 8.91, -37.58 25.67, -38.09 53.21 C-38.59 80.76, -46.09 145.4, -38.61 165.14 C-31.12 184.88, -0.89 170.69, 6.83 171.64 M0.28 0.95 C-5.66 1, -29.85 -8.12, -36.29 0.84 C-42.73 9.79, -37.98 27.18, -38.37 54.68 C-38.77 82.17, -45.95 146.21, -38.68 165.83 C-31.41 185.45, -2.15 171.74, 5.27 172.4" stroke="#000000" stroke-width="1" fill="none"></path></g><g transform="translate(319.397042344904 289.060775523409) rotate(0 -17.53315689215225 86.01558837046142)"><path d="M-16.16 184.42 C-10.99 182.06, -3.57 176.55, 3.94 172.12 M-14.9 183.35 C-6.86 180.43, -0.39 175.26, 4.59 172.85" stroke="#000000" stroke-width="1" fill="none"></path></g><g transform="translate(319.397042344904 289.060775523409) rotate(0 -17.53315689215225 86.01558837046142)"><path d="M-18.84 169.17 C-12.94 170.8, -4.81 169.31, 3.94 172.12 M-17.58 168.1 C-8.48 170.65, -1.05 170.95, 4.59 172.85" stroke="#000000" stroke-width="1" fill="none"></path></g></g><g transform="translate(49.39704234490395 497) rotate(0 99 12.5)"><text x="0" y="18" font-family="Virgil, Segoe UI Emoji" font-size="20px" fill="#862e9c" text-anchor="start" style="white-space: pre;" direction="ltr">Calling Environment 1</text></g><g transform="translate(317.397042344904 494) rotate(0 103.5 12.5)"><text x="0" y="18" font-family="Virgil, Segoe UI Emoji" font-size="20px" fill="#5c940d" text-anchor="start" style="white-space: pre;" direction="ltr">Calling Environment 2</text></g></svg>