<svg version="1.1" xmlns="http://www.w3.org/2000/svg" viewBox="0 0 801.8181429776279 467.59088412198116" width="801.8181429776279" height="467.59088412198116">
  <!-- svg-source:excalidraw -->
  
  <defs>
    <style>
      @font-face {
        font-family: "Virgil";
        src: url("https://excalidraw.com/Virgil.woff2");
      }
      @font-face {
        font-family: "Cascadia";
        src: url("https://excalidraw.com/Cascadia.woff2");
      }
    </style>
  </defs>
  <rect x="0" y="0" width="801.8181429776279" height="467.59088412198116" fill="#ffffff"></rect><g transform="translate(12.909102006392061 140.90907703746439) rotate(0 145.00000000000003 29)"><text x="0" y="15.333333333333332" font-family="Cascadia, Segoe UI Emoji" font-size="16px" fill="#1864ab" text-anchor="start" style="white-space: pre;" direction="ltr">goodpup &lt;- function(name) {</text><text x="0" y="34.666666666666664" font-family="Cascadia, Segoe UI Emoji" font-size="16px" fill="#1864ab" text-anchor="start" style="white-space: pre;" direction="ltr">  paste(name, "is a good pup!")</text><text x="0" y="54" font-family="Cascadia, Segoe UI Emoji" font-size="16px" fill="#1864ab" text-anchor="start" style="white-space: pre;" direction="ltr">}</text></g><g transform="translate(16.545437899502872 80.04545731977964) rotate(0 66 9.5)"><text x="0" y="15" font-family="Cascadia, Segoe UI Emoji" font-size="16px" fill="#1864ab" text-anchor="start" style="white-space: pre;" direction="ltr">dog &lt;- "Eddie"</text></g><g stroke-opacity="0.1" fill-opacity="0.1" stroke-linecap="round" transform="translate(385.2727439186789 58.22728937322427) rotate(0 158.545448996804 158.90907287597656)"><path d="M-1.29 -1.69 L317.17 0.2 L317.6 317.4 L-0.09 316.19" stroke="none" stroke-width="0" fill="#228be6"></path><path d="M-0.9 -0.35 C85.7 1.55, 172.61 2.78, 317.21 0.19 M0.11 -0.21 C78.62 -1.48, 156.51 -2.02, 316.46 -0.09 M316.04 0.62 C317.87 114.28, 318.36 228.57, 316.9 318.73 M316.62 0.58 C315.83 102.27, 315.85 202.79, 317.44 318.48 M316.79 318.66 C210.98 316.67, 103.15 315.57, -1.36 318.63 M317.79 318.35 C226.02 319.87, 135.29 319.74, -0.62 318.37 M1.12 316.63 C-0.16 219.18, 1.34 120.86, 0.52 0.81 M0.64 317.89 C1.91 242.6, 1.4 168.27, 0.27 0.48" stroke="#1864ab" stroke-width="2" fill="none"></path></g><g transform="translate(390.3636863014915 10) rotate(0 165.5 20)"><text x="0" y="14" font-family="Virgil, Segoe UI Emoji" font-size="16px" fill="#1864ab" text-anchor="start" style="white-space: pre;" direction="ltr">Global Environment - </text><text x="0" y="34" font-family="Virgil, Segoe UI Emoji" font-size="16px" fill="#1864ab" text-anchor="start" style="white-space: pre;" direction="ltr">variables stored in memory we can access</text></g><g transform="translate(401.27272172407675 75.95457319779825) rotate(0 13.5 10)"><text x="0" y="14" font-family="Virgil, Segoe UI Emoji" font-size="16px" fill="#1864ab" text-anchor="start" style="white-space: pre;" direction="ltr">dog</text></g><g stroke-linecap="round" transform="translate(436.18183482777 70.59091741388488) rotate(0 90.90909090909088 18.18181124600494)"><path d="M0.07 -0.42 C49.45 2.5, 95.75 -0.28, 182.82 1.76 M-0.69 0.74 C47.15 -0.59, 93.18 0.35, 182.4 -0.26 M183.68 -0.28 C183.84 12.31, 180.67 26.75, 181.96 34.82 M181.31 -0.51 C182.04 11.78, 182.21 23.53, 182.4 36.81 M180.9 37.58 C113.59 35.53, 46.72 35.07, 0.25 38.33 M181.55 36.65 C114.78 38.07, 49.01 36.79, -0.7 35.8 M-0.1 34.43 C-1.52 24.45, 0.76 14.13, 1.63 -0.48 M-0.01 36.6 C0.35 27.5, -0.04 19.06, -0.78 -0.39" stroke="#1864ab" stroke-width="2" fill="none"></path></g><g transform="translate(447.09092573686087 81.04546009410501) rotate(0 26.5 10)"><text x="0" y="14" font-family="Virgil, Segoe UI Emoji" font-size="16px" fill="#1864ab" text-anchor="start" style="white-space: pre;" direction="ltr">"Eddie"</text></g><g transform="translate(399.09088134765625 142.13636641068888) rotate(0 30.5 10)"><text x="0" y="14" font-family="Virgil, Segoe UI Emoji" font-size="16px" fill="#1864ab" text-anchor="start" style="white-space: pre;" direction="ltr">goodpup</text></g><g stroke-linecap="round" transform="translate(468.1817904385654 140.4090881347654) rotate(0 101.454551003196 44.00000832297587)"><path d="M1.15 -1.51 C67.93 0.32, 133.83 -0.77, 203.15 -0.27 M-0.28 0.66 C49.31 0.44, 99.07 0.8, 202.55 -0.5 M204.83 -1.41 C203.59 28.76, 203.01 53.21, 201.81 87.04 M202.89 -0.43 C201.55 19.98, 203.13 42.06, 203.82 88.86 M201.2 89.32 C123.47 87.31, 41.43 88.81, -0.05 86.38 M202.03 88.51 C162.57 86.49, 120.6 87.37, -0.5 87.16 M-1.34 88.54 C1.8 54.57, 1.72 22.24, -0.26 -0.15 M-0.07 88.77 C0.4 61.86, -0.43 34.14, 0.98 -0.96" stroke="#1864ab" stroke-width="2" fill="none"></path></g><g transform="translate(482.90907426313925 147.04545177112914) rotate(0 89 38.5)"><text x="0" y="15.25" font-family="Cascadia, Segoe UI Emoji" font-size="16px" fill="#1864ab" text-anchor="start" style="white-space: pre;" direction="ltr">function(name) {</text><text x="0" y="34.5" font-family="Cascadia, Segoe UI Emoji" font-size="16px" fill="#1864ab" text-anchor="start" style="white-space: pre;" direction="ltr">  paste(name, </text><text x="0" y="53.75" font-family="Cascadia, Segoe UI Emoji" font-size="16px" fill="#1864ab" text-anchor="start" style="white-space: pre;" direction="ltr">  "is a good pup!")</text><text x="0" y="73" font-family="Cascadia, Segoe UI Emoji" font-size="16px" fill="#1864ab" text-anchor="start" style="white-space: pre;" direction="ltr">}</text></g><g transform="translate(10 244.90909923206664) rotate(0 89.5 9.5)"><text x="0" y="15" font-family="Cascadia, Segoe UI Emoji" font-size="16px" fill="#1864ab" text-anchor="start" style="white-space: pre;" direction="ltr">res &lt;- goodpup(dog)</text></g><g stroke-opacity="0.1" fill-opacity="0.1" stroke-linecap="round" transform="translate(87.090897993608 277.13635531338764) rotate(0 145.09092851118606 44.00000832297587)"><path d="M0.11 1.87 L289.33 1.7 L289.55 86 L-0.56 87.04" stroke="none" stroke-width="0" fill="#fa5252"></path><path d="M1 0.68 C96.7 -2.73, 189.51 -2.45, 290.72 -1.19 M290.17 0.03 C291.57 22.16, 290.49 39.01, 289.77 89.31 M289.6 88.85 C203.17 89.43, 118.8 88.57, -0.28 87.27 M1.77 87.14 C-1.33 60.4, -0.39 36.41, -0.39 -0.16" stroke="#c92a2a" stroke-width="2.5" fill="none" stroke-dasharray="1.5 8"></path></g><g transform="translate(100.72723388671864 290.90910478071737) rotate(0 131.5 29)"><text x="0" y="15.333333333333332" font-family="Cascadia, Segoe UI Emoji" font-size="16px" fill="#c92a2a" text-anchor="start" style="white-space: pre;" direction="ltr">name = "Eddie"</text><text x="0" y="34.666666666666664" font-family="Cascadia, Segoe UI Emoji" font-size="16px" fill="#c92a2a" text-anchor="start" style="white-space: pre;" direction="ltr"></text><text x="0" y="54" font-family="Cascadia, Segoe UI Emoji" font-size="16px" fill="#c92a2a" text-anchor="start" style="white-space: pre;" direction="ltr">paste(name, "is a good pup")</text></g><g transform="translate(87.81815962357945 374.3636668812144) rotate(0 125.49999999999997 20)"><text x="0" y="14" font-family="Virgil, Segoe UI Emoji" font-size="16px" fill="#c92a2a" text-anchor="start" style="white-space: pre;" direction="ltr">temporary local environment</text><text x="0" y="34" font-family="Virgil, Segoe UI Emoji" font-size="16px" fill="#c92a2a" text-anchor="start" style="white-space: pre;" direction="ltr">(exists during the function call)</text></g><g transform="translate(396.18183482777 262.1363664106889) rotate(0 13 10)"><text x="0" y="14" font-family="Virgil, Segoe UI Emoji" font-size="16px" fill="#1864ab" text-anchor="start" style="white-space: pre;" direction="ltr">res</text></g><g stroke-linecap="round" transform="translate(430.36363081498587 256.7727244984019) rotate(0 121.09089244495738 24.000008322975873)"><path d="M-1.53 1.29 C51.34 2.57, 104.18 2.55, 242.76 -0.48 M0.31 0.63 C86.55 0.97, 172.46 1.07, 241.58 -0.23 M242.25 -1.99 C241.94 10.56, 242.1 20.82, 242.82 47.78 M242.13 -0.51 C240.8 10.08, 240.93 20.18, 242.81 48 M241.67 47.13 C156.16 48.4, 69.17 48.18, -1.15 46.94 M241.56 47.27 C189.36 49.91, 137.42 48.64, -0.45 48.36 M-1.03 49.39 C-0.46 35.46, 0.85 22.84, -0.83 0.99 M0.51 47.58 C-0.22 35.79, 0.32 22.57, -0.26 -0.43" stroke="#1864ab" stroke-width="2" fill="none"></path></g><g transform="translate(440.5454046075996 269.4090659401634) rotate(0 83.5 10)"><text x="0" y="14" font-family="Virgil, Segoe UI Emoji" font-size="16px" fill="#1864ab" text-anchor="start" style="white-space: pre;" direction="ltr">"Eddie is a good pup"</text></g><g stroke-linecap="round"><g transform="translate(68.90907981178975 266.95455377752114) rotate(0 -15.220278279554847 33.74077468067412)"><path d="M0.15 -0.68 C-6.94 8, -45.88 39.97, -43.57 51.45 C-41.25 62.92, 4.51 65.57, 14.04 68.17 M-1.22 1.57 C-8.39 10.49, -46.98 42.13, -44.48 52.89 C-41.98 63.64, 4.01 63.61, 13.77 66.1" stroke="#1864ab" stroke-width="2" fill="none"></path></g><g transform="translate(68.90907981178975 266.95455377752114) rotate(0 -15.220278279554847 33.74077468067412)"><path d="M-16.05 73.01 C-8.92 72.95, -1.45 70.69, 12.75 67.34 M-14.65 72.21 C-5.36 70.02, 5.41 67.78, 13.36 66.35" stroke="#1864ab" stroke-width="2" fill="none"></path></g><g transform="translate(68.90907981178975 266.95455377752114) rotate(0 -15.220278279554847 33.74077468067412)"><path d="M-13.71 52.99 C-7.19 57.31, -0.24 59.42, 12.75 67.34 M-12.31 52.19 C-3.78 56.88, 6.18 61.52, 13.36 66.35" stroke="#1864ab" stroke-width="2" fill="none"></path></g></g><g stroke-linecap="round"><g transform="translate(375.81817626953125 334.5909673517399) rotate(0 28.506648375093903 -13.837435573189964)"><path d="M-0.55 -0.28 C8.97 -4.46, 47.85 -21.34, 57.57 -25.84 M1.36 -1.47 C10.76 -5.89, 47.7 -23.29, 57.06 -27.4" stroke="#1864ab" stroke-width="2" fill="none"></path></g><g transform="translate(375.81817626953125 334.5909673517399) rotate(0 28.506648375093903 -13.837435573189964)"><path d="M35.23 -4.95 C44.78 -11.61, 49.58 -20.01, 57.49 -26.06 M35.44 -6.35 C44.55 -14.54, 51.32 -21.73, 57.06 -27.97" stroke="#1864ab" stroke-width="2" fill="none"></path></g><g transform="translate(375.81817626953125 334.5909673517399) rotate(0 28.506648375093903 -13.837435573189964)"><path d="M26.69 -23.61 C38.99 -23.97, 46.66 -26.11, 57.49 -26.06 M26.9 -25.01 C39.39 -26.08, 49.41 -26.17, 57.06 -27.97" stroke="#1864ab" stroke-width="2" fill="none"></path></g></g><g transform="translate(399.8181429776279 394.4999528364699) rotate(0 196 30)"><text x="0" y="14" font-family="Virgil, Segoe UI Emoji" font-size="16px" fill="#1864ab" text-anchor="start" style="white-space: pre;" direction="ltr">name is never defined in the global environment</text><text x="0" y="34" font-family="Virgil, Segoe UI Emoji" font-size="16px" fill="#1864ab" text-anchor="start" style="white-space: pre;" direction="ltr">so we can never actually reference that variable</text><text x="0" y="54" font-family="Virgil, Segoe UI Emoji" font-size="16px" fill="#1864ab" text-anchor="start" style="white-space: pre;" direction="ltr">outside of the </text></g><g transform="translate(521.2727217240769 435.2272144664414) rotate(0 33 9.5)"><text x="0" y="15" font-family="Cascadia, Segoe UI Emoji" font-size="16px" fill="#1864ab" text-anchor="start" style="white-space: pre;" direction="ltr">goodpup</text></g><g transform="translate(594.5454822887074 437.59088412198116) rotate(0 31 10)"><text x="0" y="14" font-family="Virgil, Segoe UI Emoji" font-size="16px" fill="#1864ab" text-anchor="start" style="white-space: pre;" direction="ltr">function</text></g></svg>