<?xml version="1.0" encoding="UTF-8" standalone="no"?>
<!-- Created with Inkscape (http://www.inkscape.org/) -->

<svg
   width="11.378103in"
   height="5.8224998in"
   viewBox="0 0 45.512413 23.289999"
   version="1.1"
   id="svg658"
   xml:space="preserve"
   inkscape:version="1.2.2 (b0a8486541, 2022-12-01)"
   sodipodi:docname="mental-model-dist-components.svg"
   inkscape:export-filename="mental-model-dist-components.png"
   inkscape:export-xdpi="96"
   inkscape:export-ydpi="96"
   xmlns:inkscape="http://www.inkscape.org/namespaces/inkscape"
   xmlns:sodipodi="http://sodipodi.sourceforge.net/DTD/sodipodi-0.dtd"
   xmlns="http://www.w3.org/2000/svg"
   xmlns:svg="http://www.w3.org/2000/svg"><sodipodi:namedview
     id="namedview660"
     pagecolor="#ffffff"
     bordercolor="#000000"
     borderopacity="0.25"
     inkscape:showpageshadow="2"
     inkscape:pageopacity="0.0"
     inkscape:pagecheckerboard="0"
     inkscape:deskcolor="#d1d1d1"
     inkscape:document-units="in"
     showgrid="true"
     inkscape:zoom="1.829812"
     inkscape:cx="729.58315"
     inkscape:cy="203.84608"
     inkscape:window-width="3790"
     inkscape:window-height="2111"
     inkscape:window-x="50"
     inkscape:window-y="0"
     inkscape:window-maximized="1"
     inkscape:current-layer="layer1"><inkscape:grid
       type="xygrid"
       id="grid779"
       units="in"
       spacingx="0.2"
       originx="0"
       originy="0"
       spacingy="0.2" /></sodipodi:namedview><defs
     id="defs655"><inkscape:path-effect
       effect="attach_path"
       id="path-effect849"
       lpeversion="1"
       startpath="#path811"
       endpath="#path811"
       is_visible="true"
       startposition="0"
       startcurvestart="0,0 , 20,0"
       startcurveend="0,0 , 20,0"
       endposition="0"
       endcurvestart="0,0 , 20,0"
       endcurveend="0,0 , 20,0" /><inkscape:path-effect
       effect="fillet_chamfer"
       id="path-effect847"
       is_visible="true"
       lpeversion="1"
       nodesatellites_param="F,0,0,1,0,0,0,1 @ F,0,0,1,0,0,0,1 @ F,0,0,1,0,0,0,1 @ F,0,0,1,0,0,0,1 @ F,0,0,1,0,0,0,1 @ F,0,0,1,0,0,0,1 @ F,0,0,1,0,0,0,1 @ F,0,0,1,0,0,0,1 @ F,0,0,1,0,0,0,1 @ F,0,0,1,0,0,0,1 @ F,0,0,1,0,0,0,1 @ F,0,0,1,0,0,0,1 @ F,0,0,1,0,0,0,1 @ F,0,0,1,0,0,0,1 @ F,0,0,1,0,0,0,1 @ F,0,0,1,0,0,0,1 @ F,0,0,1,0,0,0,1 @ F,0,0,1,0,0,0,1 @ F,0,0,1,0,0,0,1 @ F,0,0,1,0,0,0,1 @ F,0,0,1,0,0,0,1 @ F,0,0,1,0,0,0,1 @ F,0,0,1,0,0,0,1 @ F,0,0,1,0,0,0,1 @ F,0,0,1,0,0,0,1 @ F,0,0,1,0,0,0,1 @ F,0,0,1,0,0,0,1 @ F,0,0,1,0,0,0,1 @ F,0,0,1,0,0,0,1 @ F,0,0,1,0,0,0,1 @ F,0,0,1,0,0,0,1 @ F,0,0,1,0,0,0,1 @ F,0,0,1,0,0,0,1 @ F,0,0,1,0,0,0,1 @ F,0,0,1,0,0,0,1 @ F,0,0,1,0,0,0,1 @ F,0,0,1,0,0,0,1 @ F,0,0,1,0,0,0,1 @ F,0,0,1,0,0,0,1 @ F,0,0,1,0,0,0,1 @ F,0,0,1,0,0,0,1 @ F,0,0,1,0,0,0,1 @ F,0,0,1,0,0,0,1 @ F,0,0,1,0,0,0,1 @ F,0,0,1,0,0,0,1 @ F,0,0,1,0,0,0,1 @ F,0,0,1,0,0,0,1 @ F,0,0,1,0,0,0,1 @ F,0,0,1,0,0,0,1 @ F,0,0,1,0,0,0,1 @ F,0,0,1,0,0,0,1 @ F,0,0,1,0,0,0,1 @ F,0,0,1,0,0,0,1 @ F,0,0,1,0,0,0,1 @ F,0,0,1,0,0,0,1 @ F,0,0,1,0,0,0,1 @ F,0,0,1,0,0,0,1 @ F,0,0,1,0,0,0,1 @ F,0,0,1,0,0,0,1 @ F,0,0,1,0,0,0,1 @ F,0,0,1,0,0,0,1 @ F,0,0,1,0,0,0,1 @ F,0,0,1,0,0,0,1 @ F,0,0,1,0,0,0,1 @ F,0,0,1,0,0,0,1 @ F,0,0,1,0,0,0,1 @ F,0,0,1,0,0,0,1 @ F,0,0,1,0,0,0,1 @ F,0,0,1,0,0,0,1 @ F,0,0,1,0,0,0,1 @ F,0,0,1,0,0,0,1 @ F,0,0,1,0,0,0,1 @ F,0,0,1,0,0,0,1 @ F,0,0,1,0,0,0,1 @ F,0,0,1,0,0,0,1 @ F,0,0,1,0,0,0,1 @ F,0,0,1,0,0,0,1 @ F,0,0,1,0,0,0,1 @ F,0,0,1,0,0,0,1 @ F,0,0,1,0,0,0,1 @ F,0,0,1,0,0,0,1 @ F,0,0,1,0,0,0,1 @ F,0,0,1,0,0,0,1 @ F,0,0,1,0,0,0,1 @ F,0,0,1,0,0,0,1 @ F,0,0,1,0,0,0,1 @ F,0,0,1,0,0,0,1 @ F,0,0,1,0,0,0,1 @ F,0,0,1,0,0,0,1 @ F,0,0,1,0,0,0,1 @ F,0,0,1,0,0,0,1 @ F,0,0,1,0,0,0,1 @ F,0,0,1,0,0,0,1 @ F,0,0,1,0,0,0,1 @ F,0,0,1,0,0,0,1 @ F,0,0,1,0,0,0,1 @ F,0,0,1,0,0,0,1 @ F,0,0,1,0,0,0,1 @ F,0,0,1,0,0,0,1 @ F,0,0,1,0,0,0,1 @ F,0,0,1,0,0,0,1 @ F,0,0,1,0,0,0,1 @ F,0,0,1,0,0,0,1 @ F,0,0,1,0,0,0,1 @ F,0,0,1,0,0,0,1 @ F,0,0,1,0,0,0,1 @ F,0,0,1,0,0,0,1 @ F,0,0,1,0,0,0,1 @ F,0,0,1,0,0,0,1 @ F,0,0,1,0,0,0,1 @ F,0,0,1,0,0,0,1 @ F,0,0,1,0,0,0,1 @ F,0,0,1,0,0,0,1 @ F,0,0,1,0,0,0,1 @ F,0,0,1,0,0,0,1 @ F,0,0,1,0,0,0,1 @ F,0,0,1,0,0,0,1 @ F,0,0,1,0,0,0,1 @ F,0,0,1,0,0,0,1 @ F,0,0,1,0,0,0,1 @ F,0,0,1,0,0,0,1 @ F,0,0,1,0,0,0,1 @ F,0,0,1,0,0,0,1 @ F,0,0,1,0,0,0,1 @ F,0,0,1,0,0,0,1 @ F,0,0,1,0,0,0,1 @ F,0,0,1,0,0,0,1 @ F,0,0,1,0,0,0,1 @ F,0,0,1,0,0,0,1 @ F,0,0,1,0,0,0,1 @ F,0,0,1,0,0,0,1 @ F,0,0,1,0,0,0,1 @ F,0,0,1,0,0,0,1 @ F,0,0,1,0,0,0,1 @ F,0,0,1,0,0,0,1 @ F,0,0,1,0,0,0,1 @ F,0,0,1,0,0,0,1 @ F,0,0,1,0,0,0,1 @ F,0,0,1,0,0,0,1 @ F,0,0,1,0,0,0,1 @ F,0,0,1,0,0,0,1 @ F,0,0,1,0,0,0,1 @ F,0,0,1,0,0,0,1 @ F,0,0,1,0,0,0,1 @ F,0,0,1,0,0,0,1 @ F,0,0,1,0,0,0,1 @ F,0,0,1,0,0,0,1 @ F,0,0,1,0,0,0,1 @ F,0,0,1,0,0,0,1 @ F,0,0,1,0,0,0,1 @ F,0,0,1,0,0,0,1 @ F,0,0,1,0,0,0,1 @ F,0,0,1,0,0,0,1 @ F,0,0,1,0,0,0,1 @ F,0,0,1,0,0,0,1 @ F,0,0,1,0,0,0,1 @ F,0,0,1,0,0,0,1 @ F,0,0,1,0,0,0,1 @ F,0,0,1,0,0,0,1 @ F,0,0,1,0,0,0,1 @ F,0,0,1,0,0,0,1 @ F,0,0,1,0,0,0,1 @ F,0,0,1,0,0,0,1 @ F,0,0,1,0,0,0,1 @ F,0,0,1,0,0,0,1 @ F,0,0,1,0,0,0,1 @ F,0,0,1,0,0,0,1 @ F,0,0,1,0,0,0,1 @ F,0,0,1,0,0,0,1 @ F,0,0,1,0,0,0,1 @ F,0,0,1,0,0,0,1 @ F,0,0,1,0,0,0,1 @ F,0,0,1,0,0,0,1 @ F,0,0,1,0,0,0,1 @ F,0,0,1,0,0,0,1 @ F,0,0,1,0,0,0,1 @ F,0,0,1,0,0,0,1 @ F,0,0,1,0,0,0,1 @ F,0,0,1,0,0,0,1 @ F,0,0,1,0,0,0,1 @ F,0,0,1,0,0,0,1 @ F,0,0,1,0,0,0,1 @ F,0,0,1,0,0,0,1 @ F,0,0,1,0,0,0,1 @ F,0,0,1,0,0,0,1 @ F,0,0,1,0,0,0,1 @ F,0,0,1,0,0,0,1 @ F,0,0,1,0,0,0,1 @ F,0,0,1,0,0,0,1 @ F,0,0,1,0,0,0,1 @ F,0,0,1,0,0,0,1 @ F,0,0,1,0,0,0,1 @ F,0,0,1,0,0,0,1 @ F,0,0,1,0,0,0,1 @ F,0,0,1,0,0,0,1 @ F,0,0,1,0,0,0,1 @ F,0,0,1,0,0,0,1 @ F,0,0,1,0,0,0,1 @ F,0,0,1,0,0,0,1 @ F,0,0,1,0,0,0,1 @ F,0,0,1,0,0,0,1 @ F,0,0,1,0,0,0,1 @ F,0,0,1,0,0,0,1 @ F,0,0,1,0,0,0,1 @ F,0,0,1,0,0,0,1 @ F,0,0,1,0,0,0,1 @ F,0,0,1,0,0,0,1 @ F,0,0,1,0,0,0,1 @ F,0,0,1,0,0,0,1 @ F,0,0,1,0,0,0,1 @ F,0,0,1,0,0,0,1 @ F,0,0,1,0,0,0,1 @ F,0,0,1,0,0,0,1 @ F,0,0,1,0,0,0,1 @ F,0,0,1,0,0,0,1 @ F,0,0,1,0,0,0,1 @ F,0,0,1,0,0,0,1 @ F,0,0,1,0,0,0,1 @ F,0,0,1,0,0,0,1 @ F,0,0,1,0,0,0,1 @ F,0,0,1,0,0,0,1 @ F,0,0,1,0,0,0,1 @ F,0,0,1,0,0,0,1 @ F,0,0,1,0,0,0,1 @ F,0,0,1,0,0,0,1 @ F,0,0,1,0,0,0,1 @ F,0,0,1,0,0,0,1 @ F,0,0,1,0,0,0,1 @ F,0,0,1,0,0,0,1 @ F,0,0,1,0,0,0,1"
       unit="px"
       method="auto"
       mode="F"
       radius="0"
       chamfer_steps="1"
       flexible="false"
       use_knot_distance="true"
       apply_no_radius="true"
       apply_with_radius="true"
       only_selected="false"
       hide_knots="false" /><inkscape:path-effect
       effect="fill_between_many"
       method="originald"
       linkedpaths="#path619,0,1"
       id="path-effect843"
       join="true"
       close="true"
       autoreverse="true"
       is_visible="true"
       lpeversion="0" /></defs><g
     inkscape:label="Layer 1"
     inkscape:groupmode="layer"
     id="layer1"><path
       style="fill:#354fd8;stroke-width:1"
       d="m 0.3090607,19.775704 c 0.030078,-0.01204 0.066016,-0.01056 0.079861,0.0033 0.013845,0.01384 -0.010764,0.02369 -0.054687,0.02188 -0.048539,-0.002 -0.058413,-0.01187 -0.025174,-0.02517 z"
       id="path909" /><path
       style="fill:#354fd8;stroke-width:1"
       d="m 0.3090607,19.900704 c 0.030078,-0.01204 0.066016,-0.01056 0.079861,0.0033 0.013845,0.01384 -0.010764,0.02369 -0.054687,0.02188 -0.048539,-0.002 -0.058413,-0.01187 -0.025174,-0.02517 z"
       id="path907" /><path
       style="fill:#0e1b1e;stroke-width:1"
       d="m 44.865517,19.758368 c 0.512316,0 0.615046,0.01039 0.635729,0.0643 0.01357,0.03536 0.01498,0.07399 0.0031,0.08583 -0.01185,0.01184 -2.269964,0.01611 -3.399571,0.0188 -1.129607,0.0027 -3.378034,-0.0027 -3.378034,-0.0027 l -0.01183,0.447655 c -0.01024,0.387676 -0.0216,0.449527 -0.08475,0.461622 -0.06589,0.01262 -0.07292,-0.03046 -0.07292,-0.447423 l 4.9e-5,-6.9e-5 v -0.461388 h -2.645833 -2.645833 v 0.168132 c 0,0.181293 -0.09896,0.373535 -0.192292,0.373535 -0.04325,0 -0.05771,-0.06787 -0.05771,-0.270834 v -0.270833 h -3.291667 -3.291666 v 0.160851 c 0,0.331003 -0.04935,0.552113 -0.120188,0.538471 -0.07727,-0.01488 -0.117913,-0.171294 -0.124883,-0.480572 l -0.0049,-0.21875 h -2.519149 -2.519148 l -0.0121,0.343289 c -0.01016,0.288104 -0.02382,0.345529 -0.08502,0.357222 -0.06486,0.01239 -0.07292,-0.02555 -0.07292,-0.343289 v -0.357222 h -3.248377 -3.248378 l -0.01204,0.364115 c -0.01018,0.307978 -0.02328,0.366263 -0.08496,0.378055 -0.06511,0.01245 -0.07292,-0.02653 -0.07292,-0.364115 V 19.924995 H 11.579734 8.85219 L 8.84015,20.28911 C 8.82997,20.597088 8.81687,20.655373 8.75519,20.667165 8.69008,20.679615 8.68227,20.640635 8.68227,20.30305 V 19.924995 H 6.1213549 3.5604184 l -0.01198,0.38494 c -0.010204,0.327852 -0.022794,0.38701 -0.084897,0.398889 -0.065318,0.01249 -0.072917,-0.02742 -0.072917,-0.383 V 19.928875 L 1.873213,19.916515 c -0.8345762,-0.0068 -1.5314512,-0.02642 -1.548611,-0.04361 -0.01716,-0.01719 -0.017161,-0.04531 -1.9e-6,-0.0625 0.017159,-0.01719 0.6952574,-0.04175 1.5069444,-0.04365 l 1.5640373,-0.0037 c 0.014404,7e-5 -0.044105,-0.610605 0.1237236,-0.602708 0.016496,7.76e-4 0.025636,0.594548 0.046167,0.594602 0.5600801,0.0015 2.5521412,0.0033 2.5521412,0.0033 H 8.677936 L 8.69053,19.53958 c 0.0093,-0.161069 0.02907,-0.21875 0.07509,-0.21875 0.04602,0 0.06582,0.05768 0.07509,0.21875 l 0.01259,0.21875 h 2.724706 2.724706 l 0.0127,-0.197916 c 0.0091,-0.142504 0.0302,-0.197917 0.0752,-0.197917 0.045,0 0.06606,0.05541 0.0752,0.197917 l 0.0127,0.197916 h 3.245434 3.245435 l 0.0127,-0.197916 c 0.0091,-0.142504 0.0302,-0.197917 0.0752,-0.197917 0.045,0 0.06606,0.05541 0.0752,0.197917 l 0.0127,0.197916 h 2.51855 2.518551 v -0.1824 c 0,-0.232971 0.08812,-0.321843 0.183745,-0.185317 0.03644,0.05203 0.06625,0.156044 0.06625,0.231153 v 0.136562 h 3.284625 3.284626 l 0.04759,-0.09375 c 0.02617,-0.05156 0.05278,-0.16875 0.05913,-0.260416 0.008,-0.115244 0.03082,-0.166667 0.07404,-0.166667 0.04757,0 0.06546,0.06223 0.07491,0.260417 l 0.0124,0.260416 h 2.642092 2.642093 l 0.01217,-0.322916 c 0.0096,-0.253851 0.02554,-0.322917 0.07467,-0.322917 0.04913,0 0.0651,0.06907 0.07467,0.322917 l 0.01217,0.322916 3.058061,0.0076 c 1.914008,-0.0025 2.5227,-0.0089 3.079993,-0.0076 z"
       id="path841" /><path
       inkscape:original-d="M 0,0"
       inkscape:path-effect="#path-effect843"
       d="M 0,0"
       id="path845"
       class="UnoptimicedTransforms" /><path
       style="fill:none;stroke:#000000;stroke-width:0.2;stroke-linecap:round;stroke-linejoin:bevel;stroke-dasharray:none;paint-order:markers stroke fill"
       d="m 3.4,19.6 c 0,0 -0.4,-4.6 3e-7,-7.599999 C 3.6932863,9.8003582 5,7 6.1528853,6.3654152 6.6993648,6.0646155 8,7 9,6 12.077621,2.9223793 16.8121,1.6510083 21.000002,2.0000002 23.127004,2.1772504 26,6.200002 26,6 26,6 25.880076,2.788748 26.000002,2.8000002 26.13002,2.8121993 26.064791,5.2047134 26.2,5.2 c 0.100428,-0.0035 0,-0.6 0.4,-0.6 1.2,0 0.8,10.400002 1.6,11.400001 0.8,0.999999 2.228963,1.438522 4.000001,2 1.771038,0.561478 4.399748,0.700034 6.6,1.000001 C 41.000253,19.299968 45.2,19.8 45.2,19.8"
       id="path1141"
       sodipodi:nodetypes="csssssssczzzc" /><g
       id="g1823"
       transform="matrix(2.9889398,0,0,2.8396136,1.7422595,-63.775389)"
       style="stroke-width:0.343251" /><path
       style="opacity:0.6;fill:#dc8add;stroke:#dc8add;stroke-width:0.2;stroke-linecap:round;stroke-linejoin:bevel;stroke-dasharray:none;paint-order:markers stroke fill"
       d="m 26.2,12.2 v 6.6 0 0"
       id="path1879" /><path
       style="opacity:0.6;fill:none;stroke:#613583;stroke-width:0.2;stroke-linecap:round;stroke-linejoin:bevel;stroke-dasharray:none;paint-order:markers stroke fill"
       d="m 25.8,19.400001 0.2,-0.2 c 0.199998,-0.200002 0.399998,-4.200002 0.6,-4.600001 0.02981,-0.05963 0.170186,-0.05963 0.2,0 0.199998,0.399999 0.199998,4.399999 0.4,4.600001 0,0 0.112896,0.16392 0.2,0.2"
       id="path2043"
       sodipodi:nodetypes="cssssc" /><path
       style="opacity:0.6;fill:none;stroke:#1a5fb4;stroke-width:0.2;stroke-linecap:round;stroke-linejoin:bevel;stroke-dasharray:none;paint-order:markers stroke fill"
       d="M 3.4000003,19.400002 V 15.000001 C 7.4,11.4 9,4 19.999999,3.2 20.66491,3.1516428 21.348131,3.0603138 22,3.2 24.799998,3.7999999 24.8,5.8 25.8,8.4 26.121081,9.2348097 28,17 29.000002,17.800001 30.513433,19.010745 34.423324,19.18641 37.2,19.4 c 2.6,0.2 7.800004,0.200002 7.800004,0.200002 v 0"
       id="path2207"
       sodipodi:nodetypes="ccssssscc" /><path
       style="opacity:0.6;fill:none;stroke:#8ff0a4;stroke-width:0.2;stroke-linecap:round;stroke-linejoin:bevel;stroke-dasharray:none;paint-order:markers stroke fill"
       d="m 0.39999943,19.400001 c 0,0 1.83573407,-0.312025 2.60000017,-0.8 C 4.511917,17.634659 4.9613481,15.329794 6.5999999,14.6 6.8435999,14.49151 7.1564,14.49151 7.4,14.6 c 1.6386518,0.729794 2.088083,3.034659 3.6,4.000001 0.764266,0.487975 2.6,0.8 2.6,0.8 v 0 0"
       id="path2263"
       sodipodi:nodetypes="caaaaaac" /><text
       xml:space="preserve"
       style="font-size:1.11111px;line-height:1;font-family:'Atkinson Hyperlegible';-inkscape-font-specification:'Atkinson Hyperlegible, Normal';text-align:center;text-anchor:middle;fill:#000000;stroke:none;stroke-width:0.2;stroke-linecap:round;stroke-linejoin:bevel;stroke-dasharray:none;paint-order:markers stroke fill"
       x="20.4"
       y="22"
       id="text2373"><tspan
         sodipodi:role="line"
         id="tspan2371"
         style="fill:#000000;stroke:none;stroke-width:0.2"
         x="20.4"
         y="22">My mental model of (possible) </tspan><tspan
         sodipodi:role="line"
         style="fill:#000000;stroke:none;stroke-width:0.2"
         x="20.4"
         y="23.111111"
         id="tspan2477">distribution components</tspan></text></g></svg>
