<?xml version="1.0" encoding="UTF-8" standalone="no"?>
<svg
   width="24.894mm"
   height="24.589mm"
   version="1.1"
   viewBox="0 0 24.894 24.589"
   id="svg105"
   sodipodi:docname="Pittsburgh_Zoo_&amp;_PPG_Aquarium_logo.svg"
   inkscape:export-filename="Pittsburgh_Zoo_logo.png"
   inkscape:export-xdpi="96"
   inkscape:export-ydpi="96"
   inkscape:version="1.2.2 (b0a8486541, 2022-12-01)"
   xmlns:inkscape="http://www.inkscape.org/namespaces/inkscape"
   xmlns:sodipodi="http://sodipodi.sourceforge.net/DTD/sodipodi-0.dtd"
   xmlns="http://www.w3.org/2000/svg"
   xmlns:svg="http://www.w3.org/2000/svg">
  <sodipodi:namedview
     id="namedview107"
     pagecolor="#ffffff"
     bordercolor="#000000"
     borderopacity="0.25"
     inkscape:showpageshadow="2"
     inkscape:pageopacity="0.0"
     inkscape:pagecheckerboard="0"
     inkscape:deskcolor="#d1d1d1"
     inkscape:document-units="mm"
     showgrid="false"
     inkscape:zoom="2.5394146"
     inkscape:cx="-18.508203"
     inkscape:cy="46.467403"
     inkscape:window-width="2256"
     inkscape:window-height="1445"
     inkscape:window-x="0"
     inkscape:window-y="0"
     inkscape:window-maximized="1"
     inkscape:current-layer="svg105" />
  <defs
     id="defs5">
    <clipPath
       id="clipPath40660">
      <path
         d="m37.971 700.92h70.565v69.707h-70.565z"
         id="path2" />
    </clipPath>
  </defs>
  <g
     transform="translate(-13.395 -7.5421)"
     id="g103">
    <g
       transform="matrix(.35278 0 0 -.35278 3.0747e-8 279.4)"
       id="g101">
      <g
         clip-path="url(#clipPath40660)"
         id="g99">
        <g
           transform="translate(77.41 766.78)"
           id="g9">
          <path
             d="m0 0c0.069 3e-3 0.13-0.019 0.204-0.086 0.025-0.022 0.043-0.048 0.063-0.067 0.041-0.037 0.075-0.072 0.075-0.082 0-0.015-0.068-0.032-0.095-0.029-0.026 3e-3 -0.107 7e-3 -0.133-0.017s-0.091-0.037-0.121-0.15c-0.039-0.149-0.097-0.212-0.096-0.258 2e-3 -0.065 0.058-0.144 0.117-0.207 0.063-0.068 0.147-0.083 0.264-0.213 0.118-0.131 0.348-0.448 0.5-0.585 0.153-0.137 0.484-0.402 0.57-0.449 0.085-0.048 0.061-0.151 0.023-0.16-0.019-5e-3 -0.038-0.02-0.087-0.021-0.049-2e-3 -0.134 0.022-0.18 0.021-0.045-1e-3 -0.082-0.056-0.177-0.062s-0.15 0.046-0.215 0.059c-0.065 0.014-0.137-0.015-0.202 6e-3 -0.066 0.021-0.14 0.08-0.206 0.101-0.064 0.021-0.172 0.03-0.226 0.055s-0.098 0.1-0.148 0.137c-0.051 0.036-0.12 0.031-0.181 0.071-0.062 0.04-0.076 0.127-0.119 0.164-0.043 0.038-0.109 0.058-0.155 0.103-0.048 0.044-0.061 0.12-0.116 0.168-0.054 0.048-0.137 0.134-0.182 0.091-0.044-0.044-0.031-0.082-0.031-0.108 0-0.027 0.034-0.098 0.047-0.163 0.013-0.064 0.038-0.159 0.046-0.189 9e-3 -0.03 0.062-0.143 0.059-0.201-2e-3 -0.057-8e-3 -0.099-0.027-0.111s-0.045-0.032-0.09-0.033c-0.046-1e-3 -0.121 0.088-0.175 0.087-0.053-2e-3 -0.112-0.08-0.203-0.071-0.092 9e-3 -0.068 0.082-0.09 0.089-0.024 8e-3 -0.156-0.015-0.207 0.029-0.078 0.067-0.064 0.117-0.092 0.154s-0.13 0.012-0.181 0.067c-0.051 0.056-0.034 0.125-0.069 0.162-0.036 0.037-0.177 0.049-0.221 0.116-0.044 0.068 0.019 0.157-2e-3 0.194-0.019 0.038-0.07 0.086-0.072 0.136-1e-3 0.049 0.047 0.093 0.05 0.135s-0.069 0.127-0.055 0.177 0.044 0.062 0.047 0.089c4e-3 0.027-0.06 0.08-0.048 0.109 0.021 0.054 0.033 0.154 0.079 0.151 0.046-2e-3 0.176-0.025 0.316-0.098 0.139-0.072 0.252-0.153 0.362-0.146 0.111 7e-3 0.146 0.095 0.146 0.095s-0.13 0.055-0.182 0.106c-0.082 0.082-0.05 0.166-0.062 0.193-0.013 0.026-0.098 0.034-0.164 0.121-0.079 0.105-0.028 0.178-0.056 0.224-0.027 0.044-0.111 0.023-0.136 0.106s0.019 0.134-9e-3 0.206c-0.029 0.072-0.119 0.12-0.147 0.194-0.037 0.098 0.01 0.199-7e-3 0.255-0.017 0.057-0.099 0.112-0.109 0.211s0.025 0.096 0.028 0.123c3e-3 0.026-0.075 0.085-0.07 0.181 5e-3 0.095 0.045 0.138 0.048 0.187 2e-3 0.05-0.083 0.146-0.079 0.22 6e-3 0.083 0.035 0.123 0.034 0.165s-0.035 0.151-6e-3 0.209 0.07 0.074 0.07 0.074-0.011 0.126 0.018 0.187c0.029 0.063 0.08 0.129 0.104 0.118 0.023-0.011 0.051-0.178 0.082-0.23 0.032-0.053 0.112-0.195 0.129-0.252s0.095-0.238 0.162-0.339c0.068-0.101 0.198-0.265 0.237-0.317 0.041-0.053 0.085-0.174 0.129-0.233 0.044-0.06 0.198-0.284 0.23-0.337 0.032-0.052 0.131-0.301 0.183-0.391s0.288-0.351 0.482-0.345c0.194 5e-3 0.18 0.096 0.325 0.104m2.509 3.837c0.054-0.025 0.028-0.076 0.069-0.131 0.051-0.071 0.319-0.708 0.427-0.85 0.111-0.145 0.361-0.427 0.458-0.551 0.075-0.097 0.231-0.352 0.29-0.431 0.059-0.078 0.205-0.23 0.205-0.23s0.029 0.046 0.051 0.066c0.022 0.019 0.06 0.044 0.06 0.044s-0.029 0.079-0.015 0.113c0.014 0.035 0.059 0.075 0.059 0.075s-0.017 0.048-0.017 0.087c-1e-3 0.038 0.033 0.145 0.056 0.173 0.022 0.027 0.07 0.082 0.085 0.086s0.029-0.056 0.033-0.087c4e-3 -0.03 0.034-0.121 0.057-0.158 0.025-0.038 0.08-0.116 0.101-0.162 0.02-0.045 0.068-0.264 0.076-0.402 6e-3 -0.137 0.145-0.438 0.196-0.497 0.051-0.06 0.18-0.182 0.294-0.179 0.115 3e-3 0.13 0.07 0.28 0.092 0.194 0.028 0.369-0.25 0.401-0.279 0.031-0.03 0.194-0.152 0.199-0.181 9e-3 -0.053-0.148-0.02-0.167-0.021-0.02 0-0.098-0.044-0.174-0.057-0.076-0.014-0.133-8e-3 -0.242-0.053s-0.139-0.07-0.217-0.143c-0.098-0.091-0.301-0.383-0.4-0.457-0.142-0.107-0.441-0.165-0.585-0.199-0.144-0.035-0.333-0.09-0.429-0.214-0.095-0.125-0.265-0.332-0.318-0.329-0.092 5e-3 -0.014 0.194-0.087 0.26-0.057 0.051-0.203 0.01-0.312-0.058-0.108-0.068-0.199-0.097-0.367-0.105-0.167-9e-3 -0.631-6e-3 -0.763 0.047-0.24 0.097-0.256 0.272-0.256 0.272s-0.047 0.07-0.05 0.135c-2e-3 0.099 0.045 0.177 0.045 0.177s-0.039 0.094-0.038 0.147c1e-3 0.081 0.057 0.143 0.061 0.143s-0.017 0.171 0.07 0.204 0.172 0.03 0.294-0.011c0.189-0.063 0.25-0.054 0.326-0.075 0.077-0.02 0.201-0.082 0.266-0.095 0.065-0.014 0.183 1e-3 0.221-6e-3 0.039-6e-3 0.105-0.039 0.154-0.037 0.049 1e-3 0.139 0.05 0.176 0.104s0.032 0.119 0.023 0.145c-9e-3 0.027-0.087 0.12-0.115 0.153-0.028 0.034-0.025 0.095-0.025 0.095s-0.113 0.089-0.153 0.145-0.043 0.17-0.043 0.17-0.128 0.088-0.153 0.145c-0.024 0.056-0.051 0.215-0.047 0.215 3e-3 1e-3 -0.058 6e-3 -0.102 0.093s-0.053 0.262-0.053 0.262-0.129 0.118-0.116 0.217c0.012 0.1 0.026 0.276 0.029 0.318s-0.066 0.173-0.109 0.233c-0.044 0.06 0.015 0.115 7e-3 0.141-9e-3 0.027-0.138 0.24-0.131 0.31 9e-3 0.087 0.107 0.17 0.104 0.25-2e-3 0.08-0.055 0.09-0.058 0.174-3e-3 0.091 0.114 0.155 0.112 0.212-1e-3 0.058-0.054 0.097-0.028 0.183 0.031 0.104 0.119 0.125 0.119 0.125s-4e-3 0.122 0.034 0.161c0.037 0.039 0.102 0.041 0.132 0.026m0.024-27.79c0.068-0.027-0.108-0.501 0.096-0.597 0.203-0.094 0.819 0.061 1.165-0.054 0.265-0.088 0.785-0.223 0.88-0.304 0.096-0.082 0.041-0.184 0.041-0.184s-0.216-0.054-0.312-0.121c-0.094-0.068-0.223-0.129-0.345-0.183-0.122-0.055-0.427-0.095-0.427-0.095l0.447 0.284s-0.094 0.073-0.169 0.122c-0.128 0.085-0.25 0.116-0.25 0.116s-0.102-0.671-0.373-0.671-0.508 0.745-0.508 0.745-0.329 0.012-0.421 0.19c-0.087 0.169-0.013 0.63 0.021 0.67 0.034 0.041 0.155 0.082 0.155 0.082m8.591 3.807s1.247-0.826 1.179-2.371c-0.067-1.545-0.555-1.382-0.759-1.382-0.203 0-0.416 0.102-0.488 0.244-0.121 0.244-0.04 0.501-0.04 0.501s-0.244 0.122-0.203 0.298c0.04 0.176 0.217 0.041 0.217 0.149 0 0.176-0.38 0.38-0.217 0.637 0.163 0.258 0.623-0.176 0.853-0.068 0.231 0.109 0.163 0.529 0.028 0.922-0.136 0.393-0.57 1.07-0.57 1.07m-13.617-9.308c0.325 0.026 0.406 0.514 0.488 0.541 0.081 0.027 0.311 0.014 0.311 0.014s-0.088-0.434-0.196-0.59c-0.05-0.071-0.197-0.183-0.278-0.331-0.081-0.15-0.122-0.448-0.163-0.461-0.04-0.014-0.257 0.135-0.339 0.257-0.081 0.122-0.074 0.292-0.182 0.4-0.109 0.108-0.359 0.156-0.414 0.21-0.054 0.054-0.032 0.159-0.013 0.183 0.034 0.041 0.339 0.041 0.433-0.027 0.095-0.068 0.19-0.21 0.353-0.196m1.816-3.022s0.271-0.075 0.609 0c0.18 0.039 0.922 0.325 1.328 0.311 0.827-0.027 1.301-0.65 1.084-0.813-0.217-0.162-0.339 0.177-0.339 0.177s-0.115-0.183-0.386-0.082c-0.153 0.057-0.231 0.258-0.535 0.326-0.201 0.044-0.81-0.027-1.234-0.123-0.182-0.041-0.473-0.027-0.541 0.027-0.068 0.055 0.014 0.177 0.014 0.177m-6.451 2.818c0.121-0.084 0.231-0.366 0.231-0.447s0.027-0.217 0.135-0.271c0.109-0.054 0.178-0.099 0.204-0.149 0.067-0.135 0-0.407-0.041-0.42-0.041-0.014-0.447 0.095-0.569 0.23-0.122 0.136-0.258 0.42-0.258 0.42s-0.311 0-0.311 0.339c0 0.338 0.474 0.393 0.609 0.298m-10.84 2.832c0.136 0 0.328-0.181 0.407-0.339 0.136-0.271-0.014-0.515-0.041-0.745s-0.027-0.935-0.271-0.948c-0.244-0.014-0.244 0.216-0.271 0.474-0.027 0.257 0.122 0.42 0.217 0.501s0.257 0.258 0.251 0.447c-8e-3 0.233-0.194 0.295-0.318 0.285-0.174-0.015-0.388-0.053-0.375-0.127 0.018-0.105-0.07-0.198-0.127-0.198-0.122 0-0.203 0.108-0.203 0.271 0 0.162 0.013 0.23 0.108 0.23s0.319 0.034 0.386 0.061c0.068 0.027 0.061 0.088 0.237 0.088m-1.422-1.369s-5e-3 -1.006 0.433-1.382c0.569-0.487 0.868-0.433 0.909-0.393 0.04 0.041 0 0.177 0.189 0.177 0.19 0 0.379-0.448 0.352-0.718-0.027-0.272-0.135-0.597-0.366-0.529-0.23 0.068-0.284 0.501-0.284 0.501s-0.601 0.236-0.948 0.583c-0.656 0.655-0.285 1.761-0.285 1.761m-20.05-26.277h70.566v-0.401h-70.566zm40.223 15.603c0 0.036 0.038 0.066 0.085 0.066s0.084-0.03 0.084-0.066-0.037-0.066-0.084-0.066-0.085 0.03-0.085 0.066m3.543-1.536s-0.016 0.03 0.011 0.056c0.025 0.025 0.068 0.012 0.09-5e-3s0.052-0.048 0.046-0.067c-7e-3 -0.019-0.027-0.027-0.075-0.025-0.047 2e-3 -0.072 0.041-0.072 0.041m-28.933 25.083c-0.095-0.027-0.176-0.312-0.312-0.312-0.135 0-0.122-0.27 0.041-0.393 0.162-0.122 0.244-0.054 0.271 0.041s0.231 0.122 0.298 0.217c0.068 0.095 0.38-0.027 0.596-0.027 0.217 0 0.055-0.095 0.203-0.108 0.15-0.014 0.176 0.067 0.271 0.148 0.095 0.082-0.135 0.312-0.243 0.393-0.109 0.082-0.38 0.014-0.597 0.027-0.216 0.014-0.309 0.076-0.528 0.014m3.347 1.287c-0.109 0-0.027-0.474-0.027-0.745s-0.149-0.325-0.353-0.325c-0.202 0-0.325 0.122-0.488 0.244-0.162 0.122-0.338 0.284-0.664 0.284-0.325 0-0.46-0.108-0.46-0.176 0-0.067 0.434-0.108 0.569-0.203 0.136-0.095 0.19-0.325 0.312-0.407 0.122-0.081 0.271 0.082 0.379 0.014 0.109-0.068 0.217-0.203 0.434-0.217 0.217-0.013 0.325 0.082 0.393 0.19 0.067 0.108 0.474 0.027 0.677 0.013 0.203-0.013 0.163-0.23 0.23-0.203 0.069 0.027 0.163 0.339-0.013 0.379-0.176 0.041-0.027 0.258-0.068 0.407s-0.42 0.163-0.609 0.23c-0.19 0.068-0.216 0.515-0.312 0.515m3.875-0.664c-0.081-0.027 0.014-0.135 0-0.27-0.013-0.136 0.081-0.041 0.122-0.218 0.041-0.176-0.108-0.284 0.149-0.27 0.136 7e-3 0.244-0.014 0.326 0.108 0.081 0.122 0.176-0.04 0.148 0.19-0.027 0.23-0.081 0.149-0.243 0.352-0.163 0.203-0.335 0.164-0.502 0.108m5.623-1.07c-0.257 0.013-0.135-0.095-0.284-0.095s-0.271 0.081-0.271-0.108c0-0.19 0.243-0.326 0.243-0.61 0-0.285-0.094-0.515-0.121-0.894-0.027-0.38-0.38-0.542-0.352-0.678 0.026-0.135 0.447-0.203 0.677-0.298s0.366-0.257 0.474-0.271c0.109-0.014 0.081 0.176 0.081 0.298s0.136 0.095 0.217 0.217c0.082 0.122 0.217 0.244 0.217 0.352 0 0.109-0.311 0.312-0.474 0.705-0.104 0.25-0.163 0.623-0.176 0.88-0.014 0.258-0.019 0.491-0.231 0.502m-2.719-1.2c0.039-0.021 0.084-0.042 0.131-0.062 0.045-0.055 0.09-0.107 0.117-0.126 0.067-0.046 0.146-0.088 0.237-0.118s0.149-0.097 0.111-0.1c-0.037-3e-3 -0.075-6e-3 -0.126 2e-3 -0.052 8e-3 -0.105 0.041-0.205 0.032-0.1-8e-3 -0.097-0.046-0.045-0.067 0.053-0.02 0.206-0.032 0.157-0.061-0.048-0.03-0.046-0.043-0.08-0.096-0.033-0.053 0.022-0.099 0.043-0.059 0.022 0.039 0.079 0.108 0.167 0.115 0.088 8e-3 0.141-0.025 0.206-0.045 0.064-0.019 0.156-0.037 0.218-0.018 0.061 0.017-7e-3 0.075-7e-3 0.075s0.05 4e-3 0.086 0.032c0.035 0.029 0.218 0.095 0.238 0.16 0.019 0.065 0.023 0.166-0.123 0.244-0.145 0.077-0.23 0.181-0.248 0.243-0.018 0.061-0.14 0.303-0.197 0.361-0.058 0.058-0.148 0.102-0.211 0.11-0.064 6e-3 -0.184 0.084-0.304 0.149-0.119 0.066-0.267 0.154-0.321 0.187s-0.184 0.085-0.184 0.085-7e-3 0.075-0.084 0.093c-0.077 0.019-0.134-0.049-0.134-0.049s-0.036-0.029-0.098-0.034c-0.063-6e-3 -0.139-0.025-0.173-0.066-0.035-0.04 9e-3 -0.1 0.037-0.135s0.049-0.109 0.116-0.154 0.084-0.093 0.142-0.177c0.057-0.083 0.152-0.104 0.244-0.146 0.093-0.043 0.127-0.182 0.127-0.182s0.065-0.191 0.028-0.198c-0.092-0.015-0.165 0.012-0.165 0.012s-0.088 0.058-0.127 0.128c-0.039 0.069-0.038 0.11-0.074 0.088s-0.017-0.054 0.013-0.087c0.03-0.034 0.072-0.092 0.072-0.092s-8e-3 -1e-3 -0.044 0.011c-0.036 0.011-0.055 0.088-0.1 0.068-0.045-0.019 4e-3 -0.082 0.04-0.093 0.036-0.012 0.05-0.019 0.084-0.041 0.033-0.022 0.082-0.036 0.131-0.074 0.047-0.037 0.068-0.078 0.116-0.103 0.059-0.032 0.063 0.049 0.019 0.056-0.057 9e-3 -0.056 0.044-0.056 0.044s0.067 0.018 0.147 9e-3c0.052-6e-3 0.072 0.034 0.079 0.079m0.931 3.815c-0.081 0.013-0.203-0.014-0.177-0.298 0.028-0.285-0.108-0.258-0.094-0.447 0.013-0.19 0.149-0.447 0.23-0.529 0.081-0.081 0.19-0.244 0.339-0.271s0.203 0.109 0.203 0.217c0 0.109 0.149 0.204 0.19 0.244 0.041 0.041 0.19 0.678 0 0.623-0.19-0.054-0.122 0.122-0.366 0.244s-0.177 0.192-0.325 0.217m2.452-2.398c-0.054-0.027-0.054-0.488 0.082-0.57 0.135-0.081 0.189-0.419 0.244-0.609 0.054-0.19 0.474-0.163 0.528-0.109 0.054 0.055-0.068 0.434-0.122 0.732-0.055 0.298-0.122 0.447-0.176 0.515s-0.468 0.084-0.556 0.041m0.502 2.588c-0.109 0.108-0.15-0.149-0.272-0.231-0.121-0.081-0.23-0.121-0.243-0.338s0.108-0.122 0.108-0.217-0.041-0.556 0.055-0.623c0.095-0.068 0.108-0.204 0.243-0.204 0.136 0 0.163 0.217 0.217 0.325 0.054 0.109 0.041 0.122-0.054 0.122s0.041 0.095-0.027 0.217-0.271-0.04-0.284 0.176c-0.015 0.217 0.202 0.217 0.378 0.366 0.177 0.149 0.271 0.163 0.271 0.272 0 0.108-0.208-0.049-0.392 0.135m2.561 0.135c-0.095-0.013-0.068-0.135-0.339-0.217-0.112-0.033-0.054-0.379-0.014-0.447 0.041-0.067 0.163 0.027 0.244-0.067 0.081-0.095 0.163-0.231 0.271-0.15 0.055 0.041 0.014 0.529 0 0.692-0.014 0.162-0.041 0.207-0.162 0.189m0.935-0.46c-0.082 0-0.014-0.542-0.014-0.637s0.109-0.231 0.176-0.217c0.068 0.013 0.176 0.162 0.231 0.217 0.054 0.054 0.108 0.203 0 0.216-0.109 0.014-0.081 0.177-0.081 0.312 0 0.136-0.239 0.109-0.312 0.109m-0.881-2.019c-0.054 0.027-0.325-0.028-0.38-0.136-0.054-0.108-0.243-0.149-0.623-0.108-0.379 0.041-0.311 0.081-0.406 0.352s-0.285 0.203-0.407 0.203c-0.121 0 0.055-0.23 0.081-0.379 0.028-0.149-0.081-0.203-0.094-0.352-0.014-0.15 0.108-0.163 0.122-0.366 0.013-0.204 0.148-0.312 0.243-0.434s0.312-0.149 0.38-0.095c0.067 0.055-0.109 0.19 0.108 0.217s0.366 0.163 0.515 0.312 0.433 0.284 0.474 0.338c0.041 0.055 0.091 0.396-0.013 0.448m1.07-0.658c-0.094 0.027-0.243-0.291-0.46-0.453-0.217-0.163-0.393-0.407-0.407-0.583s0.068-0.298 0.217-0.42 0.095-0.515 0.271-0.515 0.325 0.081 0.447 0.284c0.122 0.204 0.325 0.231 0.312 0.447-0.014 0.217-0.081 0.231-0.217 0.394-0.135 0.162-0.054 0.724-0.163 0.846m1.071-1.849c-0.136 0-0.122-0.014-0.163-0.109-0.04-0.094-0.136-0.013-0.325 0-0.19 0.014-0.258-0.338-0.393-0.46-0.136-0.122-0.244-0.136-0.379-0.108-0.136 0.026 0.108-0.285 0.243-0.353 0.136-0.068 0.204-0.176 0.339-0.19 0.136-0.013 0.136 0.068 0.353 0.149 0.217 0.082 0.419 0.014 0.609 0.109s0.502 0.352 0.488 0.488c-0.013 0.135-0.257 0.203-0.406 0.217-0.149 0.013-0.161 0.257-0.366 0.257m1.558 1.287c-0.041 0.054-0.285-0.013-0.406-0.081-0.122-0.068-0.447-0.027-0.651-0.027-0.203 0 0.068-0.176 0.081-0.258 0.013-0.081-0.027-0.298 0.082-0.284 0.108 0.013 0.284-0.23 0.42-0.23 0.135 0-0.054-0.204 0.216-0.19 0.271 0.013 0.177-0.095 0.312-0.109 0.136-0.014 0.176 0.176 0.189 0.366 0.015 0.19-0.161 0.285-0.243 0.434-0.081 0.149 0.07 0.286 0 0.379m-1.03 2.71c-0.054 0.014-0.068-0.163-0.109-0.244-0.04-0.081-0.094-0.068-0.162-0.081-0.068-0.014 0.014-0.19 0.082-0.244 0.067-0.054 0.149-0.068 0.121-0.244-0.026-0.176 0.055-0.312 0.122-0.379 0.068-0.068 0.325 0 0.434-0.014 0.108-0.013 0.041 0.19-0.041 0.393-0.081 0.203-0.257 0.271-0.257 0.271s-0.098 0.519-0.19 0.542m2.819-0.759c-0.082 0-0.23-0.217-0.325-0.298s-0.38-0.041-0.542-0.027c-0.163 0.014-0.082-0.163-0.041-0.271s0.095-0.19 0.312-0.176c0.216 0.013 0.352 0.149 0.487 0.325 0.136 0.176 0.407 0.23 0.258 0.298s-0.027 0.149-0.149 0.149m0.718-1.423c-0.054 0.028-0.763 0.077-0.867-0.067-0.109-0.149-0.204-0.068-0.231-0.204-0.027-0.135 0.068-0.189 0.163-0.42 0.094-0.23 0.011-0.289 0.23-0.271 0.326 0.028 0.244 0.312 0.38 0.583 0.135 0.271 0.424 0.33 0.325 0.379m2.479-1.408c-0.298 0-1.125-0.8-1.653-1.329-0.528-0.528-0.989-0.677-1.897-0.704-0.907-0.027-1.002-0.339-1.219-0.502-0.217-0.162-0.434-0.663-0.447-0.867-0.014-0.203 0.203-0.596 0.352-0.826 0.149-0.231 0.352-0.556 0.312-1.165-0.041-0.61 0.135-0.922 0.365-0.895 0.231 0.027 1.22 1.071 1.437 1.626 0.217 0.556 0.393 1.45 0.826 1.721 0.198 0.123 0.651 0.271 0.894 0.528 0.245 0.258 0.312 0.515 0.447 0.705 0.137 0.19 0.339 0.19 0.475 0.434 0.135 0.244 0.163 0.487 0.095 0.691-0.068 0.203 0.198 0.583 0.013 0.583m-3.265 4.376c-0.095-0.04-0.027-0.718 0.054-0.799 0.081-0.082 0.298-0.028 0.393-0.014s0.109 0.176 0.19 0.352c0.081 0.177 0.108 0.149-0.054 0.339-0.163 0.19-0.444 0.182-0.583 0.122m2.337-1.104c-0.095 0.013-0.197-0.142-0.358-0.21-0.164-0.068 0.081-0.271-0.164-0.448-0.243-0.175-0.243-0.257 0.109-0.243 0.352 0.013 0.366 0.054 0.461 0.149 0.095 0.094 0.122 0.162 0.122 0.379s-7e-3 0.373-0.17 0.373m0.048-2.162c-0.19 0.109-0.61-0.135-0.759-0.27-0.149-0.136-0.149-0.299-0.19-0.448-0.04-0.149-0.312-0.217-0.447-0.257-0.135-0.041-0.149-0.61-0.203-0.786s-0.163-0.325-0.095-0.325 0.353 0.352 0.433 0.433c0.082 0.082 0.258 0.082 0.475 0.339 0.216 0.258 0.189 0.366 0.325 0.542s0.231 0.122 0.352 0.217c0.122 0.095 0.234 0.484 0.109 0.555m2.221-0.975c-0.067 0-0.026-0.109-0.067-0.217s-0.176-0.163-0.108-0.257c0.067-0.095 0.677 0.013 0.759 0.026 0.08 0.014 0.189 0.204 0.026 0.19-0.162-0.013-0.094 0.082-0.271 0.109-0.176 0.027-0.175 0.149-0.339 0.149m-0.974 2.601c-0.11 0-0.055-0.067-0.136-0.122-0.081-0.054-0.055-0.379-0.014-0.447 0.04-0.067 0.515 0 0.461 0-0.055 0-0.041 0.244-0.122 0.258-0.082 0.014-0.082 0.311-0.189 0.311m1.368-1.206c-0.041-0.026 0.014-0.135 0-0.244-0.014-0.108-0.298-0.162-0.326-0.243-0.026-0.082 0.095-0.149 0.164-0.163 0.067-0.013 0.432 0.189 0.514 0.257 0.081 0.068 0.055 0.326-0.054 0.393-0.108 0.068-0.287 8e-3 -0.298 0m-0.272 1.965c-0.107-0.013-0.054-0.081-0.135-0.149s-0.176-0.068-0.149-0.216c0.028-0.15 0.136-0.312 0.122-0.502-0.014-0.189-0.094-0.352 0.19-0.366 0.284-0.013 0.176 0.474 0.149 0.61-0.027 0.135-0.055 0.639-0.177 0.623m2.44-0.203s-0.244-0.027-0.393-0.162c-0.149-0.136-0.407-0.529-0.488-0.597-0.082-0.068-0.338-0.257-0.325-0.338 0.013-0.082 0.095-0.285 0.243-0.258 0.15 0.027 0.218 0.325 0.462 0.555 0.243 0.231 0.23 0.434 0.352 0.502 0.121 0.068 0.136 0.298 0.149 0.298m-0.393-2.182c-0.244-0.013-0.176-0.135-0.339-0.284-0.162-0.149-0.244-0.312-0.257-0.569-0.014-0.257 0.095-0.393 0.244-0.38 0.149 0.014 0.135 0.204 0.406 0.353s0.244 0.311 0.231 0.569c-0.014 0.257-1e-3 0.327-0.285 0.311m2.182 0.542c-0.149 0.095-0.231-0.108-0.475-0.271-0.244-0.162-0.42-0.189-0.433-0.189-0.014 0 0.135-0.244 0.312-0.231 0.176 0.014 0.297 0.068 0.541 0.217s0.596 0.19 0.596 0.19-0.326 0.147-0.541 0.284m-0.488 1.952c-0.055 0.013-0.38-0.163-0.542-0.326-0.163-0.162-0.393-0.69-0.529-0.975-0.135-0.284-0.352-0.515-0.352-0.623 0-0.109 0.149-0.204 0.217-0.163s0.081 0.366 0.163 0.555c0.081 0.19 0.623 0.664 0.812 0.881 0.19 0.217 0.352 0.62 0.231 0.651m0.419 0.528c-0.148 0.014-0.135-0.013-0.257-0.108s0.109-0.217 0.149-0.231c0.041-0.013 0.082-0.325 0.149-0.338 0.068-0.014 0.041 0.081 0.122 0.122 0.082 0.04 0.38-0.055 0.393 0.054 0.014 0.108-0.189 0.23-0.366 0.311-0.176 0.082-0.054 0.178-0.19 0.19m4.473-1.748c-0.069-7e-3 -0.319-0.197-0.834-0.467-0.515-0.271-0.969-0.359-1.131-0.387-0.163-0.026 0.162-0.182 0.291-0.203 0.128-0.02 0.318 0.163 0.392 0.197 0.076 0.034 0.726 0.095 1.126 0.216 0.399 0.122 0.805 0.258 1.015 0.651 0 0-0.675 0.012-0.859-7e-3m4.755-3.008c-0.095 0.027-0.352 0.122-0.542 0.203-0.189 0.082-0.271 0.163-0.542 0.108-0.08-0.015 0.515-0.541 0.637-0.663s0.149-0.407 0.244-0.529 0.284-0.054 0.339-0.013c0.054 0.04-0.055 0.217-0.123 0.352-0.067 0.136 0.071 0.518-0.013 0.542m0.516-0.23c-0.028-0.054 0.013-0.502 0.04-0.556s0.379-0.027 0.447 0.027 0.136 0.339 0.095 0.407-0.532 0.225-0.582 0.122m-0.624 2.073c-0.027 0.027-0.285 0.027-0.569-0.014-0.284-0.04-0.434-0.216-0.434-0.216s0.244 0.013 0.421-0.041c0.176-0.054 0.243-0.231 0.392-0.203 0.149 0.027 0.267 0.397 0.19 0.474m2.073-0.434c-0.136-0.04-0.501-0.027-0.948 0.136-0.448 0.162-0.38 0.081-0.42-0.176-0.041-0.258 0.42-0.19 0.813-0.217 0.392-0.027 0.704-0.204 0.88-0.19s0.231 0.068 0.325 0.244c0.095 0.176 0.177 0.393 0.109 0.434-0.068 0.04-0.627-0.191-0.759-0.231m-14.309 4.553c-0.094-0.04-0.054-0.081-0.108-0.135-0.055-0.055-0.122-0.028-0.122-0.19 0-0.163 0.081-0.095 0.271-0.176 0.19-0.082 0.325-0.109 0.542 0.149 0.217 0.257 0.162 0.569 0.095 0.569-0.068 0-0.082-0.149-0.163-0.217-0.082-0.068-0.414 0.043-0.515 0m-7.17-27.767c0-0.043 0.035-0.077 0.078-0.077s0.078 0.034 0.078 0.077-0.035 0.078-0.078 0.078-0.078-0.035-0.078-0.078m0.775-0.214c0-0.043 0.035-0.079 0.079-0.079 0.045 0 0.08 0.036 0.08 0.079 0 0.044-0.035 0.08-0.08 0.08-0.044 0-0.079-0.036-0.079-0.08m-0.046 0.954c0-0.041 0.033-0.073 0.073-0.073 0.041 0 0.074 0.032 0.074 0.073s-0.033 0.074-0.074 0.074c-0.04 0-0.073-0.033-0.073-0.074m0.622-2.289c0-0.03 0.025-0.055 0.055-0.055 0.031 0 0.055 0.025 0.055 0.055 0 0.031-0.024 0.055-0.055 0.055-0.03 0-0.055-0.024-0.055-0.055m0.388-0.047c0-0.059 0.046-0.105 0.104-0.105 0.057 0 0.104 0.046 0.104 0.105 0 0.057-0.047 0.104-0.104 0.104-0.058 0-0.104-0.047-0.104-0.104m-1.439 1.225c0-0.048 0.039-0.086 0.086-0.086 0.048 0 0.087 0.038 0.087 0.086s-0.039 0.086-0.087 0.086c-0.047 0-0.086-0.038-0.086-0.086m1.283-1.76c0-0.057 0.047-0.104 0.105-0.104s0.104 0.047 0.104 0.104-0.046 0.105-0.104 0.105-0.105-0.048-0.105-0.105m-0.082 1.469c8e-3 -0.07-0.049-0.172-0.049-0.19 0 0 0.067-0.03 0.242 0.24 0.026 0.039 0.119 0.322 0.165 0.405 0.044 0.077 0.107 0.123 0.192 0.176 0.101 0.063 0.161 0.114 0.307 0.177 0.395 0.175-0.311-0.299-0.059-0.197 0.178 0.073 0.387 0.131 0.595 0.334 0.114 0.11 0.312 0.052 0.39 0.067 0.179 0.034 0.383 0.11 0.101-0.031 0.02-0.099-0.104-0.31-0.035-0.31 0.095 0 0.188 0.104 0.3 0.172s0.256 0.237 0.3 0.285c0.043 0.049 0.269 0.097 0.398 0.135 0.13 0.04 0.265 0.037 0.422 0.051 0.17 0.014 0.227 0.104 0.288 0.084 0.061-0.018 0.182 0.04 0.225 0.088 0.043 0.049-0.052 0.067-0.052 0.067s-0.025 0.029 9e-3 0.078c0.06 0.088-0.034 0.088-0.095 0.193-0.05 0.087-0.105 0.087-0.311 0.165-0.209 0.077-0.46 0.125-0.841 0.155-0.381 0.029-0.675-0.066-0.656-0.057 0.145 0.064 0.116 0.097-0.098 0.086-0.088-4e-3 -0.311 9e-3 -0.275-0.029 0.034-0.039 0.051-0.194-9e-3 -0.213-0.061-0.02-0.13-0.049-0.26-0.116-0.13-0.068-0.25-0.174-0.25-0.174s-0.044-0.029-0.139-0.039-0.199-0.049-0.286-0.116c-0.087-0.068 0.156-0.126 0.156-0.126s-0.078-0.097-0.173-0.203c-0.096-0.106-0.152-0.199-0.23-0.247-0.078-0.049-0.172-0.079-0.249-0.088-0.079-0.01-0.124-0.025-0.159-0.074-0.034-0.048 0.032-0.013 0.126-0.037 0.058-0.014-0.161-0.13-0.204-0.169-0.043-0.038-0.106-0.062-0.149-0.082-0.044-0.019-0.081-0.042-0.081-0.042s0.128-0.044 0.25-0.044c0.054 0 0.192-5e-3 0.202-0.052 0.011-0.054-0.031-0.124-8e-3 -0.322m4.262 0.407s-0.018-5e-3 -0.142-7e-3c-0.105-2e-3 -0.176 5e-3 -0.241 0.02-0.131 0.032-0.274 0.073-0.442 0.14-0.072 0.03-0.192 0.172-0.182 0.082 0.012-0.108 0.09-0.271 0.168-0.304 0.079-0.033 0.079-0.027 0.079-0.027s-0.036-0.02-0.096-0.062c-0.171-0.121-0.306-0.173-0.331-0.199 0.144-0.05 0.24-0.039 0.321-0.032 0.121 0.01 0.23 0.043 0.282 0.03 0.052-0.015 0.133 0.024 0.231 0 0.099-0.025 0.304-0.081 0.501-0.154 0.198-0.073 0.764-0.147 0.764-0.147s-0.523-0.06-0.956 0.143c-0.022 0.01-0.089-0.033-0.114-0.041-0.026-7e-3 -0.041-0.023-0.041-0.023s0.09-0.02 0.07-0.022c-0.02-3e-3 -0.045-0.01-0.045-0.01s0.102-0.024 0.068-0.031c-0.032-6e-3 -0.055 2e-3 -0.039-0.015 0.017-0.016 0.072-0.055 0.122-0.075s0.143-0.039 0.221-0.037c0.076 1e-3 0.223 0 0.344 0.01 0.122 0.012 0.221 0.035 0.312 0.045s0.132 0.037 0.212 0.021c0.08-0.018 0.106-0.035 0.229-0.053l0.268-0.038s-0.103-0.016-0.145-0.035c-0.04-0.019-0.101 0.02-0.101 0.02l-0.074-0.039s3e-3 -0.011-0.05-0.035c-0.052-0.025-0.151-0.062-0.194-0.088-0.041-0.028-0.099-0.057-0.133-0.086-0.033-0.03-0.045-0.04 3e-3 -0.025 0.049 0.015 0.063 0.016 0.09 0.023 0.028 8e-3 0.121 0.027 0.159 0.035 0.037 7e-3 0.285 0.08 0.285 0.08l-0.11-0.069s-0.103-0.07-0.208-0.109c-0.104-0.039-0.18-0.094-0.231-0.099-0.051-6e-3 -0.045-0.017 0.025-0.017 0.069 0 0.121 0.039 0.146 0.027 0.026-0.013 0.085 1e-3 0.119 0.015 0.092 0.038 0.195 0.082 0.256 0.104s0.161 0.074 0.285 0.142c0.123 0.069 0.194 0.074 0.232 0.11 0.038 0.034 0.069 0.046 0.102 0.05 0.208 0.031-2e-3 0.158 0.042 0.135 0.045-0.024 0.157-0.098 0.186-0.091 0.03 7e-3 0.04 0.011 0.059 0.013 0.02 3e-3 0.091 9e-3 0.122 0.015 0.03 7e-3 0.093 0.025 0.206 0.055 0.113 0.031 0.264 0.095 0.301 0.135 0.038 0.04-0.109 7e-3 -0.11 0.04-2e-3 0.033 0.091 0.04 0.091 0.04s-0.057 0.107-0.112 0.165c-0.057 0.059-0.163 0.136-0.285 0.202-0.123 0.065-0.258 0.133-0.351 0.171-0.067 0.027-0.206 0.055-0.278 0.069 0.057-7e-3 0.132-2e-3 -3e-3 0.113-0.082 0.068-0.162 0.143-0.24 0.136s-0.165-0.03-0.2-0.041l-0.149-0.047c-0.034-0.011-0.093-0.02-0.129-0.035-0.033-0.014-0.087-0.029-0.116-0.025-0.029 3e-3 -0.102-4e-3 -0.14-5e-3 -0.038-2e-3 -0.108 2e-3 -0.152 2e-3 -0.044-1e-3 -0.12-7e-3 -0.183-0.01-0.062-3e-3 -0.115 3e-3 -0.173 4e-3 -0.057 1e-3 -0.155 0.021-0.206 0.027-0.052 5e-3 -0.127 0.027-0.189 0.024-0.063-3e-3 -0.083-0.02-0.113-0.026-0.03-7e-3 -0.05-0.024-0.078-0.054-0.023 3e-3 -0.035-0.011-4e-3 -0.038v-0.053l0.04-0.066s0.044-0.083 0.3 0.035c0.256 0.117 0.737 0.085 0.737 0.085s-0.312 5e-3 -0.518-0.06c-0.173-0.054-0.374-0.133-0.374-0.133m13.226 29.574c0.13 0.083 0.356 0.129 0.39 0.047 7e-3 -0.019 0.017-0.034 0.027-0.047 0.077-0.093 0.208-0.02 0.244-0.116 0.04-0.108 0.146-0.158 0.244-0.149 0.149 0.014 0.054 0.176 0.257 0.136 0.112-0.023 0.093 0.057 0.075 0.129-0.014 0.059-0.027 0.113 0.034 0.101 0.135-0.027 0.189 0.204 0.325 0.068 0.07-0.07 0.119-0.119 0.153-0.169 0.031-0.045 0.05-0.091 0.063-0.156 0.027-0.136 0.041-0.244 0.244-0.23 0.204 0.013 0.15 0.121 0.312 0.121 0.163 0 0.447 0.109 0.569-0.081s-0.081-0.42 0.081-0.447c0.163-0.028 0.204-0.041 0.204-0.163s0.786-0.027 0.853-0.067c0.068-0.041 0.014-0.122 0.136-0.122 0.121 0 0.271 0.244 0.501 0.23s0.204-0.271 0.299-0.447c0.094-0.176 0.067-0.298 0.311-0.285 0.244 0.014 0.19-0.122 0.353-0.122 0.162 0 0.622 0.014 0.745-0.081 0.122-0.095 0.081-0.312 0.027-0.393-0.054-0.079-0.183-0.094-0.19-0.234 0-0.159-0.122-0.389 0.014-0.403 0.135-0.013 0.108-0.257 0.271-0.284 0.162-0.028-0.028-0.109-0.041-0.258-0.014-0.149 0.041-0.23 0.149-0.325s0.231-0.081 0.203-0.19c-0.027-0.108-0.189-0.108-0.163-0.257 0.028-0.149 0.15-0.108 0.231-0.108s-0.014-0.082 0.108-0.096c0.123-0.013 0.163-0.216 0.095-0.284-0.067-0.068-0.325-0.081-0.339-0.149-0.013-0.068-0.149-0.122-0.271-0.095-0.121 0.027-0.338 0.149-0.447 0.122-0.108-0.027 0.058-0.405-0.054-0.461-0.162-0.081-0.176-0.189-0.38-0.176-0.203 0.014-0.23 0.055-0.352 0.163s-0.325 0.149-0.528 0.149c-0.204 0-0.461-0.068-0.461-0.163 0-0.094 0.345-0.082 0.393-0.149 0.135-0.19 0.081-0.284-0.027-0.366-0.109-0.081-0.163-0.243-0.027-0.325 0.135-0.081 0.325 0.109 0.569 0.163s0.406 0.081 0.569-0.054c0.162-0.136 0.217-0.434 0.136-0.488-0.081-0.055-0.299-0.325-0.136-0.379 0.162-0.055 0.352 0.243 0.515 0.243s0.38-0.243 0.461-0.243 0.433 0.433 0.786 0.352c0.352-0.082 0.298-0.163 0.325-0.352 0.027-0.19-0.081-0.407 0.135-0.516l0.047-0.025c0.207-0.121 0.441-0.361 0.441-0.462 0-0.109-0.19-0.353-0.325-0.38-0.136-0.027-0.434-0.108-0.406-0.244 0.027-0.135 0.189-0.243 0.46-0.217 0.271 0.028 0.597-0.026 0.732-0.108 0.135-0.081 0.353-0.325 0.244-0.461-0.109-0.135-0.515-0.487-0.515-0.65s0.325-0.433 0.054-0.732c-0.271-0.298-0.244 0.054-0.542 0.054s-0.597 0.055-0.623-0.054c-0.027-0.108 0.162-0.352-0.027-0.515-0.19-0.162-0.353-0.108-0.542-0.244-0.19-0.135 0.081-0.298-0.108-0.379-0.191-0.081-0.542-0.244-0.787-0.081-0.243 0.162-0.27 0.569-0.569 0.569-0.04 0-0.298-0.433-0.135-0.515 0.162-0.081 0.143-0.316-0.027-0.379-0.515-0.19-0.623 0.081-1.084 0.054-0.461-0.028-0.217-0.108-0.624-0.108-0.406 0-1.002 0.433-1.328 0.541-0.325 0.109-1.278-0.069-1.924 0.136-0.695 0.22-1.411 0.672-1.85 0.877-0.263 0.123-0.426 0.071-0.426 0.071s0.14-0.325 0.108-0.596c-0.054-0.461-0.515-1.057-0.515-1.057s0.244 0.623 0.217 0.922c-0.027 0.298-0.135 0.433-0.135 0.433s-0.299 0.082-0.299 0.163 0.163 0.162 0.082 0.542c-0.082 0.38-0.732 1.762-1.355 1.68-0.624-0.081-1.436-0.569-1.653-0.894s-0.136-0.488-0.353-0.596c-0.216-0.109-0.65-0.109-0.65-0.109s0.244 0.136 0.406 0.352c0.163 0.217 0.136 0.461 0.217 0.57 0.082 0.108 0.312 0.284 0.285 0.474-0.027 0.189-0.23 0.339-0.393 0.42s-0.325 0.19-0.434 0.163c-0.108-0.028-0.596-0.651-0.84-0.759-0.244-0.109-1.707 0-2.141-0.163-0.433-0.163-1.437-0.551-1.897-0.705-0.731-0.243-1.436-1.016-1.842-1.314-0.407-0.298-1.057-0.501-1.274-0.881-0.048-0.083-0.088-0.214-0.122-0.372-0.124-0.558-0.18-1.448-0.285-1.741-0.352-0.99-3.898-2.602-3.956-4.255-0.018-0.492 0.542-1.165 0.867-1.816 0.325-0.65 0.483-1.06 0.651-1.274 0.297-0.379 0.568-0.243 0.758-0.379 0.074-0.053 0.078-0.229 0.055-0.444-0.035-0.336-0.136-0.767-0.136-0.965 0-0.325 0.108-0.298 0.108-0.298s-0.122-0.881 0.122-1.179 0.583-0.352 0.583-0.352l-0.054 0.203s0.095-0.095 0.23-0.149c0.136-0.054 0.271-0.068 0.271-0.068s-0.176 0.461 0 0.434 0.338-0.244 0.583-0.325c0.243-0.082 0.379-0.014 0.393-0.014 0.013 0 0.23-0.041 0.568-0.041 0.339 0 0.367 0.082 0.38 0.109 0.014 0.027-0.488 0.393-0.298 0.555 0.19 0.163 0.502-0.076 0.799-0.067 0.461 0.013 0.759 0.758 1.451 0.772 0.69 0.014 0.866-0.61 0.866-0.61s0.285 0.217 0.299 0.393c0.012 0.165-0.149 0.281-0.068 0.325 0.144 0.08 0.514-0.458 0.582-0.447 0.082 0.014 0.136 0.339 0.136 0.339s0.352 0.04 0.637-0.108c0.285-0.15 0.542-0.434 0.8-0.651 0.256-0.216 0.542-0.216 0.542-0.216s-0.082 0.203-0.028 0.338c0.054 0.136 0.204 0.19 0.204 0.19s0.041-0.298 0.271-0.42 0.419-0.122 0.419-0.122-0.067 0.312-0.013 0.393c0.082 0.121 0.203 0.216 0.203 0.216s0.185-0.162 0.483-0.27c0.471-0.171 1.212-0.465 1.279-1.26 0.108-1.301-0.285-1.234-0.258-2.209 0.028-0.981 0.136-1.315 0.515-1.775 0.379-0.461 0.759-0.895 0.84-1.356 0.045-0.252 0.065-0.612 0.074-0.884-1.499 0.159-3.177-6e-3 -4.053-0.109-0.393-0.046-0.31-0.208-2.349-0.208-0.269 0-1.658 0.155-1.926 0.155-0.738 0-0.799-0.048-1.537-0.048-0.269 0-0.416 0.094-0.684 0.094-0.842 0-1.906-0.165-2.745-0.273h-0.376c-0.034 0.013-0.066 0.022-0.097 0.023-0.429 0.017-0.958 0.197-0.913 0.554 0.055 0.432 0.601 0.115 0.601 0.276 0 0.107-0.401 0.113-0.401 0.113s-0.231-0.077 0 0.1c0.264 0.2 0.378 0.149 0.364 0.238-0.038 0.238-0.568-0.216-0.489-0.088 0.131 0.211 0.213 0.376 0.341 0.541 0.184 0.238 0 0.25-0.074 0.131s-0.363-0.42-0.252-0.192c0.074 0.151 0.057 0.239-0.111 0.02-0.158-0.205-0.125-0.069-0.102 0.048s0.101 0.288 0.183 0.41c0.137 0.203-0.074 0.226-0.098 0.119-0.013-0.054-0.067-0.104-0.136-0.177 0.011 0.049 0.017 0.098 0.017 0.145 0 0.128-0.078 0.19-0.163 0.116 4e-3 -0.137-0.045-0.431-0.143-0.665-0.016-0.038-0.097-0.177-0.091-0.219-0.133-0.248-0.254-0.459-0.325-0.648-0.095-0.255-0.78-0.794-1.433-0.845h-0.063c-0.329 0.104 1.332 0.695-0.283 0.46-0.239-0.036-0.238-0.293-1.198-0.347-0.763-0.042-0.895 0.33-1.136 0.213-0.096-0.046-0.852-0.117-1.396-0.2-1.747-0.269-1.734 0.053-2.23 0.053-1.141 0-1.423-0.161-2.564-0.161-1.851 0-1.463 0.316-3.315 0.316h-1.711c-0.791 0-0.758-0.262-1.55-0.262-0.417 0-0.804 0.111-1.143 0.249 0.246 1.586 0.798 1.251 0.798 1.251s0.176 0.772 0.067 1.111c-0.141 0.441-0.145 0.534 0.014 0.569 0.244 0.054 0.569-0.38 0.569-0.38s0.132 0.422 0.239 1.086c0.194 1.21 0.898 2.789 2.525 2.817 1.545 0.027 1.675-0.425 3.225-0.895 2.548-0.772 2.981-0.589 2.981-0.589l-0.176-0.217c0.42 0.041 0.773 0.305 0.786 0.305s-0.034-0.271-0.258-0.453c-0.224-0.185-0.542-0.292-0.528-0.292 0.556-0.027 1.125 0.217 1.125 0.217s0.016-0.11-0.014-0.19c-0.032-0.085-0.108-0.156-0.108-0.156s0.386 0.027 0.731 0.211c0.345 0.182 0.522 0.271 0.576 0.23 0.055-0.041 0.014-0.176-0.04-0.258-0.055-0.081-0.129-0.183-0.122-0.183s0.447 0.175 0.751 0.427c0.312 0.257 0.607 0.468 0.868 0.502 0.528 0.067 0.893 0.119 1.233 0.406 0.515 0.433 0.554 1.187 0.705 1.572 0.216 0.555 0.501 0.61 0.515 0.948 0.013 0.339-0.217 0.474-0.366 0.474s-0.488-0.135-0.584-0.067c-0.094 0.067-0.094 0.406 0.015 0.461 0.108 0.054 0.542 0 0.718 0s0.244 0.06 0.23 0.155c-0.023 0.152 0.014 0.336 0.051 0.525 0.029 0.149 0.057 0.301 0.057 0.444 0 0.325-0.067 0.488-0.176 0.691-0.108 0.203-0.379 0.325-0.379 0.325s0.122 0.759-0.081 1.044c-0.204 0.284-0.455 0.44-0.455 0.44s-0.277 1.064-0.765 0.976c-0.414-0.075-0.488-0.292-0.881-0.102s-0.718 0.996-0.731 1.172c-0.014 0.177 0.379 0.562 0.095 0.562-0.286 0-0.231-0.216-0.231-0.311s-0.014-0.447-0.447-0.447c-0.434 0-0.481 0.256-0.488 0.379-0.014 0.231 0.461 0.488 0.271 0.583s-0.38-0.088-0.474-0.177c-0.094-0.086-0.082-0.243-0.258-0.243s-0.216 0.108-0.216 0.176c0 0.176 0.093 0.333 0.42 0.542 0.528 0.339 2.615 0.189 2.615 0.623 0 0.285-0.447 0.366-0.447 0.772 0 0.407 0.149 0.298 0.135 0.569-0.014 0.272-0.19 0.542-0.42 0.461s-0.284 0.068-0.325 0.136c-0.041 0.067-0.12 0.395-0.38 0.244-0.321-0.187-0.717 0.514-1.253 1.05-0.38 0.379-0.779 0.887-1.701 1.484-0.921 0.596-2.438 0.975-2.926 1.138-0.488 0.162-0.922 0.65-1.356 0.813-0.433 0.162-0.217 0.487-0.378 0.813-0.163 0.325-0.558 0.381-1.208 0.706-0.161 0.072-0.319 0.125-0.459 0.148-1.261 0.203-1.422 0.625-1.613 0.609-0.162-0.014-0.19-0.311-0.352-0.298-0.162 0.014-0.502 0.163-0.759 0.23-0.257 0.068-0.637 0.136-0.663 0.068-0.028-0.068 0.189-0.325 0.108-0.461-0.082-0.135-0.976 0-1.003-0.162-0.013-0.076 0.051-0.077 0.091-0.107 0.052-0.064 0.061-0.12 0.044-0.205-0.04-0.203-0.274-0.258-0.325-0.352-0.084-0.157 0.217 0.047 0.217-0.149 0-0.271-0.503-0.677-0.542-0.745-0.054-0.095 0.068-0.529-0.149-0.84-0.217-0.312-1.951-2.155-2.656-2.48-0.178-0.083-0.373-0.151-0.573-0.21-0.588-0.174-1.224-0.265-1.649-0.386-0.569-0.163-1.138-0.461-1.491-0.461-0.191 0-0.38 0.052-0.452 0.142-0.061 0.076-7e-3 0.187-0.117 0.237-0.203 0.093-0.183 0.307-0.164 0.468 0.013 0.097 0.025 0.175-0.012 0.196-0.095 0.054-0.312 0.027-0.312 0.15 0 0.121 0.245 0.162 0.231 0.284s-0.352 0.149-0.352 0.366c0 0.216 0.366 0.176 0.325 0.284-0.039 0.103-0.299-0.04-0.366 0.014-0.068 0.054-0.041 0.244-0.19 0.203-0.131-0.036-9e-3 -0.225-0.095-0.298-0.095-0.081-0.325-0.014-0.325-0.014s-0.041-0.162-0.393-0.135-0.461 0.081-0.569 0.054-0.162-0.217-0.298-0.135c-0.135 0.081-0.163 0.325-0.163 0.325s-0.189 0-0.135 0.244 0.325 0.596 0.244 0.705c-0.081 0.108-0.231-0.041-0.38 0.054-0.133 0.084-0.081 0.27-0.081 0.27s-0.184 0.041-0.19 0.244c-9e-3 0.313 0.34 0.285 0.34 0.394 0 0.108-0.34 0.27-0.326 0.528 0.014 0.257 0.569 0.366 0.569 0.366s-0.108 0.379 0.163 0.569c0.271 0.189 0.433 0.136 0.46 0.23 4e-3 0.015 0 0.034-9e-3 0.056-0.046 0.121-0.235 0.339-0.018 0.5 0.257 0.189 1.125-0.163 1.22-0.054 0.095 0.108-0.15 0.406 0.122 0.406 0.271 0 0.515-0.109 0.718-0.095s0.379 0.027 0.678 0.014c0.297-0.014 0.324-0.082 0.473-0.217 0.15-0.136 0.082-0.285 0.271-0.339 0.19-0.054 0.285 0.231 0.475 0.298 0.189 0.068 0.339-0.027 0.419 0.028 0.082 0.054-0.094 0.433-0.067 0.596 0.027 0.162 0.149 0.473-0.013 0.65-0.163 0.176-0.475-0.054-0.556-0.027-0.082 0.027-0.229 0.298-0.244 0.42-0.04 0.325 0.122 0.176 0.136 0.176 0.013 0-0.028 0.145 0.162 0.285 0.203 0.149 0.027 0.311 0.298 0.311s0.109-0.135 0.217-0.122c0.108 0.014 0.095 0.068 0.163 0.109s0.149-0.068 0.23-0.014c0.081 0.055-0.095 0.312 0.027 0.407s0.326 0.149 0.638 0.149c0.311 0 0.23-0.082 0.406-0.122 0.176-0.041 0.46 0.108 0.46 0.176s-0.23 0-0.325 0.068-0.257 0.216-0.42 0.216c-0.162 0-0.258-0.254-0.569-0.053-0.19 0.121-0.041 0.284-0.122 0.352-0.081 0.067-0.664-0.068-0.853 0.067-0.19 0.136-0.434 0.407-0.326 0.556 0.05 0.068 0.148 0.145 0.239 0.213 0.108 0.081 0.208 0.151 0.208 0.18 0 0.054-0.203 0.244-0.108 0.447 0.094 0.203 0.176 0.19 0.176 0.19s-0.041 0.271 0.041 0.379c0.081 0.108 0.176 0.122 0.202 0.203 0.028 0.082-0.094 0.528 0.096 0.583 0.19 0.054 0.42 0.217 0.691 0.23 0.271 0.014 0.176-0.121 0.298-0.121 0.102 0 0.109 0.272 0.172 0.386 0.012 0.023 0.027 0.04 0.045 0.047 0.18 0.07 0.529 0.014 0.815-0.047 0.101-0.021 0.194-0.044 0.269-0.061 0.12-0.029 0.197 8e-3 0.258 0.061 0.082 0.073 0.136 0.175 0.23 0.182 0.162 0.014 0.094-0.121 0.216-0.121s0.163 0.149 0.271 0.203 0.217-0.014 0.285 0.054c0.068 0.067 0 0.542 0.122 0.664s0.352 0.054 0.528-0.095c0.177-0.149 0.312-0.502 0.474-0.502 0.163 0 0.095 0.204 0.245 0.217 0.148 0.014 0.392-0.081 0.569 0.068 0.176 0.15-0.055 0.244-0.068 0.475-0.014 0.23 0.095 0.27 0.257 0.42 0.163 0.149 0.177 0.23 0.394 0.23 0.297 0 0.256-0.244 0.392-0.244 0.135 0 0.135 0.542 0.285 0.651 0.149 0.108 0.433 0.176 0.569 0.013 0.135-0.163-0.014-0.624 0.162-0.745 0.176-0.123 0.393-0.176 0.447-0.095 0.055 0.081-0.067 0.176 0.068 0.23 0.136 0.054 0.461 0.122 0.637-0.04 0.177-0.163-0.013-0.244 0.149-0.298 0.163-0.055 0 0.609 0.136 0.718 0.135 0.108 0.474 0.189 0.704 0.094 0.23-0.094 0.271-0.298 0.488-0.352s0.321-0.146 0.407-0.19c0.162-0.081 0.04-0.23 0.108-0.27 0.068-0.041 0.176 0.027 0.271-0.109 0.095-0.135-0.054-0.623 0.054-0.664s0.177 0.014 0.285-0.054 0.325-0.258 0.46-0.163c0.136 0.095-0.095 0.122-0.095 0.339s0.014 0.312 0.176 0.42c0.163 0.109 0.285 0.163 0.462 0.041 0.176-0.122 0.325-0.231 0.325-0.285s-0.028-0.23 0.067-0.203 0.19 0.149 0.339 0.149 0.393-0.189 0.393 0.298c0 0.488-0.366 0.258-0.556 0.488-0.189 0.231-0.203 0.447-0.095 0.447 0.217 0 0.407 0.149-0.081 0.149-0.475 0-0.338 0-0.42 0.082-0.081 0.081-0.067 0.244-0.067 0.244s-0.09-0.013-0.182 0.032c-0.041 0.02-0.083 0.052-0.117 0.103-0.108 0.162 0.055 0.257 0.109 0.325s-0.068 0.203 0 0.271 0.352-0.068 0.42 0.014c0.067 0.081-0.081 0.555 0 0.65s0.379 0.041 0.433 0.108c0.055 0.068-0.148 0.488 0.15 0.651 0.298 0.162 0.501-0.082 0.501-0.082s0.447-0.135 0.623-0.054c0.189 0.087-0.05 0.329 0.069 0.491 0.01 0.013 0.024 0.026 0.039 0.038 0.171 0.121 0.232 0.079 0.439-0.038l0.077-0.044c0.271-0.149 0.051-0.523 0.162-0.528 0.312-0.013 0.109 0.095 0.217 0.203 0.109 0.108 0.176 0.122 0.298 0.244s0.23 0.095 0.23 0.108c0.034 0.051 0.047 0.132-0.067 0.217-0.055 0.041-0.095 0.691-0.014 0.732s0.352 0.054 0.461-0.014c0.108-0.067 0.176-0.243 0.244-0.189s0.257 0.203 0.257 0.42 0.027 0.339 0.231 0.352c0.203 0.014 0.406 0.041 0.501-0.027s-0.055-0.189 0.095-0.258c0.149-0.067 0.175 0.014 0.311-0.026 0.136-0.041 0.095-0.231 0.19-0.231s0.121 0.293 0.19 0.298c0.163 0.014-0.028 0.271 0.23 0.244s0.298-0.176 0.298-0.271-0.04-0.176 0.095-0.189c0.136-0.014 0.067 0.116 0.325 0.135 0.366 0.027 0.19-0.217 0.407-0.23 0.216-0.014 0.244 0.122 0.392 0.203 0.149 0.081 0.38 0 0.394 0 0.013 0 0.135 0.366 0.42 0.257 0.285-0.108 0.027-0.216 0.203-0.23s0.217 0.149 0.163 0.23c-0.055 0.082-0.096 0.176-0.096 0.38 0 0.203 0.204 0.284 0.204 0.284s-0.027 0.244 0.095 0.271 0.393 0.095 0.447 0c0.054-0.094 0.163-0.352 0.271-0.406 0.109-0.054 0.23 0.339 0.474 0.312 0.244-0.028 0.285-0.19 0.312-0.271 0.026-0.082-0.027-0.299 0.095-0.272 0.122 0.028 0.257 0.122 0.257 0.19s-0.126 0.096-0.108 0.217c0.041 0.285 0.285 0.257 0.285 0.257s-0.055 0.109 0.202 0.109c0.258 0 0.34 0.054 0.407-0.122 0.068-0.176 0.081-0.339-0.013-0.379-0.095-0.041-0.136-0.15-0.136-0.15s0.298-0.054 0.393 0.068 0.271 0.246 0.379 0.258c0.258 0.027 0.19-0.448 0.244-0.516 0.055-0.067 0.231-0.23 0.393-0.243 0.163-0.014 0.298-0.068 0.352-0.231 0.055-0.162 0.041-0.338 0.177-0.447 0.135-0.108 0.306 3e-3 0.339-0.095 0.027-0.081 0.189-0.054 0.23-0.216 0.04-0.163 0.135-0.244 0.258-0.339 0.021-0.017 0.058-0.041 0.08-0.065 0.07-0.106 0.173-0.233 0.189 0 0.015 0.35 0.15 0.444 0.421 0.417s0.245-0.135 0.406-0.135c0.154 0 0.03-0.254 0.175-0.282h0.056c0.157 0.03 0.114 0.322 0.217 0.322 0.108 0 0 0.488 0.163 0.529 0.162 0.04 0.392-0.082 0.433 0 0.041 0.081-0.106 0.178 0.054 0.217 0.284 0.067 0.299-0.082 0.407-0.095 0.108-0.014 0.135 0.312 0.433 0.312s0.271-0.231 0.353-0.367c0.081-0.135 0.19-0.406 0.297-0.406 0.11 0 0.082 0.325 0.19 0.325 0.109 0 0.231 0.014 0.352-0.108 0.123-0.122 0.245-0.312 0.408-0.407 0.162-0.095 0.677 0.014 0.812-0.013 0.136-0.027 0.027-0.176 0.136-0.204 0.049-0.012 0.053-0.058 0.052-0.105 0-0.058-9e-3 -0.118 0.043-0.125 0.094-0.013-0.041-0.555 0.067-0.555 0.109 0 0.068-0.299 0.163-0.285s0.068-0.461-0.013-0.461c-0.082 0-0.258-0.135-0.434-0.108s-0.108-0.135-0.217-0.108c-0.108 0.027-0.353-0.149-0.203-0.204 0.149-0.054 0.826 0.068 0.84-0.013 0.014-0.082 0-0.231 0.122-0.285s0.081-0.149 0.189-0.149c0.109 0 0.082 0.203 0.204 0.203s0.068 0.109 0.366 0.122c0.298 0.014 0.257-0.23 0.42-0.217 0.162 0.014 0.095 0.082 0.392 0.109 0.299 0.027 0.123-0.095 0.163-0.203 0.024-0.063 0.052-0.144 0.089-0.198 0.029-0.04 0.061-0.066 0.101-0.06 0.033 5e-3 0.06 0.027 0.087 0.06 0.051 0.062 0.099 0.163 0.17 0.252 0.109 0.135 0.231 0.217 0.217 0.298-0.013 0.081-0.176 0.393-0.095 0.474 0.082 0.082 0.532 0.072 0.61-0.014 0.195-0.212 0.405-0.162 0.434-0.27 0.04-0.149-0.054-0.475 0.027-0.556s0.189 0 0.284 0.095-0.013 0.23 0.095 0.23c0.109 0 0.366 0.027 0.421-0.067 0.031-0.055 0.012-0.268 0.012-0.442 0-0.126 9e-3 -0.233 0.055-0.249 0.109-0.041 0.312-0.082 0.352-0.014 0.029 0.049 3e-3 0.182 0.021 0.263 7e-3 0.031 0.021 0.054 0.047 0.062 0.095 0.027 0.124 0.083 0.42 0.122 0.243 0.032 0.398-0.084 0.484-0.184 0.059-0.068 0.085-0.127 0.085-0.127s0.285 0.108 0.596 0.095c0.312-0.014 0.312-0.217 0.501-0.299 0.191-0.081 0.245 0.027 0.312 0.136 0.068 0.108 0.033 0.224 0.217 0.176 0.258-0.068 0.515 0.108 0.542-0.149 0.028-0.258-0.041-0.502 0.014-0.515 0.054-0.014 0.162 0.027 0.285 0.136 0.121 0.108 0.419 0.121 0.595 0 0.176-0.123 0.204-0.244 0.191-0.407-0.015-0.163-0.136-0.284-0.109-0.353 0.027-0.067 0.217-0.175 0.38-0.284 0.162-0.108 0.339-0.137 0.379-0.393 0.054-0.352-0.231-0.149-0.217-0.284 6e-3 -0.066 0.016-0.145 0.017-0.21 1e-3 -0.069-0.01-0.122-0.044-0.129-0.068-0.014-0.196-0.014-0.204-0.095-0.013-0.136 0.069-0.285 0.014-0.352-0.054-0.068-0.325-0.176-0.231-0.231 0.095-0.054 0.34 0.082 0.353-0.014 0.014-0.094 0.04-0.297-0.028-0.297-0.23 0-0.365-0.244-0.216-0.244s0.122 0 0.122-0.136c0-0.135-0.04-0.325 0.176-0.311 0.217 0.013 0.502 0.162 0.488 0.298-0.014 0.135-0.216 0.122-0.23 0.176s0 0.284 0.067 0.42c0.068 0.135 0.298 0.298 0.489 0.325 0.189 0.027 0.352 0.136 0.338 0.244s-0.054 0.23 0.068 0.325zm-19.759-2.541h-0.041c-0.122-0.054 0.014-0.379 0.082-0.556 0.067-0.176 0.243-0.189 0.243-0.189s0.204-0.461 0.542-0.569c0.119-0.038 0.271 0.067 0.38 0.284 0.108 0.217-0.176 0.502-0.339 0.664-0.23 0.231-0.399 1e-3 -0.407 0.203-7e-3 0.19-0.311 0.244-0.46 0.163m-3.993-6.01c-0.487 0.041-0.271-0.23-0.596-0.325s-0.393-0.136-0.379-0.338c0.013-0.204 0.176-0.461 0.325-0.57 0.149-0.108 0.312-0.284 0.46-0.406 0.15-0.122 0.529 0 0.705 0.067 0.177 0.068 0.122 0.136 0.19 0.122 0.068-0.013 0.068-0.067 0.081-0.203 0.013-0.135-0.149-0.23-0.122-0.38 0.028-0.148-0.054-0.284 0.163-0.501 0.217-0.216 0.379-0.365 0.569-0.447 0.19-0.081 0.42-0.515 0.596-0.596s0.23 0.013 0.095 0.108c-0.136 0.095 0.013 0.326-0.082 0.448-0.094 0.122-0.121 0.379-0.148 0.541-0.028 0.163-0.163 0.57-0.271 0.719-0.109 0.149-0.014 0.42-0.054 0.569-0.041 0.149-0.244 0.068-0.353 0.298-0.108 0.231-0.393 0.135-0.515 0.366-0.121 0.23-0.326 0.5-0.664 0.528"
             fill="#100f0d"
             fill-rule="evenodd"
             id="path7" />
        </g>
        <g
           transform="translate(41.459 722.24)"
           id="g13">
          <path
             d="m0 0c1.501 0 2.644-0.735 2.644-2.041 0-1.341-1.235-2.192-2.54-2.192-0.289 0-0.577 0.034-0.843 0.163 0.993 0.058 2.067 0.676 2.067 1.796 0 1.026-0.716 1.435-1.64 1.435-0.277 0-0.542-0.024-0.808-0.071v-5.259c0-0.654-0.011-1.12 0.6-1.47v-0.035h-2.297v0.035c0.589 0.21 0.519 1.073 0.519 1.598v4.397c0 0.525 0.07 1.376-0.508 1.609v0.035z"
             fill="#100f0d"
             id="path11" />
        </g>
        <g
           transform="translate(44.663 719.07)"
           id="g17">
          <path
             d="m0 0c0 0.401 0.06 1.036-0.379 1.201v0.027h1.637v-0.027c-0.431-0.165-0.379-0.809-0.379-1.201v-3.282c0-0.392-0.052-1.028 0.379-1.193v-0.026h-1.637v0.026c0.431 0.157 0.379 0.801 0.379 1.193z"
             fill="#100f0d"
             id="path15" />
        </g>
        <g
           transform="translate(48.55 715.7)"
           id="g21">
          <path
             d="m0 0c0-0.496-9e-3 -0.836 0.448-1.106v-0.026h-1.706v0.026c0.431 0.166 0.379 0.801 0.379 1.193v3.883h-0.759c-0.37 0-0.758-0.096-1.025-0.348h-0.026l0.301 1.036h0.026c0.104-0.044 0.216-0.044 0.328-0.061h3.43c0.147 0 0.285 9e-3 0.397 0.061h0.026l-0.276-1.036h-0.026c-0.112 0.304-0.457 0.348-0.741 0.348h-0.776z"
             fill="#100f0d"
             id="path19" />
        </g>
        <g
           transform="translate(53.248 715.7)"
           id="g25">
          <path
             d="m0 0c0-0.496-9e-3 -0.836 0.448-1.106v-0.026h-1.706v0.026c0.43 0.166 0.379 0.801 0.379 1.193v3.883h-0.759c-0.37 0-0.758-0.096-1.025-0.348h-0.026l0.301 1.036h0.026c0.104-0.044 0.216-0.044 0.328-0.061h3.43c0.147 0 0.285 9e-3 0.397 0.061h0.026l-0.276-1.036h-0.026c-0.112 0.304-0.457 0.348-0.741 0.348h-0.776z"
             fill="#100f0d"
             id="path23" />
        </g>
        <g
           transform="translate(58.532 719.36)"
           id="g29">
          <path
             d="m0 0c-0.336 0.355-0.871 0.56-1.353 0.56-0.491 0-1.112-0.196-1.112-0.809 0-1.216 2.965-1.198 2.965-2.841 0-0.951-0.965-1.839-2.31-1.839-0.526 0-1.052 0.08-1.543 0.267l-0.25 1.11c0.509-0.453 1.215-0.737 1.888-0.737 0.491 0 1.232 0.302 1.232 0.923 0 1.386-2.965 1.137-2.965 3.02 0 1.119 1.112 1.545 2.164 1.545 0.431 0 0.87-0.062 1.284-0.196z"
             fill="#100f0d"
             id="path27" />
        </g>
        <g
           transform="translate(60.747 717.99)"
           id="g33">
          <path
             d="m0 0v1.706l0.578 0.061c0.517 0.053 1.068-0.261 1.068-0.862 0-0.713-0.801-0.905-1.362-0.905zm-0.879-2.194c0-0.401 0.052-1.036-0.379-1.202v-0.026h1.422c0.646 0 1.327-0.026 1.931 0.27 0.577 0.279 1.034 0.853 1.034 1.524 0 0.853-0.629 1.375-1.405 1.541 0.491 0.217 0.862 0.548 0.862 1.132 0 0.775-0.664 1.262-1.802 1.262h-2.042v-0.026c0.439-0.165 0.379-0.801 0.379-1.193zm0.879-0.531v2.15l0.603 0.035c0.759 0.044 1.569-0.322 1.569-1.166 0-0.828-0.715-1.158-1.422-1.089z"
             fill="#100f0d"
             id="path31" />
        </g>
        <g
           transform="translate(68.254 715.15)"
           id="g37">
          <path
             d="m0 0c-0.379-0.505-1.086-0.714-1.689-0.714-0.569 0-1.173 0.183-1.561 0.61-0.456 0.505-0.439 1.088-0.439 1.715v2.324c0 0.392 0.06 1.028-0.379 1.193v0.026h1.637v-0.026c-0.431-0.165-0.379-0.801-0.379-1.193v-2.324c0-1.158 0.483-1.698 1.371-1.698 0.482 0 0.974 0.2 1.258 0.609 0.19 0.262 0.181 0.479 0.181 0.793v2.62c0 0.392 0.052 1.028-0.379 1.193v0.026h1.637l9e-3 -0.026c-0.439-0.165-0.388-0.801-0.388-1.201v-3.283c0-0.391-0.051-1.027 0.388-1.192v-0.027h-1.267z"
             fill="#100f0d"
             id="path35" />
        </g>
        <g
           transform="translate(72.098 720.3)"
           id="g41">
          <path
             d="m0 0c1.155 0 1.784-0.61 1.784-1.402 0-0.766-0.664-1.366-1.37-1.532l1.241-1.576c0.362-0.453 0.905-0.905 1.396-1.219h-0.793c-0.457 0-0.741 0.113-1 0.435l-1.051 1.315-0.793 1.228c0.69 0.104 1.491 0.426 1.491 1.245 0 0.626-0.534 0.992-1.112 0.966-0.198-9e-3 -0.388-0.035-0.586-0.07v-3.9c0-0.4-0.052-1.036 0.388-1.193v-0.026h-1.646v0.026c0.439 0.157 0.379 0.801 0.379 1.193v3.282c0 0.401 0.06 1.036-0.379 1.202v0.026z"
             fill="#100f0d"
             id="path39" />
        </g>
        <g
           transform="translate(79.459 719.38)"
           id="g45">
          <path
             d="m0 0h-0.026c-0.353 0.408-1.008 0.533-1.534 0.533-1.345 0-2.37-0.906-2.37-2.336s1.103-2.513 2.465-2.513c0.396 0 0.81 0.053 1.198 0.169v1.278c0 0.409-9e-3 0.844-0.397 1.004v0.027h1.319v-0.027c-0.043-0.107-0.043-0.249-0.043-0.382v-2.042c0-0.134-9e-3 -0.276 0.043-0.4-0.689-0.133-1.362-0.266-2.06-0.266-2.206 0-3.508 1.243-3.508 3.028 0 1.909 1.474 3.099 3.56 3.099 0.457 0 0.905-0.053 1.353-0.151z"
             fill="#100f0d"
             id="path43" />
        </g>
        <g
           transform="translate(81.778 717.37)"
           id="g49">
          <path
             d="m0 0v-1.576c0-0.392-0.052-1.027 0.379-1.192v-0.027h-1.637v0.027c0.431 0.165 0.379 0.8 0.379 1.192v3.291c0 0.392 0.06 1.027-0.379 1.193v0.026h1.637v-0.026c-0.431-0.166-0.379-0.801-0.379-1.202v-1.079h3.112v1.079c0 0.401 0.06 1.036-0.379 1.202v0.026h1.646v-0.026c-0.44-0.166-0.388-0.801-0.388-1.193v-3.291c0-0.392-0.052-1.027 0.388-1.192v-0.027h-1.646v0.027c0.439 0.165 0.379 0.8 0.379 1.192v1.576z"
             fill="#100f0d"
             id="path47" />
        </g>
        <g
           transform="translate(89.224 714.57)"
           id="g53">
          <path
             d="m0 0 4.18 6.718-1.963 0.116c-0.716 0.047-1.132-0.105-1.732-0.501h-0.034l0.588 1.341h5.104l-4.157-6.694 2.425-0.14c0.843-0.047 1.57 0.21 2.286 0.641h0.034l-0.646-1.481z"
             fill="#100f0d"
             id="path51" />
        </g>
        <g
           transform="translate(98.661 720.54)"
           id="g57">
          <path
             d="m0 0c-1.8 0.044-3.214-1.361-3.214-3.04 0-1.812 1.431-3.067 3.128-3.067 1.705 0 3.154 1.308 3.154 3.111 0 1.591-1.269 3.005-3.068 2.996m-0.06-0.636c1.354 0 2.151-1.247 2.151-2.537 0-1.316-0.832-2.298-2.134-2.298-1.345 0-2.194 1.273-2.194 2.51 0 1.335 0.849 2.325 2.177 2.325"
             fill="#100f0d"
             id="path55" />
        </g>
        <g
           transform="translate(105 720.54)"
           id="g61">
          <path
             d="m0 0c-1.799 0.044-3.214-1.361-3.214-3.04 0-1.812 1.432-3.067 3.129-3.067 1.705 0 3.153 1.308 3.153 3.111 0 1.591-1.268 3.005-3.068 2.996m-0.06-0.636c1.354 0 2.151-1.247 2.151-2.537 0-1.316-0.831-2.298-2.134-2.298-1.345 0-2.194 1.273-2.194 2.51 0 1.335 0.849 2.325 2.177 2.325"
             fill="#100f0d"
             id="path59" />
        </g>
        <g
           transform="translate(47.982 704.34)"
           id="g65">
          <path
             d="m0 0c0 0.347 0.112 0.652 0.373 0.904 0.144 0.158 0.318 0.301 0.539 0.43 0.52-0.715 1.098-1.458 1.745-2.113-0.342-0.29-0.763-0.483-1.269-0.483-0.373 0-0.733 0.109-1 0.324-0.254 0.223-0.388 0.552-0.388 0.929zm4.996-1.003c-0.152-0.136-0.347-0.221-0.59-0.221-0.359 0-0.628 0.184-1.033 0.582 0.458 0.448 0.733 1.044 0.849 1.656 0.117 0.461 0.313 0.522 0.724 0.519v0.221h-1.679v-0.221c0.406 0 0.566-0.07 0.559-0.368-0.02-0.559-0.248-1.124-0.685-1.576-0.652 0.704-1.21 1.399-1.695 2.053 0.226 0.111 0.447 0.226 0.63 0.337 0.317 0.199 0.548 0.387 0.705 0.59 0.177 0.232 0.246 0.477 0.246 0.723 0 0.309-0.152 0.576-0.401 0.758-0.246 0.187-0.593 0.301-1.04 0.301-0.444 0-0.823-0.128-1.09-0.349-0.262-0.22-0.416-0.537-0.416-0.919 0-0.421 0.272-0.919 0.614-1.417-0.409-0.204-0.727-0.39-0.936-0.61-0.295-0.318-0.433-0.671-0.433-1.111 0-0.488 0.233-0.902 0.639-1.172 0.324-0.215 0.768-0.335 1.344-0.335 0.661 0 1.206 0.205 1.635 0.565 0.539-0.452 0.949-0.562 1.294-0.562 0.456 0 0.768 0.199 0.938 0.373zm-3.386 5.075c0.259 0 0.459-0.085 0.606-0.215 0.157-0.139 0.234-0.342 0.234-0.543 0-0.199-0.049-0.384-0.164-0.563-0.108-0.171-0.273-0.333-0.51-0.502-0.138-0.098-0.313-0.201-0.55-0.314-0.371 0.501-0.552 0.907-0.552 1.269 0 0.252 0.091 0.472 0.244 0.617 0.168 0.159 0.418 0.251 0.682 0.251z"
             fill="#100f0d"
             id="path63" />
        </g>
        <g
           transform="translate(60.494 705.4)"
           id="g69">
          <path
             d="m0 0 0.63-1.645c0.315-0.816 0.408-0.944-0.163-1.201v-0.035h2.391v0.035c-0.665 0.338-0.875 0.992-1.144 1.656l-2.425 5.983h-1.843v-0.035c0.56-0.175 0.338-0.665 0.175-1.084l-1.948-4.864c-0.256-0.664-0.455-1.318-1.131-1.656v-0.035h2.146v0.035c-0.56 0.21-0.478 0.548-0.233 1.201l0.606 1.645zm-0.338 0.863h-2.298l1.155 2.939z"
             fill="#100f0d"
             id="path67" />
        </g>
        <g
           transform="translate(70.24 701.37)"
           id="g73">
          <path
             d="m0 0c-1.019 0-2.003 0.826-2.725 1.492 0.958 0.453 1.549 1.58 1.549 2.628 0 1.812-1.436 3.011-3.151 3.011s-3.23-1.243-3.23-3.064c0-1.758 1.384-3.064 3.082-3.064 0.244 0 0.479 0.036 0.714 0.089 0.67-0.541 1.915-1.545 2.777-1.545 0.409 0 0.81 0.169 1.106 0.453zm-4.336 1.643c-1.315 0-2.229 1.137-2.229 2.584 0 1.163 0.793 2.265 2.186 2.265 1.462 0 2.211-1.315 2.211-2.549 0-1.305-0.862-2.3-2.168-2.3"
             fill="#100f0d"
             id="path71" />
        </g>
        <g
           transform="translate(73.392 703.09)"
           id="g77">
          <path
             d="m0 0c-0.387-0.505-1.108-0.714-1.724-0.714-0.58 0-1.195 0.183-1.591 0.609-0.466 0.506-0.448 1.089-0.448 1.716v2.324c0 0.392 0.061 1.028-0.388 1.193v0.026h1.671v-0.026c-0.439-0.165-0.387-0.801-0.387-1.193v-2.324c0-1.159 0.493-1.698 1.399-1.698 0.492 0 0.993 0.2 1.284 0.609 0.193 0.261 0.184 0.479 0.184 0.793v2.62c0 0.392 0.053 1.028-0.387 1.193v0.026h1.671l9e-3 -0.026c-0.449-0.165-0.396-0.801-0.396-1.202v-3.282c0-0.392-0.053-1.027 0.396-1.193v-0.026h-1.293z"
             fill="#100f0d"
             id="path75" />
        </g>
        <g
           transform="translate(78.547 704.69)"
           id="g81">
          <path
             d="m0 0 0.47-1.24c0.235-0.615 0.305-0.712-0.122-0.906v-0.026h1.785v0.026c-0.496 0.255-0.653 0.748-0.853 1.249l-1.811 4.511h-1.375v-0.026c0.417-0.132 0.252-0.501 0.13-0.818l-1.454-3.667c-0.192-0.501-0.339-0.994-0.845-1.249v-0.026h1.602v0.026c-0.417 0.159-0.356 0.414-0.174 0.906l0.453 1.24zm-0.252 0.651h-1.715l0.861 2.216z"
             fill="#100f0d"
             id="path79" />
        </g>
        <g
           transform="translate(82.53 708.3)"
           id="g85">
          <path
             d="m0 0c1.167 0 1.802-0.616 1.802-1.416 0-0.774-0.67-1.381-1.384-1.547l1.254-1.592c0.365-0.457 0.914-0.915 1.41-1.231h-0.801c-0.461 0-0.749 0.114-1.01 0.44l-1.062 1.327-0.801 1.24c0.696 0.106 1.506 0.431 1.506 1.258 0 0.633-0.54 1.002-1.123 0.976-0.2-9e-3 -0.392-0.035-0.592-0.071v-3.939c0-0.404-0.052-1.047 0.392-1.205v-0.026h-1.663v0.026c0.444 0.158 0.383 0.809 0.383 1.205v3.315c0 0.405 0.061 1.046-0.383 1.213v0.027z"
             fill="#100f0d"
             id="path83" />
        </g>
        <g
           transform="translate(85.329 707.06)"
           id="g89">
          <path
             d="m0 0c0 0.405 0.061 1.047-0.383 1.214v0.026h1.654v-0.026c-0.435-0.167-0.383-0.818-0.383-1.214v-3.315c0-0.396-0.052-1.037 0.383-1.205v-0.026h-1.654v0.026c0.435 0.159 0.383 0.809 0.383 1.205z"
             fill="#100f0d"
             id="path87" />
        </g>
        <g
           transform="translate(91.206 703.1)"
           id="g93">
          <path
             d="m0 0c-0.383-0.51-1.097-0.721-1.706-0.721-0.575 0-1.184 0.185-1.576 0.616-0.462 0.51-0.444 1.099-0.444 1.732v2.348c0 0.395 0.061 1.037-0.383 1.204v0.027h1.654v-0.027c-0.435-0.167-0.383-0.809-0.383-1.204v-2.348c0-1.17 0.487-1.715 1.384-1.715 0.488 0 0.984 0.203 1.271 0.616 0.192 0.264 0.183 0.483 0.183 0.8v2.647c0 0.395 0.052 1.037-0.383 1.204v0.027h1.654l9e-3 -0.027c-0.444-0.167-0.392-0.809-0.392-1.213v-3.315c0-0.396-0.052-1.038 0.392-1.205v-0.026h-1.28z"
             fill="#100f0d"
             id="path91" />
        </g>
        <g
           transform="translate(97.888 707.75)"
           id="g97">
          <path
             d="m0 0c0.07 0.185 0.131 0.361 0.131 0.545v9e-3h1.506v-0.027c-0.209-0.061-0.27-0.316-0.27-0.518l0.575-4.318c0.052-0.413 0.095-0.65 0.444-0.897v-0.026h-1.681v0.026c0.305 0.097 0.357 0.361 0.357 0.66l-0.496 4.238-1.95-5.038c-0.436 0.334-0.558 0.571-0.766 1.064l-1.655 3.965-0.496-3.781c-0.069-0.536-0.13-0.923 0.279-1.108v-0.026h-1.419v0.026c0.365 0.326 0.417 0.757 0.487 1.231l0.497 3.685c0.034 0.246 0.13 0.598-0.27 0.817v0.027h1.523v-9e-3c0-0.141 0.07-0.272 0.122-0.396l1.637-3.877z"
             fill="#100f0d"
             id="path95" />
        </g>
      </g>
    </g>
  </g>
</svg>
